<?xml version="1.0" standalone="no"?>
<!DOCTYPE svg PUBLIC "-//W3C//DTD SVG 20010904//EN"
 "http://www.w3.org/TR/2001/REC-SVG-20010904/DTD/svg10.dtd">
<svg version="1.0" xmlns="http://www.w3.org/2000/svg"
 width="900.000000pt" height="429.000000pt" viewBox="0 0 900.000000 429.000000"
 preserveAspectRatio="xMidYMid meet">
<metadata>
Created by potrace 1.10, written by Peter Selinger 2001-2011
</metadata>
<g transform="translate(0.000000,429.000000) scale(0.100000,-0.100000)"
fill="#000000" stroke="none">
<path d="M1840 3351 c-128 -20 -252 -62 -375 -127 -16 -9 -47 -25 -67 -36 -21
-11 -38 -24 -38 -29 0 -5 -6 -9 -14 -9 -19 0 -150 -105 -206 -166 -55 -59
-116 -139 -150 -195 -14 -23 -35 -57 -48 -76 -12 -19 -22 -39 -22 -46 0 -7
-10 -30 -22 -52 -11 -22 -29 -69 -39 -105 -10 -36 -25 -90 -34 -120 -22 -75
-31 -325 -16 -416 28 -159 93 -348 152 -442 16 -26 37 -60 47 -76 57 -93 297
-336 333 -336 5 0 28 -14 51 -30 22 -16 45 -30 50 -30 4 0 25 -11 46 -24 54
-34 262 -101 376 -121 215 -38 456 1 702 115 129 59 283 171 363 262 20 23 47
53 61 67 21 22 57 74 108 156 28 47 95 194 108 240 8 28 24 84 36 125 18 65
21 100 21 265 0 167 -3 198 -22 260 -12 39 -28 94 -36 123 -8 29 -26 74 -40
100 -14 26 -25 52 -25 57 0 10 -117 193 -145 225 -27 33 -165 167 -202 196
-103 83 -284 172 -448 220 -79 23 -112 26 -270 29 -99 2 -205 0 -235 -4z m200
-81 c0 -22 5 -40 10 -40 6 0 10 -7 10 -15 0 -8 -4 -15 -9 -15 -6 0 -11 -15
-13 -32 -3 -37 -32 -51 -40 -20 -3 11 -3 52 0 91 4 61 7 71 23 71 15 0 19 -8
19 -40z m43 26 c6 -15 -1 -26 -15 -26 -4 0 -8 9 -8 20 0 23 15 27 23 6z m-110
-49 c11 -48 1 -107 -18 -107 -12 0 -15 14 -15 59 0 63 -14 88 -28 50 -8 -22
-1 -84 13 -122 7 -16 5 -16 -19 -6 -50 23 -72 104 -38 145 39 46 92 36 105
-19z m267 29 c0 -8 -10 -16 -22 -18 -32 -4 -50 -88 -25 -116 18 -20 13 -32
-13 -32 -18 0 -60 51 -60 73 0 20 31 80 49 94 23 17 71 16 71 -1z m-450 -21
c0 -16 -6 -25 -15 -25 -15 0 -21 31 -8 43 13 14 23 6 23 -18z m518 12 c7 -8 7
-18 2 -27 -6 -8 -10 -27 -10 -41 0 -35 -28 -89 -46 -89 -23 0 -27 25 -11 62 9
18 18 50 22 71 6 38 24 48 43 24z m-562 -43 c9 -19 32 -48 51 -62 18 -15 33
-33 33 -39 0 -15 -36 -17 -45 -3 -10 17 -23 11 -27 -12 -2 -18 -10 -23 -45
-25 -24 -1 -43 2 -43 7 0 6 -7 10 -15 10 -9 0 -14 -8 -12 -22 1 -15 -3 -23
-13 -23 -9 0 -16 11 -18 30 -2 17 -10 38 -19 47 -8 9 -16 32 -16 50 -2 30 1
34 36 42 44 11 57 1 57 -50 0 -19 9 -39 24 -53 32 -30 37 -12 13 57 -10 30
-16 61 -13 68 10 25 35 15 52 -22z m644 7 c0 -16 -5 -31 -10 -33 -6 -2 -13
-20 -17 -41 -6 -41 9 -50 33 -19 13 16 15 16 29 -2 14 -18 15 -17 15 26 0 51
19 78 39 54 8 -10 10 -34 5 -74 -4 -40 -3 -62 5 -66 6 -4 14 1 17 11 29 83 52
111 69 82 4 -5 18 -14 31 -19 36 -14 33 -55 -6 -69 -27 -9 -30 -14 -30 -51 0
-34 -3 -41 -17 -38 -12 2 -17 11 -15 25 4 26 -16 41 -24 19 -8 -20 -30 -21
-41 -2 -4 8 -17 16 -28 18 -15 3 -20 11 -18 31 2 29 -23 39 -33 13 -7 -19 -84
-17 -91 2 -3 7 -1 23 5 35 6 12 13 36 17 52 15 68 65 104 65 46z m-835 -85
c12 -13 25 -40 29 -58 5 -29 1 -40 -23 -67 l-29 -32 -36 36 c-20 19 -36 44
-36 55 0 10 -3 25 -6 33 -7 20 30 57 57 57 12 0 32 -11 44 -24z m-125 -60 c0
-12 -5 -27 -12 -34 -6 -6 -9 -15 -5 -19 4 -4 13 -1 19 5 9 9 16 4 30 -25 10
-20 18 -40 18 -45 0 -14 -47 -9 -60 7 -7 8 -17 15 -22 15 -16 0 -58 52 -58 71
0 20 24 26 35 9 12 -19 26 -10 20 11 -5 13 -2 25 6 30 18 11 29 2 29 -25z
m702 10 c24 -8 67 -16 97 -20 30 -3 59 -10 65 -16 5 -5 19 -10 31 -10 11 0 33
-7 49 -15 15 -8 37 -15 47 -15 11 0 22 -6 25 -14 3 -8 19 -18 35 -21 16 -4 29
-11 29 -16 0 -5 7 -9 15 -9 13 0 117 -70 160 -108 56 -50 175 -198 175 -220 0
-5 6 -15 14 -21 8 -7 18 -25 21 -41 3 -16 13 -34 21 -41 8 -6 14 -24 14 -40 0
-16 4 -29 10 -29 5 0 12 -17 16 -37 4 -21 11 -43 16 -50 6 -7 15 -79 20 -161
15 -210 -4 -349 -66 -473 -14 -28 -26 -55 -26 -60 0 -18 -52 -79 -66 -79 -22
0 -16 -30 9 -50 20 -17 21 -20 6 -35 -14 -14 -23 -15 -55 -6 -22 6 -98 11
-171 11 -72 0 -134 4 -137 9 -7 10 16 21 47 21 12 0 31 7 41 15 11 8 27 15 37
15 9 0 22 7 29 15 7 8 19 15 27 15 7 0 26 11 41 25 15 14 35 25 45 25 10 0 21
8 24 18 4 9 12 21 20 25 26 16 12 28 -29 25 -36 -3 -43 -7 -48 -28 -4 -17 -14
-26 -30 -28 -14 -2 -32 -10 -40 -17 -37 -32 -104 -57 -137 -52 -31 5 -35 3
-45 -24 -8 -23 -16 -29 -32 -27 -15 2 -20 9 -19 26 3 27 -13 29 -22 2 -7 -22
-35 -28 -35 -7 0 7 -9 29 -20 50 -26 47 -25 67 0 67 12 0 35 7 51 16 18 9 41
13 58 9 21 -4 32 0 51 20 17 18 34 25 61 25 35 0 38 -2 41 -32 3 -36 28 -52
28 -18 0 12 -4 29 -10 39 -11 22 8 71 28 71 8 0 27 14 44 30 16 17 35 30 41
30 16 0 71 -66 77 -93 6 -23 19 -30 37 -19 14 9 -1 76 -24 103 -7 8 -13 22
-13 30 0 9 -7 24 -15 35 -8 10 -15 26 -15 34 0 17 -25 41 -60 60 -17 9 -19 14
-10 25 20 24 121 67 147 62 34 -6 35 3 8 59 -14 27 -25 60 -25 75 0 14 -5 30
-12 37 -30 30 -133 -2 -158 -49 -6 -10 -10 -70 -9 -134 1 -64 -1 -119 -5 -123
-4 -3 -15 -1 -24 5 -15 9 -16 27 -12 164 2 85 4 254 5 377 l0 223 -198 3 -198
2 -24 30 c-14 16 -24 36 -25 45 0 8 -7 24 -15 35 -8 10 -15 27 -15 37 0 9 -4
17 -10 17 -10 0 -50 80 -50 100 0 6 -7 13 -15 16 -8 4 -15 15 -15 25 0 11 -7
22 -15 25 -19 8 -45 -13 -45 -36 0 -10 -7 -20 -15 -24 -8 -3 -15 -14 -15 -24
0 -11 -7 -25 -15 -32 -8 -7 -15 -21 -15 -31 0 -10 -4 -20 -9 -23 -11 -7 -51
-88 -51 -103 0 -6 -13 -22 -29 -35 -28 -24 -33 -25 -212 -26 -101 0 -187 -1
-191 -2 -8 0 -4 -386 7 -602 6 -116 10 -148 21 -148 8 0 14 8 14 18 1 9 18 49
38 89 20 40 68 134 107 210 38 76 72 140 76 143 3 3 23 40 44 83 22 43 45 83
52 89 7 6 13 17 13 25 0 8 14 32 30 53 17 21 30 42 30 48 0 5 14 24 30 42 17
18 30 42 30 55 0 12 9 30 20 40 11 10 20 29 20 42 0 12 5 23 10 23 6 0 10 11
10 24 0 22 32 56 52 56 5 0 8 -15 8 -34 0 -18 7 -39 15 -46 8 -7 15 -18 15
-25 0 -13 55 -121 73 -144 6 -7 16 -21 22 -31 5 -10 27 -43 48 -74 20 -30 37
-59 37 -65 0 -5 14 -30 30 -54 17 -25 30 -51 30 -58 0 -7 6 -20 14 -28 20 -23
226 -430 226 -447 0 -7 9 -18 20 -24 11 -6 20 -17 20 -25 0 -8 11 -35 25 -61
14 -26 25 -52 25 -58 0 -6 -28 -24 -63 -39 -34 -16 -75 -35 -92 -42 -16 -8
-43 -17 -60 -20 -16 -3 -54 -13 -83 -22 -29 -8 -63 -12 -76 -9 -13 3 -38 -1
-55 -10 -37 -18 -76 -12 -85 13 -3 10 -15 32 -26 48 -11 17 -23 37 -27 45 -4
8 -26 43 -49 76 -23 34 -43 66 -45 70 -16 37 -134 202 -141 198 -5 -4 -7 -95
-4 -222 4 -219 0 -256 -29 -232 -10 8 -12 69 -8 275 l6 264 -24 20 c-13 11
-32 20 -41 21 -23 0 -23 26 -1 34 9 4 41 4 70 0 39 -5 53 -10 53 -23 1 -9 12
-34 25 -56 14 -22 28 -47 32 -55 3 -8 19 -31 35 -51 15 -20 28 -40 28 -43 0
-3 19 -34 43 -69 24 -34 46 -69 50 -77 4 -8 15 -27 25 -41 9 -14 28 -45 42
-67 46 -77 50 -63 50 186 0 125 -4 232 -8 238 -4 6 -17 15 -30 19 -14 4 -22
13 -20 23 3 14 16 17 76 18 45 0 80 -4 90 -12 15 -12 14 -14 -15 -24 l-33 -12
0 -233 c0 -128 -3 -247 -6 -264 -4 -17 -3 -31 2 -31 31 1 34 19 38 259 l3 244
26 16 c36 21 39 35 16 65 -25 32 -64 40 -153 31 -67 -6 -73 -8 -82 -34 -13
-34 1 -69 30 -73 20 -3 21 -8 23 -178 1 -96 -1 -168 -4 -160 -3 8 -12 23 -20
32 -10 11 -13 27 -10 45 4 15 4 22 1 16 -9 -21 -34 -15 -34 7 0 11 -7 23 -15
26 -8 3 -17 16 -21 27 -4 12 -16 35 -28 52 -11 16 -29 46 -40 65 -10 19 -25
40 -34 46 -11 8 -13 21 -9 49 5 29 4 36 -5 27 -10 -10 -19 -4 -43 22 l-30 34
-75 -6 c-67 -6 -76 -10 -90 -34 -19 -35 -6 -59 37 -72 l31 -8 2 -237 c1 -130
3 -247 3 -261 2 -22 -3 -25 -35 -28 -21 -2 -52 3 -70 12 -18 8 -44 17 -58 21
-14 3 -36 11 -50 17 -136 56 -170 72 -170 81 0 4 12 26 26 48 l25 40 -21 45
c-23 47 -27 49 -79 34 -37 -10 -60 -35 -61 -65 0 -11 -9 -28 -20 -38 -11 -9
-20 -25 -20 -35 0 -10 -7 -28 -16 -40 -8 -12 -19 -36 -24 -52 -7 -26 -6 -30
11 -30 11 0 24 10 29 23 5 12 25 40 44 62 l35 40 46 -45 c32 -32 44 -50 40
-65 -3 -11 -2 -14 1 -7 9 20 62 15 74 -8 8 -14 17 -19 30 -15 12 4 31 -2 49
-16 16 -12 37 -19 45 -16 22 9 54 -39 37 -56 -6 -6 -11 -25 -11 -42 0 -23 -10
-42 -37 -68 l-36 -37 -116 -2 c-135 -1 -155 -3 -197 -12 -40 -9 -57 21 -25 43
12 7 21 19 21 26 0 7 7 15 15 19 8 3 15 13 15 22 0 21 28 54 47 54 7 0 13 -6
13 -13 0 -12 34 -47 46 -47 3 0 35 -13 71 -30 67 -31 123 -39 123 -17 -1 15
-127 78 -158 77 -12 0 -25 7 -28 15 -4 8 -15 15 -26 15 -10 0 -31 14 -45 30
-15 18 -34 30 -49 30 -29 0 -31 -15 -4 -30 11 -6 20 -14 20 -19 0 -4 -9 -18
-20 -31 -11 -13 -20 -32 -20 -42 0 -32 -30 -17 -56 27 -39 66 -64 118 -64 133
0 7 -5 23 -12 35 -7 12 -20 51 -30 87 -23 88 -26 409 -4 443 8 12 17 39 19 60
2 21 9 43 15 49 7 7 12 24 12 39 0 15 7 32 15 39 8 7 15 19 15 27 0 36 126
212 199 280 68 62 81 73 85 73 2 0 28 16 57 36 29 19 78 47 109 61 30 13 68
31 83 39 16 8 37 14 47 14 10 0 31 7 46 15 16 8 49 15 74 15 25 0 68 7 95 14
66 19 124 19 177 2z m594 -8 c30 -29 30 -38 0 -38 -14 0 -31 -11 -42 -27 -10
-14 -31 -40 -46 -57 -24 -28 -27 -29 -34 -13 -6 18 23 87 38 87 3 0 10 10 14
23 15 51 35 58 70 25z m-1396 -68 c13 -17 28 -30 32 -30 34 0 63 -70 36 -86
-16 -10 -129 112 -121 131 8 23 25 17 53 -15z m1476 -2 c26 -25 33 -48 9 -28
-13 10 -19 10 -35 -5 -11 -10 -20 -24 -20 -31 0 -7 -9 -16 -20 -19 -13 -4 -20
-15 -20 -32 0 -16 -4 -23 -12 -19 -7 3 -21 9 -30 12 -26 9 -21 25 22 69 22 22
43 48 46 58 7 23 31 21 60 -5z m-1547 -53 c1 -10 23 -38 47 -63 24 -24 41 -48
38 -53 -11 -19 -42 -7 -79 31 -47 48 -74 51 -98 9 -18 -32 -15 -49 8 -49 8 0
25 -14 37 -30 l22 -31 18 23 c15 20 18 21 23 6 9 -23 -33 -70 -56 -63 -23 8
-119 96 -119 109 0 6 16 22 35 35 19 13 35 27 35 32 0 14 62 70 74 66 6 -2 13
-12 15 -22z m1635 -37 c22 -44 20 -53 -15 -76 -17 -10 -36 -30 -43 -43 -13
-28 -56 -39 -56 -15 0 8 5 18 10 21 6 3 10 13 10 22 0 13 -3 13 -15 3 -17 -14
-45 -7 -45 12 0 8 23 31 50 53 28 22 50 43 50 47 0 5 9 8 19 8 12 0 26 -13 35
-32z m104 -128 c24 -22 27 -35 13 -45 -6 -3 -14 2 -19 11 -11 20 -32 10 -32
-15 0 -9 -5 -22 -12 -29 -17 -17 0 -28 22 -14 33 20 78 15 95 -12 15 -23 12
-56 -6 -56 -5 0 -9 9 -9 20 0 33 -42 24 -91 -20 -24 -22 -47 -40 -51 -40 -12
0 -9 55 3 67 7 7 -2 15 -30 27 -28 11 -41 22 -41 35 0 28 20 37 27 12 7 -27
33 -27 33 -1 0 22 19 60 35 72 18 13 41 9 63 -12z m-1898 -5 c0 -8 -7 -15 -15
-15 -8 0 -15 7 -15 15 0 8 7 15 15 15 8 0 15 -7 15 -15z m65 -42 c11 -3 28
-16 38 -29 19 -26 19 -26 -37 -39 -27 -6 -28 -7 -11 -25 16 -17 16 -20 2 -26
-9 -3 -24 3 -36 15 -11 11 -38 32 -61 46 -22 14 -40 32 -40 40 0 15 42 31 57
22 5 -3 15 -2 23 4 8 5 22 6 30 3 8 -4 24 -9 35 -11z m386 -102 c-15 -27 -27
-27 -42 1 -10 18 -8 24 7 35 15 11 20 11 32 -1 11 -11 11 -18 3 -35z m139 19
c0 -6 -4 -10 -9 -10 -22 0 -23 -43 -1 -72 18 -25 20 -34 11 -54 -12 -26 -40
-31 -60 -11 -17 17 -69 -46 -63 -78 2 -14 -6 -33 -21 -51 -28 -32 -41 -28 -38
13 0 16 1 66 1 112 l0 83 34 -6 c40 -8 61 11 53 50 -4 22 0 28 27 39 31 13 66
5 66 -15z m799 6 c8 -10 9 -16 1 -21 -21 -13 -9 -35 31 -55 36 -19 40 -25 37
-53 -2 -26 -9 -33 -36 -41 -36 -10 -38 -29 -4 -34 27 -4 45 -36 37 -62 -8 -24
-33 -25 -81 -5 -34 14 -36 17 -30 51 6 30 3 39 -18 59 -16 15 -28 19 -34 13
-7 -7 -14 -3 -21 10 -9 16 -8 23 2 29 19 11 37 47 37 72 0 16 -6 21 -25 21
-22 0 -32 10 -21 21 3 2 29 5 59 7 37 1 58 -2 66 -12z m74 7 c11 -10 -13 -32
-29 -26 -11 4 -12 9 -3 19 13 15 22 18 32 7z m545 -80 c-2 -21 -9 -29 -28 -31
-14 -2 -30 -8 -37 -13 -19 -16 -69 -27 -83 -19 -17 11 -5 40 17 40 10 0 27 7
37 15 11 8 28 15 38 15 10 0 18 5 18 10 0 6 9 10 21 10 16 0 20 -5 17 -27z
m-2128 -28 c8 -21 14 -24 34 -19 19 4 26 1 31 -15 4 -14 15 -21 31 -21 19 0
24 -5 24 -25 0 -21 -5 -25 -29 -25 -16 0 -34 7 -41 15 -7 8 -30 18 -52 22 -51
8 -66 38 -34 70 27 27 25 28 36 -2z m2154 -21 c13 -33 6 -43 -31 -46 -56 -5
-55 -28 1 -28 36 0 48 -4 52 -17 3 -10 10 -27 16 -37 8 -16 6 -23 -11 -37 -29
-23 -27 -36 9 -54 24 -13 30 -22 30 -50 0 -18 -4 -37 -10 -40 -17 -10 -138
-10 -148 0 -5 6 -12 22 -16 37 -8 34 15 58 57 59 28 1 27 2 -12 10 -48 9 -70
31 -71 70 0 20 6 28 25 33 14 4 25 11 25 16 0 6 -11 8 -25 4 -26 -7 -59 11
-49 27 3 5 16 9 28 9 13 0 29 7 36 15 7 8 21 15 31 15 10 0 24 7 31 15 17 19
24 19 32 -1z m-2019 -5 c11 -17 2 -18 -19 -3 -17 12 -17 14 -4 14 9 0 20 -5
23 -11z m545 -86 c-1 -10 -10 -29 -21 -42 -17 -21 -22 -22 -30 -10 -13 20 -11
30 9 50 22 23 42 24 42 2z m-675 -24 c5 -5 26 -9 48 -9 34 0 38 -2 35 -22 -4
-29 -42 -32 -115 -9 -61 19 -68 25 -59 47 5 13 14 15 44 9 20 -3 41 -11 47
-16z m-50 -70 c4 -6 21 -9 39 -8 55 4 68 0 64 -18 -2 -12 -13 -18 -28 -18 -14
0 -25 -4 -25 -10 0 -5 11 -10 25 -10 18 -1 25 -6 25 -20 0 -18 -6 -20 -70 -17
-75 4 -95 13 -95 44 0 43 48 85 65 57z m611 -83 c-7 -56 -26 -87 -26 -43 0 55
13 118 23 108 5 -5 7 -32 3 -65z m-575 -42 c35 -5 47 -12 57 -32 18 -38 15
-50 -15 -66 l-28 -14 28 -11 c15 -6 27 -13 27 -16 0 -11 -42 -46 -68 -57 l-27
-12 29 -4 c16 -2 32 2 36 8 12 19 29 3 23 -20 -4 -15 -14 -20 -37 -20 -18 0
-37 5 -43 11 -8 8 -17 8 -31 0 -36 -19 -62 -14 -62 12 0 28 17 47 42 47 10 0
18 5 18 10 0 6 -14 10 -31 10 -20 0 -29 4 -26 13 4 11 31 13 67 5 34 -7 19 18
-18 31 -35 13 -41 19 -45 50 -7 56 14 67 104 55z m2238 -40 c2 -2 1 -10 -2
-19 -5 -11 -22 -15 -71 -15 l-65 0 2 -37 c1 -29 -2 -38 -15 -41 -21 -4 -25 37
-6 56 9 9 8 15 -8 27 -19 15 -19 15 0 30 15 11 36 13 90 9 39 -4 73 -8 75 -10z
m-7 -119 c8 -18 8 -32 -2 -55 -15 -36 -35 -40 -26 -6 8 31 -13 39 -39 15 -11
-9 -32 -20 -47 -24 -21 -5 -29 -2 -38 14 -13 26 -6 41 22 41 11 0 31 9 45 20
36 28 71 26 85 -5z m-1283 -60 c6 -3 11 -15 11 -26 0 -11 14 -33 30 -49 17
-16 30 -35 30 -42 0 -8 14 -28 30 -46 17 -18 30 -39 30 -46 0 -7 13 -26 30
-42 16 -16 30 -37 30 -48 0 -17 -7 -18 -110 -14 -60 2 -111 6 -113 9 -2 2 -1
83 1 179 3 105 8 166 12 154 5 -12 13 -25 19 -29z m-888 -125 c4 -35 16 -71
32 -98 15 -23 27 -53 27 -68 0 -14 14 -43 30 -64 17 -21 30 -48 30 -59 0 -12
10 -35 21 -51 25 -33 21 -63 -11 -98 -28 -30 -40 -28 -40 8 0 23 3 28 17 23
14 -5 15 -1 9 28 -12 60 -56 79 -56 24 0 -12 -6 -25 -14 -28 -26 -10 -37 56
-12 70 8 4 17 25 21 46 7 33 5 37 -14 37 -11 0 -21 -6 -21 -12 0 -7 -4 -19 -9
-27 -8 -12 -12 -12 -25 -2 -21 18 -20 46 4 79 15 21 18 36 13 70 -5 37 -9 43
-27 40 -13 -2 -21 -11 -22 -23 -3 -59 -4 -64 -18 -59 -15 6 -36 47 -36 70 0 8
11 24 25 36 17 15 25 32 25 54 0 45 10 66 29 62 11 -2 18 -19 22 -58z m2045
33 c-4 -16 -11 -56 -16 -90 -5 -34 -16 -73 -24 -85 -19 -30 -49 -135 -49 -172
0 -16 -8 -37 -19 -48 -19 -19 -21 -19 -39 -2 -22 20 -25 51 -6 79 8 11 22 43
32 70 10 28 21 55 25 60 9 14 36 91 54 158 11 39 22 57 32 57 13 0 15 -6 10
-27z m70 -111 c-17 -66 -100 -247 -117 -258 -5 -3 -9 8 -9 24 0 17 6 32 15 36
8 3 15 15 15 26 0 12 11 41 25 65 13 24 27 68 31 97 8 57 33 102 49 87 6 -6 3
-34 -9 -77z m-1347 -146 c9 -10 20 -12 41 -6 21 6 32 4 41 -6 7 -9 16 -11 23
-6 12 10 111 14 139 6 13 -4 17 -16 17 -54 0 -27 4 -51 9 -55 16 -10 29 26 23
67 l-5 38 64 -2 c58 -3 65 -5 77 -30 7 -15 13 -44 15 -65 l2 -38 -62 0 c-45 0
-68 -5 -83 -17 -31 -27 -59 -23 -66 10 -10 46 -14 53 -24 47 -5 -3 -10 -18
-10 -32 0 -22 -4 -25 -26 -20 -16 3 -28 0 -31 -9 -6 -17 -30 -18 -35 -2 -4 12
-24 15 -128 21 l-45 2 0 66 c0 85 31 125 64 85z m-94 -46 c7 -11 -12 -50 -24
-50 -10 0 -21 47 -13 55 9 8 30 6 37 -5z m603 -34 c-2 -12 -10 -21 -18 -21
-16 0 -25 28 -16 52 9 23 38 -4 34 -31z m691 -92 c-9 -11 -15 -12 -23 -4 -8 8
-7 13 4 20 20 12 33 1 19 -16z m-92 -3 c14 -22 -3 -71 -24 -71 -7 0 -13 -5
-13 -12 0 -18 -42 -58 -61 -58 -25 0 -40 -29 -26 -51 16 -25 2 -35 -27 -20
-25 14 -58 3 -81 -24 -17 -21 -62 -27 -69 -9 -6 17 38 64 60 64 8 0 14 3 14 8
0 8 4 10 94 55 58 29 71 47 36 47 -11 0 -20 7 -20 15 0 17 25 20 35 5 3 -5 15
-10 26 -10 15 0 19 7 19 33 0 49 16 61 37 28z m-1147 -15 c14 -4 36 -19 50
-32 50 -48 93 -84 101 -84 4 0 28 -13 52 -30 52 -35 90 -38 132 -10 17 11 39
25 50 32 48 31 102 74 126 103 l27 30 223 -3 c123 -2 228 -7 232 -11 5 -5 -7
-20 -25 -35 -18 -14 -44 -37 -58 -50 -14 -13 -42 -33 -62 -45 -21 -13 -38 -27
-38 -32 0 -5 -9 -9 -19 -9 -11 0 -22 -4 -25 -9 -6 -8 -34 -23 -121 -61 -68
-30 -132 -49 -165 -50 -19 0 -73 -7 -120 -16 -76 -13 -96 -13 -180 0 -52 8
-111 17 -130 19 -31 4 -60 13 -125 38 -83 32 -217 105 -228 124 -4 8 -15 15
-23 15 -9 0 -30 15 -47 33 -18 18 -43 41 -56 49 -13 9 -21 23 -19 30 4 10 51
13 214 13 115 0 220 -4 234 -9z m-486 -33 c4 -9 1 -20 -5 -24 -21 -12 -1 -39
28 -39 20 0 36 -10 55 -34 15 -19 42 -39 60 -45 18 -6 38 -19 45 -29 10 -17 8
-18 -13 -14 -13 2 -31 -1 -39 -8 -18 -15 -45 -6 -45 15 0 9 -13 21 -28 28 -16
7 -43 29 -61 49 -17 20 -42 38 -54 40 -33 5 -31 30 5 56 39 26 44 27 52 5z
m280 -245 c21 -29 20 -41 -2 -68 -41 -51 -102 9 -66 65 20 31 48 32 68 3z
m1004 -6 c17 -14 23 -26 20 -48 -3 -26 -7 -29 -38 -29 -27 0 -37 6 -49 27 -14
25 -14 28 9 47 30 25 30 25 58 3z m-774 -62 c14 -13 -3 -30 -30 -30 -34 0 -64
17 -64 36 0 13 8 14 43 9 23 -4 46 -11 51 -15z m596 10 c0 -5 -16 -17 -36 -26
-32 -16 -37 -16 -51 -1 -19 18 -12 23 42 30 17 2 33 5 38 6 4 0 7 -3 7 -9z
m-490 -56 c-6 -14 -10 -45 -10 -70 0 -40 -2 -44 -25 -44 -28 0 -44 25 -26 43
6 6 11 32 11 58 0 50 12 63 42 47 14 -7 15 -13 8 -34z m108 4 c14 -31 4 -119
-14 -125 -18 -6 -33 48 -21 74 11 25 2 57 -13 48 -5 -3 -10 -19 -10 -36 0 -36
-17 -38 -30 -3 -15 39 -12 54 13 64 35 15 61 7 75 -22z m111 16 c21 -15 23
-23 19 -72 -5 -59 -23 -82 -65 -82 -19 0 -23 5 -23 28 1 23 2 24 11 10 9 -16
39 -26 39 -14 0 18 -15 36 -31 36 -19 0 -39 27 -39 54 0 19 35 56 53 56 7 0
23 -7 36 -16z m142 -39 c10 -76 -20 -110 -76 -88 -16 5 -16 8 3 22 21 17 33
74 17 78 -6 2 -10 -6 -10 -17 0 -11 -6 -25 -12 -31 -17 -17 -38 31 -29 66 6
24 10 26 54 23 l47 -3 6 -50z m-600 15 c26 -15 24 -30 -5 -30 -25 0 -51 22
-39 33 9 10 21 9 44 -3z m777 -17 c2 -8 -5 -13 -17 -13 -12 0 -21 6 -21 16 0
18 31 15 38 -3z m-488 -71 c0 -10 5 -23 12 -30 9 -9 7 -12 -9 -12 -22 0 -40
31 -28 50 10 16 25 11 25 -8z"/>
<path d="M1614 3186 c-6 -17 2 -36 17 -36 12 0 12 37 -1 45 -6 3 -13 -1 -16
-9z"/>
<path d="M1490 3120 c0 -22 38 -80 52 -80 16 0 8 48 -13 74 -25 31 -39 33 -39
6z"/>
<path d="M2025 2941 c-6 -11 9 -23 19 -14 9 9 7 23 -3 23 -6 0 -12 -4 -16 -9z"/>
<path d="M2090 2815 c0 -8 5 -15 10 -15 6 0 10 7 10 15 0 8 -4 15 -10 15 -5 0
-10 -7 -10 -15z"/>
<path d="M1236 2278 c-9 -12 -16 -35 -16 -50 0 -16 -4 -28 -10 -28 -5 0 -12
-17 -16 -37 -3 -21 -12 -48 -20 -60 -19 -31 -17 -63 7 -119 20 -45 22 -46 35
-29 13 18 21 43 38 118 8 33 36 36 73 7 29 -23 58 -26 70 -7 11 18 13 128 2
157 -23 62 -132 93 -163 48z m44 -134 c0 -13 -4 -24 -9 -24 -13 0 -24 37 -16
50 10 16 25 1 25 -26z"/>
<path d="M1280 1775 c0 -8 7 -15 15 -15 8 0 15 7 15 15 0 8 -7 15 -15 15 -8 0
-15 -7 -15 -15z"/>
<path d="M2682 1768 c-15 -15 -16 -38 -1 -38 12 0 38 29 39 43 0 11 -25 8 -38
-5z"/>
<path d="M1346 1751 c-5 -8 34 -41 49 -41 10 0 5 19 -11 34 -17 18 -30 20 -38
7z"/>
<path d="M1435 1720 c-4 -6 -3 -16 3 -22 6 -6 12 -6 17 2 4 6 3 16 -3 22 -6 6
-12 6 -17 -2z"/>
<path d="M2549 1715 c-3 -5 -9 -22 -13 -37 -6 -25 -4 -28 20 -28 20 0 24 3 16
13 -5 6 -12 23 -14 37 -1 14 -6 21 -9 15z"/>
<path d="M1500 1677 c0 -8 9 -22 20 -32 19 -17 20 -17 20 -1 0 17 -22 46 -34
46 -3 0 -6 -6 -6 -13z"/>
<path d="M2425 1660 c-8 -13 34 -54 45 -44 2 3 0 8 -6 12 -6 4 -15 15 -21 26
-8 14 -12 15 -18 6z"/>
<path d="M2787 1653 c-13 -12 -7 -43 8 -43 8 0 15 6 15 13 0 18 -15 38 -23 30z"/>
<path d="M3070 2431 c-60 -25 -63 -41 -8 -41 34 0 50 6 66 23 37 40 14 47 -58
18z"/>
<path d="M3050 2290 c-12 -8 -12 -10 2 -15 26 -10 111 -1 116 13 5 15 -95 17
-118 2z"/>
<path d="M885 2200 c-3 -5 0 -13 8 -16 23 -9 122 0 122 11 0 14 -122 19 -130
5z"/>
<path d="M1760 1610 c0 -13 5 -20 13 -17 6 2 12 10 12 17 0 7 -6 15 -12 18 -8
2 -13 -5 -13 -18z"/>
<path d="M1908 1612 c-6 -22 8 -62 22 -62 15 0 23 26 16 55 -7 29 -31 33 -38
7z"/>
<path d="M1826 1583 c-12 -12 -6 -33 9 -33 8 0 15 6 15 14 0 17 -14 28 -24 19z"/>
<path d="M2067 1094 c-11 -11 -8 -64 3 -64 14 0 24 50 13 61 -5 5 -12 6 -16 3z"/>
<path d="M6162 3041 l-84 -6 0 -538 0 -539 259 0 c143 -1 264 2 270 5 8 5 10
85 4 165 -1 15 -154 16 -251 2 -88 -13 -99 -1 -89 96 4 38 8 235 9 438 1 296
-1 371 -12 377 -7 5 -15 8 -18 7 -3 -1 -43 -4 -88 -7z"/>
<path d="M3569 3031 c-3 -22 -1 -1073 2 -1075 2 -2 103 0 224 4 173 6 226 11
250 24 17 9 34 16 39 16 20 0 87 64 112 108 25 43 27 56 28 158 1 105 0 112
-27 153 -16 24 -51 56 -78 73 -27 17 -49 34 -49 37 0 4 26 30 59 58 55 49 59
56 69 112 32 180 -62 308 -238 325 -96 10 -390 15 -391 7z m374 -182 c70 -42
86 -122 36 -182 -38 -47 -86 -67 -155 -67 l-54 0 0 133 c0 74 3 137 7 140 12
12 137 -6 166 -24z m-207 -284 c29 -29 29 -63 -1 -79 -11 -6 -25 -18 -32 -26
-10 -13 -13 -11 -23 14 -14 38 -3 116 17 116 7 0 25 -11 39 -25z m165 -125
c65 -18 101 -50 120 -108 16 -48 17 -55 2 -98 -26 -77 -76 -111 -168 -114 -33
-1 -66 -2 -72 -1 -10 1 -13 41 -13 166 l0 165 48 0 c26 0 63 -5 83 -10z"/>
<path d="M4410 2653 c0 -476 8 -532 88 -619 54 -59 153 -94 267 -94 80 0 183
24 207 48 7 7 17 12 24 12 18 0 81 82 101 131 15 39 18 95 23 463 3 276 2 424
-5 433 -8 10 -33 13 -105 11 l-95 -3 -5 -420 c-5 -453 -4 -440 -60 -478 -16
-11 -44 -17 -82 -17 -80 0 -118 25 -142 91 -17 47 -19 81 -15 438 l4 386 -102
3 -103 3 0 -388z"/>
<path d="M5261 3025 c-11 -16 -6 -152 6 -167 10 -11 32 -12 118 -5 59 5 110 5
114 0 4 -4 5 -204 2 -443 -4 -239 -3 -440 2 -447 6 -9 150 -12 201 -4 5 0 6
29 3 64 -4 34 -7 235 -8 446 -1 301 2 385 12 391 7 5 28 5 48 2 20 -4 70 -7
111 -7 l75 0 0 89 0 89 -338 1 c-215 1 -341 -3 -346 -9z m385 -107 c3 -5 0
-22 -8 -39 -9 -21 -19 -29 -33 -27 -22 3 -50 52 -40 68 7 12 74 10 81 -2z"/>
<path d="M6740 3025 c-1 -8 0 -1022 0 -1060 0 -6 102 -10 288 -9 l287 1 3 85
c2 60 -1 88 -10 95 -13 10 -255 1 -325 -12 -42 -8 -45 3 -41 170 l3 130 137
-4 136 -3 4 83 c2 49 -1 89 -7 96 -7 8 -44 9 -135 4 -69 -5 -129 -5 -134 0 -4
4 -8 60 -8 124 0 143 3 147 86 134 32 -5 108 -8 170 -7 l111 3 0 89 0 89 -283
1 c-182 1 -282 -3 -282 -9z m168 -471 c41 -20 41 -45 -2 -78 -26 -19 -36 -23
-44 -13 -27 34 -26 107 2 107 7 0 27 -7 44 -16z"/>
<path d="M7488 3023 c-2 -9 -2 -254 0 -543 l2 -527 103 1 102 1 3 90 c1 50 -1
145 -5 212 -5 67 -7 127 -5 133 2 5 25 10 52 10 49 0 80 -17 80 -45 0 -8 7
-31 16 -52 32 -76 42 -99 57 -138 8 -22 31 -78 49 -125 l34 -85 79 -2 c44 -1
91 -3 105 -5 38 -5 39 36 2 102 -19 34 -33 62 -87 191 -32 74 -64 143 -71 154
-21 30 -17 52 11 59 38 10 93 63 115 113 27 60 28 222 3 285 -22 57 -70 107
-133 141 -55 30 -60 30 -372 42 -122 4 -137 3 -140 -12z m418 -187 l39 -34 0
-86 c0 -82 -1 -87 -30 -115 -27 -27 -39 -31 -117 -37 -110 -9 -116 -4 -107 73
3 32 4 97 1 146 l-5 87 90 0 c88 0 91 -1 129 -34z m-249 -318 c30 -28 29 -38
-7 -73 -25 -24 -31 -26 -46 -14 -18 15 -14 70 7 95 15 18 19 18 46 -8z m273
-52 c0 -14 -4 -28 -10 -31 -6 -4 -10 7 -10 24 0 17 5 31 10 31 6 0 10 -11 10
-24z m-50 -21 c0 -8 -4 -15 -10 -15 -5 0 -10 7 -10 15 0 8 5 15 10 15 6 0 10
-7 10 -15z"/>
<path d="M4130 1796 c-108 -27 -120 -55 -120 -284 l0 -179 29 -39 c23 -33 38
-42 80 -52 113 -26 192 -1 234 75 14 26 17 58 17 200 0 155 -2 171 -23 207
-37 65 -127 95 -217 72z m107 -94 c24 -15 33 -66 33 -188 0 -161 -15 -194 -86
-194 -14 0 -36 11 -49 25 -24 23 -25 28 -25 175 0 137 2 152 20 170 20 20 83
27 107 12z"/>
<path d="M5656 1798 c-113 -20 -146 -85 -145 -287 1 -136 13 -188 55 -232 50
-52 161 -62 205 -18 24 24 31 24 47 -2 9 -14 21 -19 39 -17 l26 3 -1 135 0
135 -94 0 -93 0 0 -35 c0 -33 2 -35 40 -40 35 -4 40 -9 43 -32 4 -35 -9 -59
-45 -80 -28 -16 -32 -16 -63 0 -46 23 -51 50 -44 215 8 153 13 167 67 167 41
0 77 -25 77 -53 0 -38 14 -49 61 -45 40 3 44 6 47 31 4 36 -32 111 -64 132
-35 23 -101 32 -158 23z"/>
<path d="M3675 1793 c-41 -11 -80 -51 -98 -99 -19 -55 -24 -273 -7 -333 18
-64 51 -100 107 -116 28 -8 63 -15 78 -15 42 0 108 21 132 43 24 22 53 96 53
138 0 25 -4 27 -47 31 -27 3 -51 3 -55 1 -5 -2 -8 -22 -8 -43 0 -66 -73 -103
-128 -64 -21 15 -22 21 -22 184 0 190 0 190 74 190 45 0 76 -29 76 -71 l0 -30
53 3 c48 3 52 5 55 29 4 35 -32 109 -65 133 -19 14 -46 20 -102 22 -42 2 -85
0 -96 -3z"/>
<path d="M4453 1788 c-7 -9 -7 -39 -1 -93 8 -67 5 -338 -4 -425 l-3 -25 145 0
145 0 3 39 c4 50 -8 58 -80 50 -31 -4 -68 -4 -82 0 l-25 6 2 228 2 227 -46 3
c-29 2 -50 -2 -56 -10z"/>
<path d="M4792 1523 l3 -278 145 0 c145 0 145 0 148 24 2 12 1 34 -3 48 -6 24
-7 25 -93 21 l-87 -3 0 230 0 230 -58 3 -58 3 3 -278z"/>
<path d="M5143 1786 c-8 -11 -5 -525 2 -537 4 -5 74 -9 156 -9 166 0 170 2
152 63 l-9 32 -100 0 -99 0 0 75 0 75 75 0 75 0 0 45 0 45 -75 0 -75 0 -3 63
c-2 45 1 62 10 63 7 1 54 2 103 3 l90 1 0 45 0 45 -148 0 c-82 0 -151 -4 -154
-9z"/>
<path d="M5964 1785 c-2 -5 -3 -129 -1 -275 l2 -265 160 0 160 0 0 45 0 45
-105 0 -105 0 0 75 0 75 78 -3 78 -3 -3 48 -3 48 -75 0 -75 0 0 65 0 65 100 0
100 0 3 43 c2 29 -1 42 -10 43 -64 7 -301 2 -304 -6z"/>
<path d="M6565 1790 c-2 -4 -4 -129 -4 -278 l0 -270 51 -4 c28 -1 56 2 62 8 7
7 9 43 5 105 -3 52 -4 99 -2 105 2 6 32 10 71 10 108 -1 167 46 178 139 8 72
-12 123 -61 156 -37 25 -49 28 -168 32 -70 2 -130 1 -132 -3z m239 -101 c35
-27 36 -86 4 -116 -29 -26 -110 -39 -126 -21 -10 13 -15 134 -5 151 10 16 100
7 127 -14z"/>
<path d="M7002 1792 c-9 -3 -9 -538 1 -548 10 -10 80 -12 93 -3 7 6 9 45 6
115 -5 108 0 123 35 124 16 0 53 -40 53 -58 0 -8 6 -28 14 -45 7 -18 22 -54
33 -82 19 -49 20 -50 69 -56 27 -3 52 -4 57 -2 10 6 9 51 -2 57 -17 11 -93
177 -87 192 3 8 17 19 30 26 31 13 61 95 52 140 -10 53 -37 97 -71 116 -26 16
-56 21 -154 23 -66 2 -124 3 -129 1z m212 -92 c27 -10 46 -57 38 -95 -6 -31
-43 -53 -98 -56 l-49 -4 -3 69 c-2 38 -1 75 2 83 6 15 72 18 110 3z"/>
<path d="M7434 1785 c-2 -5 -3 -129 -1 -275 l2 -265 156 -3 c173 -3 172 -3
159 63 l-5 30 -100 0 -100 0 0 75 0 75 75 0 75 0 0 45 0 45 -77 -3 -78 -3 0
66 c0 45 4 65 13 66 6 1 50 2 97 3 l85 1 0 45 0 44 -149 1 c-91 0 -150 -4
-152 -10z"/>
<path d="M7830 1797 c-1 -1 -1 -126 -2 -277 l0 -275 46 -5 c26 -3 52 -3 58 1
12 8 13 173 1 192 -11 18 20 37 51 32 79 -15 185 39 205 104 16 55 14 89 -10
138 -31 64 -75 81 -226 86 -68 3 -123 4 -123 4z m234 -108 c35 -27 36 -86 4
-116 -29 -26 -110 -39 -126 -21 -8 11 -10 97 -3 151 1 4 23 7 50 7 34 0 56 -6
75 -21z"/>
</g>
</svg>
