<?xml version="1.0" standalone="no"?>
<!DOCTYPE svg PUBLIC "-//W3C//DTD SVG 20010904//EN"
 "http://www.w3.org/TR/2001/REC-SVG-20010904/DTD/svg10.dtd">
<svg version="1.0" xmlns="http://www.w3.org/2000/svg"
 width="900.000000pt" height="900.000000pt" viewBox="0 0 900.000000 900.000000"
 preserveAspectRatio="xMidYMid meet">
<metadata>
Created by potrace 1.10, written by Peter Selinger 2001-2011
</metadata>
<g transform="translate(0.000000,900.000000) scale(0.100000,-0.100000)"
fill="#000000" stroke="none">
<path d="M4420 8680 c-39 -39 -14 -110 39 -110 57 0 85 82 39 114 -30 21 -54
20 -78 -4z"/>
<path d="M4200 8670 c-11 -11 -20 -31 -20 -45 0 -30 32 -65 60 -65 29 0 60 35
60 68 0 56 -61 81 -100 42z"/>
<path d="M4654 8682 c-13 -9 -34 -46 -34 -62 0 -18 48 -60 69 -60 29 0 51 27
51 65 0 18 -7 41 -16 49 -16 17 -51 21 -70 8z"/>
<path d="M3976 8648 c-19 -27 -21 -69 -4 -86 18 -18 73 -14 91 6 35 38 8 102
-43 102 -18 0 -34 -8 -44 -22z"/>
<path d="M4865 8656 c-11 -8 -18 -26 -18 -46 0 -55 70 -82 106 -42 52 57 -25
134 -88 88z"/>
<path d="M3763 8625 c-30 -21 -30 -65 0 -93 29 -27 38 -27 71 -1 28 22 36 69
13 87 -24 20 -61 23 -84 7z"/>
<path d="M5099 8634 c-9 -3 -22 -16 -29 -29 -17 -32 -1 -71 36 -85 52 -20 106
50 76 97 -9 14 -58 24 -83 17z"/>
<path d="M3546 8589 c-43 -34 -31 -98 20 -113 26 -8 84 36 84 63 0 19 -34 54
-62 64 -9 3 -28 -3 -42 -14z"/>
<path d="M5301 8581 c-22 -41 -8 -91 29 -103 45 -16 90 46 66 93 -16 33 -80
39 -95 10z"/>
<path d="M3339 8544 c-9 -3 -22 -16 -30 -30 -11 -22 -11 -29 2 -52 21 -38 63
-51 89 -27 20 18 27 69 12 92 -8 13 -50 23 -73 17z"/>
<path d="M5540 8543 c-45 -15 -54 -81 -15 -107 33 -22 46 -20 78 9 29 28 34
52 15 77 -15 18 -55 29 -78 21z"/>
<path d="M5735 8466 c-31 -31 -32 -59 -3 -86 30 -27 62 -25 87 6 26 33 27 56
4 76 -34 30 -61 31 -88 4z"/>
<path d="M3102 8460 c-27 -43 0 -100 47 -100 50 0 76 53 51 101 -15 27 -80 27
-98 -1z"/>
<path d="M4150 8440 c-30 -5 -106 -13 -168 -19 -156 -15 -292 -39 -487 -88
-55 -14 -116 -29 -135 -33 -19 -4 -48 -13 -65 -19 -16 -6 -57 -20 -90 -30 -87
-28 -128 -43 -147 -52 -10 -5 -46 -18 -80 -30 -35 -12 -74 -28 -88 -35 -14 -7
-56 -27 -95 -44 -38 -16 -77 -34 -85 -39 -8 -5 -55 -30 -105 -55 -49 -25 -112
-59 -140 -75 -27 -17 -59 -35 -70 -40 -22 -11 -165 -102 -238 -153 -89 -61
-308 -236 -385 -307 -138 -126 -324 -318 -402 -415 -30 -38 -60 -74 -65 -80
-26 -28 -130 -172 -206 -286 -94 -141 -98 -146 -134 -215 -14 -27 -35 -66 -47
-85 -37 -62 -94 -180 -162 -335 -29 -65 -110 -279 -124 -325 -5 -19 -22 -75
-37 -123 -15 -48 -33 -114 -40 -145 -7 -31 -21 -88 -30 -127 -9 -38 -19 -88
-21 -110 -3 -22 -10 -51 -15 -65 -15 -42 -40 -306 -48 -505 -12 -298 8 -676
45 -845 8 -36 14 -80 14 -99 0 -18 7 -54 15 -80 29 -95 45 -154 45 -172 0 -10
6 -38 14 -61 8 -24 21 -70 31 -103 9 -33 21 -71 27 -85 6 -14 14 -38 19 -55
16 -62 47 -143 75 -197 8 -14 14 -31 14 -37 0 -21 160 -351 209 -431 11 -19
24 -42 28 -50 8 -17 80 -131 132 -208 20 -29 41 -61 46 -70 15 -24 94 -132
124 -168 14 -16 37 -45 51 -64 101 -139 388 -427 575 -578 198 -159 295 -229
440 -315 11 -7 39 -24 63 -39 24 -16 45 -28 47 -28 2 0 38 -20 79 -45 42 -25
79 -45 81 -45 2 0 42 -18 87 -41 132 -64 289 -129 508 -208 19 -7 53 -17 76
-21 22 -5 51 -13 65 -18 13 -6 42 -14 64 -20 151 -38 211 -52 295 -66 52 -10
115 -21 140 -26 52 -11 205 -27 365 -39 140 -10 467 -6 610 8 218 22 530 72
566 91 10 6 29 10 43 10 14 0 43 6 63 14 21 8 65 21 98 31 73 20 240 76 315
105 30 12 64 24 75 27 11 4 29 12 40 20 11 7 26 13 33 13 14 0 287 134 367
180 22 13 58 33 80 44 22 12 68 41 103 64 35 23 65 42 67 42 10 0 260 183 361
265 99 80 358 331 469 455 129 144 327 419 447 620 41 70 56 98 128 240 29 56
74 154 105 225 31 70 131 347 145 400 74 280 104 410 120 525 47 335 52 414
47 695 -4 259 -19 494 -33 517 -4 5 -10 40 -15 77 -11 84 -32 201 -49 266 -30
119 -42 162 -52 195 -6 19 -15 51 -19 70 -11 53 -102 303 -158 435 -5 11 -32
68 -60 127 -28 59 -51 110 -51 114 0 4 -6 15 -14 23 -7 9 -29 45 -48 81 -19
36 -46 84 -61 107 -15 24 -27 45 -27 47 0 5 -121 186 -176 262 -217 306 -529
623 -849 863 -102 77 -306 213 -377 251 -40 21 -143 79 -213 118 -34 19 -212
102 -219 102 -4 0 -28 9 -54 21 -46 20 -58 25 -117 49 -82 33 -335 111 -455
139 -74 18 -148 36 -165 41 -16 5 -55 12 -85 15 -30 4 -72 11 -92 16 -136 34
-810 62 -958 39z m680 -75 c96 -8 189 -18 205 -24 17 -5 62 -14 100 -20 127
-18 282 -49 345 -69 100 -31 238 -72 263 -78 15 -3 30 -10 33 -15 3 -5 14 -9
24 -9 11 0 36 -7 57 -16 21 -9 52 -22 68 -29 137 -58 206 -89 211 -96 3 -5 16
-9 29 -9 13 0 26 -4 29 -9 3 -4 45 -28 93 -52 165 -82 425 -247 608 -386 184
-141 451 -397 601 -578 71 -86 129 -159 146 -186 9 -14 23 -33 31 -41 20 -20
107 -148 107 -157 0 -4 9 -16 20 -26 11 -10 20 -22 20 -27 0 -5 12 -27 27 -51
35 -54 45 -70 80 -137 91 -169 157 -301 174 -345 11 -27 26 -63 34 -80 27 -59
94 -245 103 -285 2 -14 8 -30 13 -35 4 -6 13 -31 19 -55 6 -25 18 -72 26 -105
9 -33 21 -85 29 -117 7 -31 15 -60 18 -65 6 -10 29 -144 58 -343 18 -126 21
-191 21 -500 0 -210 -5 -384 -12 -425 -6 -38 -17 -119 -25 -180 -16 -121 -26
-177 -44 -245 -51 -197 -64 -251 -73 -290 -6 -25 -14 -49 -18 -55 -4 -5 -11
-26 -15 -45 -4 -19 -11 -39 -15 -45 -4 -5 -15 -35 -24 -65 -10 -30 -24 -68
-31 -85 -7 -16 -30 -70 -51 -120 -20 -49 -40 -97 -45 -105 -133 -272 -172
-341 -309 -545 -129 -193 -137 -204 -175 -249 -20 -23 -68 -79 -108 -126 -179
-213 -503 -511 -687 -633 -14 -9 -50 -34 -80 -56 -127 -93 -275 -180 -485
-284 -132 -66 -178 -87 -310 -142 -16 -7 -55 -20 -85 -30 -30 -9 -69 -23 -87
-31 -17 -8 -40 -14 -50 -14 -10 0 -23 -4 -28 -9 -6 -5 -35 -15 -65 -24 -30 -9
-87 -25 -127 -36 -39 -12 -82 -21 -94 -21 -13 0 -41 -6 -64 -14 -22 -8 -71
-19 -110 -25 -38 -6 -108 -18 -155 -26 -104 -19 -408 -39 -590 -39 -191 0
-464 20 -605 44 -66 12 -147 25 -179 31 -32 5 -67 14 -77 19 -10 6 -31 10 -46
10 -16 0 -56 8 -89 19 -32 10 -79 24 -104 31 -51 14 -155 48 -185 60 -11 5
-49 19 -85 31 -103 35 -131 46 -187 73 -29 14 -57 26 -62 26 -39 0 -554 292
-628 355 -6 6 -37 28 -69 50 -165 115 -488 405 -623 561 -18 21 -59 68 -91
104 -112 128 -284 368 -351 490 -9 16 -24 41 -35 57 -44 67 -214 403 -214 424
0 8 -5 20 -11 26 -7 7 -22 40 -35 75 -12 35 -32 88 -44 118 -35 91 -80 238
-129 425 -34 128 -66 315 -87 505 -31 278 -14 965 26 1040 5 10 10 36 10 57 0
21 7 62 15 92 8 30 21 93 30 140 16 82 25 115 65 241 10 30 26 82 35 114 10
33 24 71 31 85 8 14 14 33 14 42 0 8 7 24 15 35 8 10 15 27 15 37 0 10 11 42
24 70 13 29 38 84 56 122 41 91 128 263 150 295 10 14 30 50 45 80 15 30 30
57 34 60 9 8 71 98 71 104 0 7 79 118 171 241 112 149 404 461 504 537 17 13
44 37 60 53 46 45 158 132 305 238 35 25 162 107 166 107 2 0 23 14 47 30 25
17 49 30 54 30 5 0 25 11 44 25 30 23 309 165 323 165 4 0 30 12 59 26 28 14
102 44 162 66 61 22 128 47 150 55 22 9 60 21 85 28 25 8 79 23 120 35 87 26
273 66 375 81 39 5 90 15 115 21 147 35 636 47 930 23z"/>
<path d="M4121 8251 c-7 -12 -7 -30 -2 -48 14 -43 21 -146 11 -162 -6 -11 -36
-15 -109 -18 l-101 -3 0 91 c0 50 -5 99 -10 110 -12 21 -44 25 -85 9 -31 -12
-30 4 -1 -235 28 -222 38 -300 42 -312 5 -17 27 -16 70 2 34 14 36 17 30 52
-15 98 -25 187 -21 193 2 4 44 10 92 12 49 3 95 7 103 9 12 3 16 -16 22 -104
3 -59 12 -115 18 -122 17 -20 63 -19 88 3 22 18 22 22 -8 187 -5 33 -14 122
-20 198 -5 75 -12 142 -15 147 -3 6 -26 10 -50 10 -33 0 -47 -5 -54 -19z"/>
<path d="M4498 8245 c-47 -31 -83 -78 -102 -136 -21 -62 -25 -207 -7 -245 7
-16 20 -44 29 -62 38 -80 214 -120 323 -74 58 25 90 55 120 112 22 41 24 57
24 171 0 120 -1 127 -27 167 -18 26 -46 50 -79 66 -44 23 -63 26 -147 25 -85
0 -102 -3 -134 -24z m234 -82 c42 -38 57 -86 54 -164 -5 -94 -25 -141 -78
-179 -48 -35 -92 -39 -146 -11 -53 27 -72 73 -72 171 0 111 35 187 95 203 38
11 127 -1 147 -20z"/>
<path d="M5076 8214 c-9 -8 -16 -28 -16 -42 0 -15 -5 -43 -11 -62 -5 -19 -14
-55 -19 -80 -5 -25 -16 -76 -25 -115 -41 -179 30 -268 233 -292 26 -3 48 -1
55 6 6 6 18 11 27 11 34 0 88 68 110 136 11 36 20 78 20 92 0 24 20 102 42
167 20 60 21 75 3 95 -20 23 -79 27 -92 8 -4 -7 -10 -33 -14 -58 -7 -44 -13
-70 -46 -215 -21 -94 -45 -132 -93 -146 -32 -10 -44 -9 -79 7 -67 29 -105 121
-66 160 8 9 15 29 15 45 0 17 5 40 11 52 7 12 12 34 11 51 0 16 8 52 19 80 27
71 25 85 -16 102 -43 18 -50 18 -69 -2z"/>
<path d="M3450 8150 c-19 -4 -59 -20 -88 -35 -136 -73 -170 -240 -83 -405 37
-70 135 -130 214 -130 56 0 214 59 243 91 18 20 12 83 -12 132 -8 15 -16 45
-18 67 -4 51 -32 94 -54 85 -20 -8 -104 -33 -147 -43 -27 -7 -30 -12 -33 -50
-3 -41 -2 -42 26 -42 16 0 35 7 42 15 15 19 54 20 69 2 6 -8 12 -40 13 -72 l3
-58 -55 -19 c-52 -18 -57 -18 -100 -2 -25 10 -55 27 -67 39 -53 51 -80 171
-55 235 6 14 29 43 52 65 l41 40 105 -1 104 -1 0 26 c0 15 -7 37 -16 49 -13
19 -24 22 -82 21 -37 -1 -83 -5 -102 -9z"/>
<path d="M5700 8033 c-32 -6 -47 -19 -76 -65 -50 -78 -25 -158 80 -256 29 -27
46 -51 46 -66 0 -30 -43 -76 -71 -76 -31 0 -103 44 -132 81 -19 24 -29 30 -46
24 -17 -5 -21 -14 -21 -53 0 -47 1 -47 63 -86 54 -35 71 -40 134 -44 69 -4 74
-3 113 28 65 51 88 132 55 196 -8 16 -41 56 -75 89 -74 73 -81 113 -23 144 28
15 77 -4 113 -43 45 -49 57 -50 76 -10 16 34 16 36 -3 62 -41 55 -153 92 -233
75z"/>
<path d="M2958 7984 c-16 -8 -28 -22 -27 -32 0 -9 18 -48 39 -87 21 -38 51
-95 66 -125 15 -30 33 -59 40 -65 7 -5 16 -22 20 -37 10 -46 -24 -35 -97 30
-116 101 -181 152 -193 152 -6 0 -19 9 -29 20 -21 25 -53 25 -112 0 -46 -20
-47 -21 -42 -56 4 -20 12 -44 20 -53 7 -9 24 -41 37 -71 12 -30 47 -106 76
-168 30 -62 54 -118 54 -124 0 -6 10 -22 21 -34 l22 -23 38 20 c22 11 39 23
39 28 0 16 -154 305 -176 332 -8 8 -14 20 -14 26 0 18 28 23 40 7 7 -8 18 -14
24 -14 6 0 17 -9 23 -19 7 -11 57 -54 112 -95 55 -42 112 -87 127 -101 36 -34
67 -40 116 -24 60 19 67 53 28 122 -5 9 -15 25 -20 35 -6 9 -13 24 -16 32 -3
8 -17 40 -31 70 -14 30 -34 75 -45 100 -11 25 -24 52 -29 60 -5 8 -12 22 -15
30 -32 85 -44 93 -96 64z"/>
<path d="M6103 7878 c-4 -7 -28 -53 -54 -103 -89 -174 -151 -290 -164 -305
-13 -15 -18 -34 -16 -58 0 -7 31 -27 69 -44 37 -17 74 -36 82 -43 8 -7 37 -24
64 -39 40 -22 51 -25 65 -14 9 7 17 12 18 13 1 0 4 12 8 27 7 26 3 29 -75 68
-110 53 -112 55 -95 88 60 124 56 122 147 61 33 -21 63 -39 67 -39 16 0 41 37
41 61 0 18 -10 28 -39 42 -20 9 -44 17 -52 17 -8 0 -27 10 -42 23 l-28 22 26
47 c38 69 50 76 85 50 16 -12 32 -22 36 -22 3 0 26 -13 51 -30 54 -37 71 -38
83 -4 18 46 12 58 -37 82 -27 12 -85 43 -131 67 -90 49 -97 51 -109 33z"/>
<path d="M2396 7681 l-28 -29 68 -104 c38 -57 72 -111 76 -120 4 -9 25 -43 46
-75 22 -32 49 -77 61 -100 25 -51 49 -60 92 -35 37 20 49 50 27 66 -19 15
-171 251 -229 356 -43 78 -69 87 -113 41z"/>
<path d="M4316 7603 c-1 -1 -65 -7 -141 -13 -77 -6 -158 -15 -180 -21 -22 -6
-62 -15 -90 -20 -93 -15 -200 -37 -260 -54 -33 -10 -80 -23 -105 -30 -85 -24
-205 -67 -268 -96 -34 -16 -66 -29 -70 -29 -5 0 -33 -12 -62 -26 -30 -14 -64
-30 -75 -35 -11 -5 -60 -31 -110 -59 -49 -27 -108 -59 -129 -71 -21 -11 -44
-25 -50 -30 -6 -5 -47 -33 -91 -62 -212 -139 -516 -411 -648 -581 -34 -44 -72
-90 -85 -104 -50 -55 -191 -267 -255 -382 -32 -57 -142 -279 -167 -335 -31
-72 -80 -208 -80 -224 0 -11 -4 -22 -9 -25 -5 -3 -12 -22 -16 -42 -3 -20 -10
-44 -15 -53 -10 -20 -25 -81 -50 -201 -11 -52 -27 -126 -35 -165 -8 -38 -15
-90 -15 -115 -1 -25 -7 -81 -15 -125 -9 -46 -15 -144 -15 -232 0 -182 25 -509
45 -578 7 -27 19 -84 25 -125 7 -41 20 -105 31 -142 10 -36 19 -73 19 -81 0
-9 6 -28 14 -44 8 -15 22 -55 32 -88 24 -86 39 -124 98 -257 14 -32 28 -69 32
-83 3 -14 10 -25 14 -25 4 0 13 -14 19 -31 15 -42 109 -214 174 -316 227 -359
573 -712 907 -927 52 -34 118 -76 145 -94 28 -17 86 -50 130 -72 44 -23 87
-45 95 -50 25 -15 141 -65 230 -99 47 -18 99 -38 115 -45 38 -17 155 -52 220
-67 28 -6 61 -16 75 -22 69 -27 362 -69 594 -84 141 -9 401 -1 571 17 143 16
402 68 447 91 10 5 28 9 40 9 38 1 371 123 399 147 8 7 21 13 28 13 26 0 272
130 345 182 21 15 43 28 47 28 12 0 167 107 243 169 38 31 87 70 110 87 67 51
340 325 406 410 100 127 230 309 230 323 0 4 6 13 13 19 21 22 152 271 213
407 66 148 172 476 194 600 5 28 16 82 24 120 27 129 38 278 39 535 0 255 -11
419 -39 560 -8 41 -19 98 -23 125 -12 71 -67 270 -91 335 -12 30 -28 75 -37
100 -18 55 -113 281 -123 295 -4 6 -31 55 -60 110 -29 55 -59 107 -66 116 -8
8 -14 19 -14 23 0 9 -104 168 -144 221 -17 22 -35 47 -41 56 -57 93 -315 365
-472 498 -125 105 -208 171 -217 171 -3 0 -32 20 -65 45 -32 25 -62 45 -66 45
-4 0 -30 15 -58 33 -90 58 -372 207 -392 207 -4 0 -21 6 -38 14 -18 7 -57 23
-87 35 -30 12 -64 26 -75 31 -11 5 -47 16 -80 25 -33 9 -76 22 -95 29 -43 16
-192 51 -285 67 -38 6 -91 17 -117 25 -26 8 -74 14 -108 14 -34 0 -103 5 -153
10 -80 9 -375 19 -381 13z m419 -83 c338 -26 676 -111 963 -242 34 -15 65 -28
68 -28 31 0 332 -173 484 -279 88 -61 129 -92 255 -196 157 -129 395 -396 532
-595 32 -47 60 -89 62 -95 2 -5 23 -39 46 -75 23 -36 52 -85 64 -110 12 -25
32 -63 44 -85 26 -47 113 -249 150 -350 55 -149 104 -326 128 -465 11 -66 17
-106 39 -264 15 -109 8 -629 -9 -731 -23 -132 -30 -170 -52 -270 -11 -55 -27
-118 -35 -140 -8 -23 -14 -50 -14 -62 0 -12 -4 -24 -9 -27 -5 -3 -12 -22 -16
-42 -3 -20 -12 -50 -20 -68 -7 -17 -20 -49 -28 -71 -144 -382 -378 -759 -642
-1034 -49 -51 -92 -96 -95 -100 -13 -19 -222 -199 -289 -250 -90 -68 -208
-151 -215 -151 -3 0 -22 -12 -43 -26 -21 -14 -47 -30 -58 -35 -11 -5 -36 -19
-55 -31 -49 -30 -287 -148 -299 -148 -5 0 -39 -13 -76 -30 -37 -16 -72 -30
-78 -30 -7 0 -24 -6 -39 -14 -15 -8 -41 -17 -59 -21 -19 -4 -40 -11 -49 -15
-31 -15 -118 -40 -139 -40 -12 0 -31 -4 -41 -10 -18 -10 -154 -37 -250 -50
-30 -4 -77 -12 -105 -18 -132 -27 -694 -23 -826 7 -24 5 -87 17 -139 26 -399
68 -844 254 -1195 500 -91 63 -162 116 -185 135 -9 8 -46 40 -81 70 -137 117
-385 384 -469 506 -8 12 -35 50 -60 85 -25 35 -49 71 -55 80 -105 172 -173
297 -222 409 -8 19 -20 43 -25 54 -9 17 -43 108 -85 226 -19 55 -72 240 -83
295 -69 320 -88 562 -70 893 6 114 15 223 20 242 5 19 12 62 15 95 6 56 24
140 45 210 5 17 12 48 16 70 4 22 11 49 17 60 6 11 14 36 18 55 4 19 13 51 19
70 28 78 42 116 55 145 7 17 27 66 46 110 18 44 38 87 44 95 6 8 20 35 30 60
11 25 30 63 44 85 14 22 36 60 49 85 13 25 41 71 63 104 21 32 39 60 39 62 0
2 34 49 75 105 134 179 294 355 438 480 45 39 93 81 107 93 57 51 319 236 334
236 3 0 24 12 48 28 24 15 52 33 63 39 45 28 285 143 299 143 8 0 17 4 20 9 3
4 34 19 68 31 35 13 77 28 93 35 171 69 578 157 775 168 119 7 431 5 535 -3z"/>
<path d="M4160 7410 c-85 -10 -180 -24 -210 -30 -30 -6 -80 -16 -110 -21 -30
-6 -85 -20 -122 -30 -36 -10 -73 -19 -82 -19 -8 0 -30 -6 -48 -14 -18 -7 -58
-21 -88 -31 -65 -20 -201 -75 -215 -87 -5 -4 -15 -8 -23 -8 -17 0 -244 -113
-283 -140 -15 -11 -30 -20 -33 -20 -6 0 -179 -109 -201 -127 -5 -5 -21 -15
-35 -24 -26 -17 -158 -122 -219 -174 -56 -48 -252 -246 -301 -304 -25 -30 -59
-70 -76 -90 -63 -75 -218 -298 -237 -341 -4 -8 -23 -42 -42 -75 -47 -82 -135
-263 -135 -278 0 -7 -4 -17 -9 -22 -25 -27 -118 -306 -155 -465 -32 -138 -38
-169 -58 -310 -38 -261 -26 -755 22 -950 25 -100 40 -169 46 -205 4 -22 10
-44 14 -50 5 -5 11 -28 15 -50 4 -22 11 -44 15 -50 4 -5 15 -37 25 -70 18 -59
37 -109 79 -210 33 -78 155 -318 172 -336 8 -8 14 -19 14 -23 0 -13 89 -144
194 -286 109 -146 372 -420 486 -505 36 -27 67 -52 70 -55 22 -24 268 -189
350 -234 303 -166 647 -294 905 -336 39 -6 102 -17 140 -25 138 -28 436 -39
652 -26 109 7 214 17 233 23 19 6 62 15 95 19 173 22 439 99 650 189 51 22
256 124 310 155 33 19 77 44 97 55 20 11 39 24 42 29 3 5 24 18 47 30 22 12
46 26 52 31 7 6 35 27 62 47 181 133 427 367 550 523 32 41 62 77 65 80 11 9
155 223 201 300 25 41 73 134 108 205 34 72 69 143 77 158 7 16 14 33 14 39 0
5 6 24 14 41 36 84 76 204 76 227 0 7 6 26 13 43 25 59 50 176 77 362 6 38 15
86 22 105 16 48 16 652 0 700 -6 19 -16 69 -21 110 -18 133 -32 214 -47 265
-8 28 -22 75 -31 105 -32 109 -121 358 -141 396 -6 10 -30 60 -55 109 -66 136
-142 274 -158 285 -3 3 -14 20 -23 38 -19 36 -190 265 -245 327 -118 132 -339
339 -456 426 -76 57 -277 190 -330 218 -22 12 -47 25 -55 30 -8 5 -35 19 -60
32 -25 12 -65 32 -90 45 -59 30 -295 124 -313 124 -7 0 -17 3 -21 7 -4 4 -26
13 -49 19 -23 6 -76 22 -117 34 -323 94 -771 130 -1110 90z m605 -51 c39 -5
105 -14 147 -19 75 -8 136 -21 298 -60 128 -31 187 -50 360 -117 63 -24 320
-144 350 -162 8 -6 47 -29 85 -53 300 -182 551 -399 757 -654 119 -147 258
-345 274 -390 4 -10 16 -32 28 -49 19 -27 119 -223 137 -270 4 -11 22 -54 39
-95 38 -90 100 -278 100 -303 0 -10 5 -27 10 -38 43 -80 107 -608 97 -799 -16
-282 -46 -540 -68 -582 -5 -10 -9 -29 -9 -43 0 -13 -6 -42 -14 -62 -7 -21 -24
-72 -36 -113 -36 -119 -46 -150 -80 -230 -17 -41 -35 -84 -39 -95 -48 -116
-167 -335 -249 -456 -18 -26 -32 -50 -32 -53 0 -9 -85 -120 -170 -221 -80 -96
-275 -294 -356 -361 -158 -130 -361 -267 -514 -347 -58 -29 -118 -61 -135 -70
-38 -19 -66 -31 -135 -57 -30 -11 -64 -25 -75 -30 -47 -21 -95 -38 -165 -60
-41 -12 -86 -27 -99 -32 -29 -11 -73 -20 -231 -49 -117 -22 -187 -30 -390 -49
-130 -13 -412 -6 -454 9 -15 6 -51 11 -79 11 -113 0 -336 49 -577 127 -58 18
-114 38 -125 43 -65 29 -115 50 -121 50 -14 0 -259 124 -324 163 -273 168
-476 333 -696 568 -39 43 -130 155 -222 274 -4 6 -19 28 -32 50 -13 22 -27 42
-30 45 -11 9 -95 152 -124 210 -14 30 -35 69 -44 85 -10 17 -28 53 -40 81 -12
28 -34 80 -50 115 -16 35 -44 111 -62 169 -18 58 -39 119 -47 137 -7 17 -13
39 -13 48 0 10 -4 34 -9 54 -29 112 -43 173 -51 222 -4 30 -13 83 -18 119 -27
170 -33 391 -18 597 8 111 19 210 25 222 6 11 11 37 11 58 0 34 11 88 56 268
8 33 19 69 23 80 5 11 23 65 41 120 29 93 42 127 75 200 8 17 23 53 35 80 11
28 26 59 32 70 6 11 27 49 45 85 72 138 129 230 195 315 5 6 30 39 56 75 26
36 65 88 87 115 52 65 321 331 376 373 24 18 98 73 164 123 66 49 129 96 140
104 10 8 23 15 27 15 4 0 38 19 75 42 38 22 101 58 142 79 40 21 78 42 85 47
6 5 34 18 61 28 28 10 61 24 75 31 14 7 30 13 37 13 6 0 24 7 40 15 47 25 198
75 224 75 14 0 29 4 35 9 11 12 77 29 158 42 33 5 77 14 98 20 46 12 162 28
273 38 124 12 482 11 560 0z"/>
<path d="M4375 7311 c-49 -5 -61 -10 -64 -25 -2 -11 0 -84 4 -163 5 -105 11
-148 22 -158 17 -17 117 -21 157 -5 29 11 35 44 10 54 -8 3 -40 3 -69 0 -52
-6 -54 -5 -60 18 -4 14 -5 39 -3 54 3 28 5 29 61 32 53 3 57 5 57 27 0 22 -4
24 -57 27 l-58 3 0 45 0 45 55 3 c62 4 87 17 69 38 -12 14 -22 15 -124 5z"/>
<path d="M4103 7291 c-58 -23 -66 -33 -65 -86 0 -56 18 -78 81 -101 25 -9 56
-28 69 -41 21 -23 21 -25 5 -49 -15 -20 -26 -24 -63 -23 -68 2 -72 1 -68 -23
4 -30 60 -44 116 -29 53 15 87 66 79 118 -7 44 -28 64 -89 87 -26 10 -56 28
-67 40 -19 21 -20 23 -5 45 14 20 22 22 58 17 50 -7 76 5 57 27 -24 29 -63 36
-108 18z"/>
<path d="M4574 7295 c-4 -9 -1 -34 5 -58 7 -23 18 -67 26 -97 46 -186 48 -190
85 -190 22 0 33 6 40 23 5 12 36 82 68 156 56 124 66 171 38 171 -19 -1 -43
-24 -50 -50 -4 -14 -14 -41 -22 -60 -9 -19 -20 -46 -26 -60 -32 -79 -54 -99
-62 -58 -29 145 -40 196 -49 216 -12 25 -45 30 -53 7z"/>
<path d="M4934 7244 c-9 -21 -18 -54 -21 -73 -3 -20 -14 -73 -25 -119 -10 -45
-17 -91 -13 -101 6 -19 69 -41 119 -41 14 0 28 -4 31 -10 11 -17 33 -11 41 12
8 27 -18 48 -59 48 -48 0 -67 16 -67 58 0 53 11 61 71 49 42 -8 53 -7 66 6 15
15 13 18 -31 37 -26 11 -54 20 -62 20 -16 0 -19 56 -5 79 8 13 17 13 67 -1 66
-19 74 -17 74 17 0 25 0 25 -100 39 -19 2 -43 7 -53 11 -13 6 -21 -1 -33 -31z"/>
<path d="M3795 7231 c-50 -18 -50 -18 -49 -62 0 -24 6 -57 12 -74 6 -16 16
-57 22 -90 22 -117 23 -120 54 -123 28 -3 28 -3 22 35 -21 133 -22 123 12 123
32 0 60 -27 94 -89 12 -22 24 -31 42 -31 50 0 42 33 -25 107 -39 43 -48 66
-29 78 11 7 13 57 4 92 -6 23 -59 54 -91 52 -10 0 -40 -8 -68 -18z m93 -47
c36 -25 29 -65 -14 -89 l-36 -19 -19 23 c-50 61 5 130 69 85z"/>
<path d="M5210 7184 c-6 -14 -10 -31 -10 -39 0 -8 -4 -17 -10 -20 -5 -3 -10
-15 -10 -25 0 -10 -14 -60 -31 -110 -17 -51 -28 -98 -25 -106 3 -8 16 -14 30
-14 26 0 27 1 46 88 10 45 15 52 36 52 30 0 54 -53 54 -120 0 -53 15 -72 48
-63 16 4 22 1 22 -11 0 -28 50 -19 80 14 l27 30 52 -19 c29 -10 56 -22 61 -27
5 -5 10 -31 12 -59 3 -42 6 -50 23 -50 22 0 24 14 41 242 7 109 1 133 -37 133
-20 0 -103 -79 -196 -185 -60 -69 -64 -67 -82 31 l-12 65 36 33 c35 33 43 62
29 112 -5 21 -41 42 -105 63 -53 17 -68 14 -79 -15z m115 -49 c29 -30 30 -38
9 -70 -11 -16 -26 -25 -43 -25 -44 0 -55 13 -48 60 8 64 39 77 82 35z m277
-201 c-2 -32 -7 -63 -11 -67 -10 -10 -81 23 -81 36 0 18 72 98 84 94 7 -3 10
-25 8 -63z"/>
<path d="M3540 7157 c-82 -35 -91 -49 -65 -99 17 -33 23 -52 66 -185 21 -67
25 -73 50 -73 15 0 30 4 33 9 4 5 24 12 46 16 50 8 86 36 77 58 -8 21 -43 22
-81 2 -38 -20 -65 -19 -72 3 -3 9 -11 27 -16 39 -14 29 4 53 41 53 34 1 64 24
59 47 -5 23 -52 21 -78 -2 -28 -25 -58 -11 -66 31 -8 43 -1 51 62 67 42 10 49
15 49 37 0 35 -19 35 -105 -3z"/>
<path d="M3290 7055 c-19 -7 -52 -23 -73 -35 -43 -25 -43 -28 3 -125 15 -33
44 -95 64 -137 37 -79 57 -94 76 -58 8 15 5 29 -11 63 -25 51 -21 73 15 87 14
5 37 28 51 50 l26 41 -21 43 c-35 74 -71 93 -130 71z m70 -77 c11 -18 20 -36
20 -40 0 -10 -60 -68 -71 -68 -32 0 -65 122 -36 133 37 15 68 6 87 -25z"/>
<path d="M5831 6949 c-11 -11 -30 -38 -42 -61 -12 -23 -43 -75 -70 -116 -27
-42 -49 -79 -49 -83 0 -4 7 -15 16 -24 22 -22 36 -9 79 78 20 40 43 80 50 91
17 22 50 14 41 -10 -4 -9 -9 -70 -13 -135 l-6 -118 26 -12 c30 -14 52 -2 63
34 6 20 69 124 114 188 27 39 29 73 5 77 -22 3 -44 -25 -95 -126 -46 -90 -59
-72 -50 73 8 113 3 137 -29 154 -14 8 -23 5 -40 -10z"/>
<path d="M6145 6728 c-67 -23 -155 -140 -155 -206 0 -36 49 -106 89 -127 17
-8 44 -15 61 -15 28 0 31 3 28 27 -2 20 -10 29 -33 35 -81 22 -102 77 -55 150
36 57 71 82 116 82 38 0 79 -32 89 -71 8 -33 39 -27 43 8 8 65 -112 141 -183
117z"/>
<path d="M2866 6686 c-32 -42 -33 -87 -4 -126 18 -25 29 -30 64 -30 33 0 49 7
74 30 29 27 32 35 27 71 -7 54 -45 89 -96 89 -32 0 -43 -6 -65 -34z"/>
<path d="M6402 6563 c-7 -3 -36 -30 -65 -61 -29 -32 -73 -79 -99 -105 -29 -28
-48 -57 -48 -70 0 -33 98 -127 133 -127 41 0 34 26 -18 73 -51 46 -55 64 -22
95 32 30 47 28 91 -14 20 -19 43 -33 49 -31 27 9 17 40 -23 77 -41 38 -41 39
-25 64 29 45 55 44 96 -3 39 -43 63 -52 73 -25 4 10 -14 35 -55 75 -61 60 -64
62 -87 52z"/>
<path d="M2472 6507 c-29 -29 -52 -61 -52 -71 0 -10 38 -57 85 -105 47 -48 92
-97 101 -109 23 -33 54 -27 108 23 27 25 53 45 58 45 14 0 5 63 -10 68 -7 2
-32 -18 -57 -44 -42 -46 -45 -48 -69 -34 -14 7 -33 24 -41 36 -14 22 -13 25
25 61 46 44 52 73 16 73 -15 0 -33 -12 -50 -35 -32 -41 -57 -45 -80 -10 -25
37 -19 57 24 88 45 32 54 67 17 67 -14 0 -42 -20 -75 -53z"/>
<path d="M2298 6323 c-45 -47 -58 -73 -58 -113 0 -85 119 -193 212 -192 69 1
145 81 136 143 -6 46 -57 33 -58 -15 0 -29 -46 -66 -82 -66 -68 0 -148 75
-148 139 0 35 45 91 73 91 20 0 28 25 14 39 -21 21 -53 11 -89 -26z"/>
<path d="M6623 6121 c-34 -16 -43 -26 -48 -54 -11 -55 15 -103 63 -118 52 -15
90 3 115 53 17 35 17 40 2 71 -9 20 -30 40 -51 50 -41 20 -30 21 -81 -2z"/>
<path d="M2122 6101 c-26 -16 -9 -54 33 -75 77 -40 135 -78 135 -88 0 -8 -43
-9 -135 -5 -112 4 -138 3 -150 -10 -30 -29 -21 -42 64 -97 27 -17 81 -52 119
-78 77 -53 84 -55 103 -32 12 14 9 20 -16 41 -17 13 -55 37 -87 54 -31 17 -67
42 -80 56 l-23 26 55 -7 c30 -3 98 -9 151 -13 92 -6 97 -5 108 16 16 28 12 33
-72 88 -40 25 -88 58 -107 73 -62 48 -85 59 -98 51z"/>
<path d="M4870 6043 c-101 -6 -255 -59 -285 -96 -5 -7 -27 -25 -47 -41 -43
-32 -59 -30 -114 19 -21 20 -57 44 -79 56 -22 11 -47 24 -55 29 -77 43 -242
38 -439 -15 -36 -9 -72 -21 -80 -25 -15 -8 -146 -59 -221 -85 -53 -19 -137
-42 -216 -59 -164 -36 -398 -5 -579 77 -67 31 -85 28 -145 -23 -19 -17 -62
-47 -95 -67 -33 -20 -68 -43 -77 -51 -17 -14 -18 -89 -18 -1315 0 -1299 0
-1300 21 -1333 l21 -34 840 0 840 0 66 -44 c82 -54 184 -78 336 -78 113 0 147
11 246 82 l55 39 848 1 c763 0 850 2 872 16 l25 16 0 1314 0 1314 -22 26 c-22
25 -130 104 -143 104 -4 0 -19 8 -33 19 -51 35 -93 34 -192 -3 -77 -29 -107
-39 -145 -47 -22 -4 -65 -13 -95 -19 -64 -14 -289 -8 -335 8 -16 6 -77 25
-135 42 -95 29 -136 43 -210 72 -72 28 -174 59 -275 84 -84 20 -85 21 -135 17z
m-676 -113 c15 0 27 -11 38 -37 19 -40 16 -53 -11 -53 -9 0 -25 -6 -34 -12
-16 -12 -17 -83 -20 -918 -3 -534 0 -912 5 -923 5 -10 21 -22 35 -28 26 -10
26 -10 19 -94 -4 -61 -3 -91 6 -105 15 -23 41 -26 57 -6 8 9 11 299 11 1050 1
570 3 1043 7 1051 19 50 140 -49 131 -107 -2 -18 -11 -24 -38 -28 l-35 -5 -6
-1015 c-4 -558 -10 -1032 -14 -1053 -9 -46 16 -81 52 -74 34 6 40 -3 48 -69 9
-84 -5 -88 -97 -24 -40 28 -80 50 -89 50 -9 0 -34 8 -55 17 -55 24 -357 24
-424 -1 -25 -8 -53 -16 -62 -16 -19 0 -45 -11 -185 -77 -51 -24 -99 -43 -107
-43 -8 0 -17 -4 -20 -9 -3 -4 -36 -19 -73 -31 -60 -21 -85 -23 -219 -22 -83 1
-170 6 -195 12 -24 7 -68 15 -97 19 -81 11 -87 21 -88 159 -1 196 -1 2082 0
2167 l1 80 44 -3 c24 -1 52 -7 63 -13 10 -6 54 -20 96 -31 63 -17 105 -21 237
-21 91 0 179 6 205 12 25 7 61 16 80 21 60 15 133 38 190 60 30 12 66 25 80
30 14 5 50 18 80 30 124 48 257 74 334 64 16 -2 38 -4 50 -4z m866 -21 c30
-10 100 -34 155 -54 122 -43 202 -70 275 -92 30 -9 75 -23 99 -31 32 -12 87
-16 210 -16 167 -1 255 11 366 50 22 8 57 15 78 17 l37 2 0 -1185 c0 -1122 -1
-1186 -17 -1198 -10 -7 -27 -14 -38 -16 -11 -2 -47 -10 -80 -17 -33 -7 -138
-15 -234 -17 -152 -2 -182 0 -235 17 -83 27 -154 54 -212 81 -27 13 -62 28
-79 35 -16 7 -46 19 -65 27 -96 42 -163 53 -320 53 -197 0 -286 -24 -398 -107
-35 -26 -46 -30 -60 -21 -9 6 -15 17 -12 25 3 7 6 521 7 1141 3 1277 -5 1167
87 1239 95 76 180 100 311 91 39 -3 95 -13 125 -24z m1380 -188 c7 -15 15
-1671 10 -2368 0 -20 -38 -15 -60 7 -20 20 -20 33 -20 1204 0 938 3 1185 13
1189 17 6 45 -10 57 -32z m-3797 -1158 l-3 -1188 -25 -22 c-15 -13 -31 -23
-38 -23 -17 0 -11 2386 6 2406 7 7 23 13 37 14 l25 0 -2 -1187z m1445 -1089
c6 -2 12 -7 12 -12 0 -11 -189 -22 -208 -12 -19 9 4 27 43 32 31 4 131 -1 153
-8z m1052 -4 c45 -11 98 -29 133 -46 16 -8 33 -14 38 -14 8 0 115 -47 163 -72
27 -14 136 -48 154 -48 15 0 65 -14 110 -31 13 -5 22 -15 19 -22 -3 -9 -109
-11 -480 -9 l-476 3 -16 -38 c-40 -94 -87 -113 -290 -113 -204 0 -262 21 -283
102 -5 21 -17 37 -33 43 -16 7 -170 9 -459 5 -239 -3 -441 -4 -447 -2 -7 2
-13 8 -13 13 0 10 73 49 93 49 22 0 140 39 151 50 6 6 17 10 26 10 8 0 44 12
79 27 l64 27 22 -28 c23 -28 23 -28 87 -17 36 6 135 11 221 11 85 0 162 3 171
6 10 4 16 18 16 35 0 17 5 29 13 29 26 0 197 -92 197 -105 0 -8 -20 -29 -44
-47 -56 -42 -90 -90 -81 -117 9 -28 31 -32 95 -20 30 7 80 10 110 9 30 -2 91
-4 135 -4 79 -1 80 -1 89 27 11 30 8 33 -96 122 -26 22 -22 39 15 57 17 8 73
36 123 62 65 33 109 49 155 55 67 9 180 4 239 -9z m-640 -105 c0 -8 -7 -15
-15 -15 -16 0 -20 12 -8 23 11 12 23 8 23 -8z m10 -65 c0 -11 -4 -20 -9 -20
-14 0 -23 18 -16 30 10 17 25 11 25 -10z m-1699 -4 c100 -17 163 -40 157 -58
-4 -10 -43 -13 -157 -13 -84 0 -158 3 -163 6 -17 11 1 59 25 69 30 12 39 12
138 -4z m3555 -7 c17 -14 24 -48 11 -56 -17 -10 -330 -13 -347 -3 -33 21 18
41 165 65 83 14 150 11 171 -6z m-3800 -24 c4 -8 3 -23 -1 -32 -6 -17 -7 -17
-21 1 -8 11 -14 26 -14 33 0 18 29 16 36 -2z m3414 -44 c0 -10 -6 -21 -13 -24
-16 -6 -156 8 -164 17 -12 11 45 23 125 25 45 1 52 -2 52 -18z"/>
<path d="M4052 5688 c-9 -9 -12 -147 -12 -559 0 -477 2 -548 15 -553 32 -12
45 5 45 58 0 28 0 272 1 541 0 270 0 498 0 508 -1 20 -31 23 -49 5z"/>
<path d="M2812 5607 c-12 -14 -20 -1806 -8 -1826 9 -15 39 -14 54 1 17 17 17
1809 0 1826 -16 16 -33 15 -46 -1z"/>
<path d="M2986 5511 c-14 -15 -15 -124 -17 -996 0 -539 -1 -990 0 -1002 1 -12
9 -29 18 -38 16 -16 18 -16 35 5 17 21 18 72 18 1009 0 542 -3 996 -6 1008 -8
29 -29 35 -48 14z"/>
<path d="M3165 5088 c-3 -7 -4 -251 -3 -543 l3 -530 27 -3 c22 -3 30 2 35 20
5 13 6 257 3 543 l-5 520 -28 3 c-16 2 -29 -2 -32 -10z"/>
<path d="M4056 4114 c-13 -13 -16 -42 -16 -163 0 -152 5 -171 42 -171 26 0 30
31 25 188 -6 166 -12 185 -51 146z"/>
<path d="M5293 5623 c-14 -29 -8 -1756 6 -1781 18 -33 50 -27 64 12 9 23 10
1763 2 1777 -11 16 -64 10 -72 -8z"/>
<path d="M5680 5580 c-9 -16 -15 -678 -10 -1067 0 -18 33 -33 58 -26 l22 5 0
542 c0 408 -3 545 -12 554 -18 18 -46 14 -58 -8z"/>
<path d="M5497 5462 c-24 -27 -25 -446 -1 -480 18 -26 39 -29 48 -6 12 31 7
479 -6 492 -16 16 -22 15 -41 -6z"/>
<path d="M5106 5255 c-14 -22 -16 -83 -16 -557 0 -502 2 -534 19 -557 14 -19
24 -22 45 -17 l26 6 0 563 c0 425 -3 566 -12 575 -19 19 -44 14 -62 -13z"/>
<path d="M5891 4901 c-12 -21 -18 -921 -7 -940 9 -14 63 -15 71 -1 4 6 9 213
11 461 4 397 3 454 -11 475 -19 29 -50 31 -64 5z"/>
<path d="M5500 4631 c-15 -30 -14 -1013 2 -1029 14 -14 44 -16 53 -2 10 17 14
991 3 1021 -12 34 -42 39 -58 10z"/>
<path d="M5697 3753 c-4 -3 -7 -37 -7 -73 0 -71 13 -95 47 -88 15 3 18 14 17
70 -1 66 -13 98 -39 98 -6 0 -15 -3 -18 -7z"/>
<path d="M4875 3420 c-22 -6 -50 -12 -62 -15 -16 -4 -23 -13 -23 -30 0 -28 3
-29 91 -25 57 2 87 -13 48 -23 -13 -4 -20 -12 -17 -24 3 -16 14 -18 87 -18 90
0 116 14 67 36 -41 19 -30 29 32 29 83 0 113 37 50 60 -43 16 -221 22 -273 10z"/>
<path d="M6914 5793 c-44 -26 -106 -60 -139 -77 -49 -25 -61 -36 -63 -58 -4
-36 23 -38 76 -5 20 13 81 47 135 76 80 43 97 56 97 76 0 38 -24 36 -106 -12z"/>
<path d="M1886 5716 c-31 -62 -35 -79 -26 -95 6 -12 16 -21 23 -21 7 0 65 -27
130 -60 65 -33 127 -60 138 -60 11 0 23 10 29 25 5 13 21 42 35 64 34 54 34
91 0 91 -18 0 -29 -8 -36 -27 -35 -87 -43 -93 -94 -69 -40 19 -43 37 -15 84
24 39 25 58 4 66 -22 8 -41 -9 -49 -44 -10 -44 -28 -54 -70 -40 -43 14 -45 35
-9 91 27 44 26 69 -4 69 -14 0 -30 -21 -56 -74z"/>
<path d="M7005 5665 c-22 -13 -45 -24 -52 -24 -6 -1 -45 -17 -86 -36 -41 -19
-80 -35 -86 -35 -17 0 -13 -50 5 -57 9 -3 26 0 38 7 29 19 172 90 180 90 3 0
6 -7 6 -16 0 -17 -33 -62 -113 -156 -51 -59 -58 -91 -24 -112 14 -9 26 -6 57
12 21 12 45 22 53 22 8 0 20 7 27 15 7 8 21 15 31 15 23 0 124 47 139 66 7 7
9 18 5 24 -12 19 -53 10 -121 -25 -71 -37 -104 -44 -104 -21 0 8 4 16 8 18 4
2 36 40 70 85 53 68 63 87 60 115 -2 27 -7 33 -28 35 -14 1 -43 -9 -65 -22z"/>
<path d="M2075 5403 c-10 -27 -21 -52 -26 -57 -8 -9 -109 27 -180 64 -19 10
-51 21 -71 25 -77 14 -43 -63 35 -81 16 -3 40 -12 55 -20 15 -8 32 -14 38 -14
6 0 37 -11 68 -25 31 -14 63 -25 71 -25 7 0 25 26 40 57 35 78 41 103 24 114
-26 16 -36 9 -54 -38z"/>
<path d="M7192 5369 c-5 -13 -6 -37 -1 -53 5 -16 7 -32 4 -36 -2 -3 -32 -15
-67 -24 -35 -10 -72 -22 -83 -27 -11 -5 -40 -13 -65 -18 -68 -15 -93 -71 -31
-71 24 0 115 27 166 50 85 37 106 33 125 -26 7 -19 18 -34 27 -34 12 0 14 9
10 43 -7 61 -46 190 -62 206 -12 13 -16 11 -23 -10z"/>
<path d="M2006 5218 c-9 -12 -16 -37 -16 -55 0 -29 -3 -33 -25 -33 -14 0 -33
4 -43 9 -34 17 -182 61 -206 61 -30 0 -52 -33 -33 -48 6 -5 48 -19 92 -31 44
-12 103 -29 130 -37 81 -25 100 -27 112 -12 11 14 32 85 40 136 4 27 2 32 -15
32 -12 0 -28 -10 -36 -22z"/>
<path d="M7220 5058 c-19 -5 -62 -14 -95 -20 -33 -6 -80 -16 -105 -22 l-45
-12 3 -59 c3 -71 29 -137 52 -132 12 2 14 16 12 74 l-3 72 38 10 c34 10 40 9
56 -10 9 -12 17 -34 17 -49 0 -33 24 -58 37 -38 4 7 8 38 8 68 l0 55 39 0 40
0 14 -55 c17 -68 27 -80 49 -58 15 16 15 22 -2 84 -18 66 -43 105 -67 103 -7
-1 -29 -5 -48 -11z"/>
<path d="M1642 5023 c-6 -21 -13 -59 -16 -85 -5 -42 -3 -50 17 -62 12 -8 53
-20 91 -26 38 -6 76 -15 85 -19 9 -5 39 -11 66 -15 66 -8 85 6 92 67 3 26 10
50 14 53 15 9 10 61 -6 68 -29 11 -43 -5 -51 -62 l-9 -57 -48 -3 c-56 -4 -64
8 -49 68 7 29 6 44 -3 56 -17 24 -34 9 -41 -36 -9 -55 -32 -73 -73 -59 -32 11
-33 13 -26 53 13 79 12 91 -12 94 -18 3 -24 -4 -31 -35z"/>
<path d="M7162 4793 c-106 -14 -164 -115 -133 -230 15 -56 33 -64 123 -55 l73
7 3 63 c2 50 0 63 -14 69 -21 8 -34 -13 -34 -55 l0 -33 -47 3 -48 3 -3 53 c-3
47 0 56 27 82 27 27 35 30 96 30 63 0 69 -2 97 -32 31 -33 32 -48 16 -153 -2
-15 3 -20 21 -20 20 0 27 7 34 35 11 43 3 119 -16 157 -33 62 -102 89 -195 76z"/>
<path d="M1618 4773 c-24 -27 -42 -87 -35 -115 26 -103 151 -162 264 -124 68
23 95 53 101 115 6 64 -3 98 -29 111 -30 17 -51 -3 -38 -36 27 -72 -15 -144
-84 -144 -59 0 -94 11 -126 40 -37 34 -40 70 -11 118 11 18 18 37 15 43 -10
15 -41 10 -57 -8z"/>
<path d="M1577 4478 c-9 -28 8 -48 59 -69 64 -27 69 -47 17 -74 -56 -28 -73
-45 -73 -72 0 -34 20 -29 94 22 37 25 73 45 81 45 16 0 104 -57 121 -79 7 -9
20 -12 38 -7 21 5 27 12 24 29 -2 16 -20 30 -66 52 -39 19 -61 35 -60 44 2 8
30 28 63 45 43 22 61 37 63 54 6 37 -41 28 -119 -24 l-69 -47 -53 35 c-87 59
-112 69 -120 46z"/>
<path d="M7034 4415 c-14 -36 3 -45 81 -45 73 0 75 -1 75 -24 0 -24 -41 -66
-64 -66 -5 0 -30 -7 -53 -16 -33 -13 -43 -22 -43 -40 0 -29 16 -39 43 -26 50
24 120 52 133 52 7 0 17 -6 21 -13 4 -8 22 -18 39 -24 47 -16 90 6 103 54 23
78 24 112 7 138 -16 25 -17 25 -177 25 -133 0 -161 -3 -165 -15z m304 -68 c12
-60 -37 -103 -83 -73 -18 12 -25 25 -25 50 0 43 6 47 60 44 34 -2 46 -7 48
-21z"/>
<path d="M1899 4194 c-13 -12 -14 -22 -6 -53 6 -21 8 -45 5 -53 -6 -15 -88
-42 -97 -32 -3 3 -8 29 -11 57 -5 48 -7 52 -32 55 -24 3 -28 0 -28 -21 0 -13
5 -39 11 -57 14 -39 1 -52 -51 -48 -35 3 -35 3 -40 60 -6 68 -18 85 -50 68
-16 -9 -20 -17 -15 -33 17 -56 25 -95 25 -125 l0 -34 63 5 c124 9 272 31 279
41 7 10 2 117 -8 164 -5 26 -23 28 -45 6z"/>
<path d="M7023 4133 c-20 -8 -15 -31 9 -44 30 -16 298 -39 321 -28 19 11 23
34 7 44 -11 7 -259 35 -300 34 -14 0 -31 -3 -37 -6z"/>
<path d="M7306 3968 c-3 -13 -7 -32 -8 -43 -4 -26 -32 -25 -176 8 -61 15 -119
24 -127 21 -18 -7 -20 -50 -4 -60 7 -4 39 -10 73 -15 131 -16 200 -30 208 -42
5 -6 6 -29 2 -49 -4 -30 -2 -39 11 -44 9 -4 18 -5 20 -2 10 9 47 218 42 232
-9 24 -36 19 -41 -6z"/>
<path d="M6927 3703 c-4 -3 -7 -16 -7 -29 0 -19 10 -26 70 -44 61 -19 78 -30
144 -96 75 -75 106 -87 106 -42 0 22 -63 90 -93 101 -43 16 2 44 74 46 41 1
66 18 71 46 2 15 -3 21 -25 23 -16 2 -34 -1 -40 -7 -24 -20 -143 -32 -192 -20
-25 6 -48 15 -51 20 -6 11 -48 12 -57 2z"/>
<path d="M1881 3477 c-14 -6 -34 -27 -44 -45 -17 -28 -18 -37 -6 -63 17 -43
59 -79 89 -79 30 0 87 48 95 82 10 38 -20 94 -56 107 -40 14 -48 14 -78 -2z"/>
<path d="M6893 3296 c-39 -18 -67 -68 -58 -104 8 -34 62 -82 91 -82 36 0 75
29 90 67 12 28 12 38 1 66 -24 57 -70 77 -124 53z"/>
<path d="M2253 2944 c-25 -25 -26 -29 -19 -109 5 -69 3 -86 -10 -99 -8 -9 -22
-16 -29 -16 -19 0 -45 28 -45 49 0 22 -35 55 -49 46 -6 -3 -11 -20 -11 -36 0
-22 12 -41 45 -74 24 -25 51 -45 59 -45 26 0 82 39 94 66 15 32 15 53 0 108
-11 40 -10 47 7 66 35 38 68 20 98 -52 11 -27 22 -38 36 -38 33 0 31 45 -5
102 -41 64 -123 79 -171 32z"/>
<path d="M6583 2947 c-47 -26 -98 -114 -87 -149 8 -27 58 -21 62 7 7 50 13 61
41 78 43 25 90 14 145 -34 72 -63 70 -122 -4 -166 -33 -19 -38 -55 -8 -61 24
-5 86 55 110 104 19 42 19 45 2 89 -18 47 -72 103 -128 130 -35 18 -103 19
-133 2z"/>
<path d="M2413 2745 c-38 -38 -38 -34 -18 -161 7 -40 -10 -74 -36 -74 -14 0
-43 37 -49 63 -7 26 -45 35 -53 12 -4 -8 -2 -26 2 -38 13 -33 77 -87 104 -87
31 0 84 35 92 60 8 26 -2 118 -15 139 -12 21 17 61 45 61 24 0 46 -23 78 -80
14 -27 20 -30 32 -20 22 18 18 50 -10 93 -51 74 -117 87 -172 32z"/>
<path d="M6360 2690 c-80 -82 -71 -126 56 -250 80 -78 98 -92 112 -83 18 12
19 56 1 62 -6 2 -44 36 -85 75 -81 79 -90 103 -54 149 43 54 74 44 191 -66 74
-71 109 -85 109 -43 0 16 -22 43 -75 91 -101 92 -122 105 -173 105 -37 0 -48
-6 -82 -40z"/>
<path d="M2627 2623 c-16 -16 -4 -40 40 -79 l48 -41 -28 -37 c-16 -20 -35 -36
-44 -36 -9 0 -32 16 -50 36 -27 30 -35 34 -48 24 -24 -20 -18 -37 20 -60 40
-24 46 -57 17 -83 -28 -25 -50 -21 -86 18 -36 38 -76 47 -76 18 0 -23 107
-123 132 -123 10 0 26 9 36 21 9 11 56 61 104 112 48 51 87 99 88 107 0 16
-118 130 -136 130 -6 0 -14 -3 -17 -7z"/>
<path d="M6197 2518 c-26 -14 -21 -30 23 -73 48 -47 53 -80 13 -90 -20 -5 -44
3 -97 30 -66 35 -70 36 -83 19 -20 -27 -12 -36 53 -67 89 -41 89 -41 92 -83 7
-89 96 -115 168 -49 22 19 42 35 46 35 4 0 10 9 13 20 6 19 -44 86 -126 171
-9 9 -24 30 -34 46 -23 39 -47 53 -68 41z m142 -207 c27 -38 26 -55 -4 -75
-34 -22 -61 -20 -79 6 -21 30 -20 41 9 72 31 34 49 33 74 -3z"/>
<path d="M2844 2433 c-6 -2 -45 -47 -85 -100 -41 -53 -82 -105 -92 -115 -24
-26 -27 -61 -4 -66 21 -4 37 11 90 88 21 30 44 64 52 74 28 37 33 3 14 -89
-20 -94 -24 -162 -11 -181 4 -6 16 -14 28 -18 16 -5 27 3 55 41 18 27 62 83
96 126 59 73 75 108 54 121 -19 12 -41 -8 -95 -89 -30 -46 -65 -89 -77 -96
-20 -10 -21 -9 -15 17 4 16 11 63 15 104 5 41 15 89 22 106 7 17 10 38 6 47
-7 19 -37 36 -53 30z"/>
<path d="M5954 2326 c-3 -9 28 -58 75 -119 45 -58 81 -109 81 -114 0 -17 38
-45 57 -41 10 2 19 10 20 18 3 12 -123 194 -177 258 -15 16 -49 15 -56 -2z"/>
<path d="M5778 2224 c-15 -8 -40 -32 -57 -53 -55 -69 -37 -165 48 -250 21 -21
50 -41 65 -45 42 -11 101 11 148 55 40 37 43 43 43 93 -1 65 -25 116 -81 172
-40 40 -48 44 -91 43 -27 -1 -60 -7 -75 -15z m134 -78 c41 -40 66 -114 52
-154 -12 -34 -71 -67 -105 -59 -57 15 -109 88 -109 154 0 43 5 52 40 76 40 28
82 22 122 -17z"/>
<path d="M3103 2196 c-64 -35 -123 -128 -123 -191 0 -33 7 -48 38 -80 45 -49
92 -82 125 -90 22 -6 28 -1 52 42 15 26 52 90 82 141 34 58 52 99 48 110 -8
23 -133 83 -170 81 -16 0 -40 -7 -52 -13z m130 -66 c31 -24 30 -27 -31 -130
-69 -115 -68 -114 -107 -84 -47 35 -61 74 -46 125 29 95 120 139 184 89z"/>
<path d="M5492 2071 c-22 -17 -43 -40 -47 -51 -12 -37 4 -87 36 -114 25 -21
41 -26 89 -26 62 0 90 -15 90 -49 0 -26 -20 -41 -54 -41 -45 0 -64 -15 -50
-37 15 -25 57 -28 91 -7 88 55 97 100 33 158 -36 33 -45 36 -99 36 -52 0 -61
3 -75 25 -17 25 -16 27 15 55 21 21 41 30 64 30 38 0 61 20 43 38 -23 23 -92
14 -136 -17z"/>
<path d="M3384 2055 c-7 -19 -14 -36 -14 -39 0 -3 -14 -35 -31 -73 -17 -37
-37 -82 -45 -99 -22 -49 -22 -78 -1 -82 23 -5 43 21 58 73 6 22 14 45 19 50 4
6 11 25 15 43 5 22 12 32 26 32 16 0 19 -7 19 -48 0 -27 3 -83 6 -125 6 -66
10 -79 31 -92 32 -21 58 -11 70 28 14 40 48 124 85 205 31 67 30 82 -6 82 -19
0 -27 -9 -40 -47 -10 -27 -24 -63 -32 -81 -8 -18 -14 -41 -14 -51 0 -23 -22
-42 -36 -33 -6 4 -14 60 -18 126 -8 126 -22 166 -58 166 -12 0 -24 -12 -34
-35z"/>
<path d="M5314 1996 c-5 -12 24 -98 56 -171 5 -11 18 -47 30 -79 11 -33 25
-63 32 -68 23 -15 43 -3 41 24 -2 27 -44 144 -69 190 -8 14 -14 33 -14 43 0 9
-7 29 -15 45 -16 32 -52 41 -61 16z"/>
<path d="M3706 1954 c-3 -9 -6 -26 -6 -39 0 -13 -4 -26 -9 -29 -4 -3 -11 -24
-15 -47 -4 -23 -10 -47 -14 -53 -11 -18 -41 -110 -42 -127 0 -19 23 -31 44
-23 8 3 18 22 24 42 5 20 26 90 47 154 20 65 33 122 30 128 -10 16 -52 12 -59
-6z"/>
<path d="M5145 1946 c-14 -10 -16 -21 -11 -50 8 -43 52 -180 66 -206 16 -30 2
-49 -38 -52 -32 -3 -37 -7 -40 -30 -3 -23 1 -28 18 -28 12 0 31 5 43 12 22 11
72 24 134 35 41 7 60 27 44 47 -9 11 -20 12 -44 5 -55 -16 -76 4 -77 69 0 12
-4 30 -9 40 -6 9 -17 49 -26 89 -17 75 -31 90 -60 69z"/>
<path d="M3815 1940 c-8 -14 1 -42 42 -124 18 -38 32 -75 29 -82 -3 -7 -35
-32 -71 -56 -67 -44 -75 -57 -51 -77 19 -16 58 4 111 58 60 63 81 52 49 -24
-12 -30 -13 -44 -5 -63 11 -22 13 -23 34 -9 13 8 23 27 25 43 1 16 16 84 33
152 32 129 31 152 -11 152 -22 0 -30 -19 -30 -75 0 -25 -6 -47 -15 -55 -16
-14 -35 -5 -35 16 0 8 -4 22 -10 32 -5 9 -19 41 -31 70 -21 50 -48 68 -64 42z"/>
<path d="M4880 1885 c-10 -11 -8 -26 5 -69 19 -60 19 -58 -19 -160 -30 -80
-33 -114 -9 -123 26 -10 51 32 59 98 8 70 25 75 58 18 47 -81 88 -111 102 -74
6 14 0 25 -54 99 -61 85 -72 107 -72 146 0 23 -5 50 -10 61 -13 23 -43 25 -60
4z"/>
<path d="M4431 1727 c-33 -16 -64 -71 -56 -96 13 -41 61 -81 97 -81 85 1 128
101 69 161 -32 32 -69 37 -110 16z"/>
<path d="M2178 7532 c-42 -37 -113 -92 -157 -122 -44 -30 -80 -59 -81 -63 -1
-16 45 -67 60 -67 9 0 35 20 58 45 22 25 48 45 56 45 9 0 27 -17 41 -37 64
-94 92 -132 122 -166 18 -21 48 -62 68 -92 40 -63 58 -74 83 -53 9 8 25 18 35
21 31 11 18 48 -41 116 -33 36 -67 80 -78 96 -10 17 -44 60 -76 96 -32 37 -58
74 -58 82 0 9 20 28 45 43 61 35 73 59 47 93 -10 14 -25 27 -33 28 -8 2 -49
-28 -91 -65z"/>
<path d="M6655 7449 c-58 -32 -101 -69 -139 -119 -60 -78 -76 -118 -76 -188 0
-49 5 -66 28 -98 42 -57 121 -124 148 -124 12 0 26 -4 29 -10 11 -17 34 -11
67 18 38 35 33 62 -12 62 -35 0 -63 14 -107 54 -29 27 -33 36 -33 83 0 68 23
115 88 175 98 92 204 68 248 -56 14 -39 42 -45 65 -15 26 34 23 70 -9 115 -34
47 -43 54 -104 88 -37 20 -60 26 -110 26 -35 0 -72 -6 -83 -11z"/>
<path d="M1789 7212 c-63 -50 -89 -98 -89 -163 0 -89 74 -158 157 -146 62 9
97 19 113 32 8 8 32 16 52 20 32 6 40 3 63 -20 14 -16 25 -38 25 -51 0 -36
-72 -101 -123 -111 -50 -10 -59 -34 -26 -69 31 -33 57 -30 119 14 69 48 118
116 126 174 6 40 2 52 -26 95 -17 27 -45 56 -62 66 -36 21 -106 22 -134 3 -11
-8 -37 -17 -57 -21 -21 -4 -40 -11 -43 -16 -8 -14 -42 -11 -69 7 -53 34 -10
116 72 139 51 14 64 38 32 64 -37 31 -77 26 -130 -17z"/>
<path d="M6993 7105 c-95 -44 -182 -141 -213 -237 -29 -94 86 -255 209 -293
55 -16 58 -16 120 5 59 19 171 91 171 108 0 5 13 21 28 38 16 16 37 54 47 86
19 63 13 97 -31 175 -24 41 -101 113 -121 113 -6 0 -16 7 -23 15 -21 25 -125
20 -187 -10z m231 -132 c43 -51 47 -111 10 -164 -35 -51 -135 -129 -177 -139
-47 -10 -92 6 -131 46 -67 69 -60 128 25 218 55 59 100 86 164 98 29 6 76 -19
109 -59z"/>
<path d="M1543 6943 c-11 -10 -35 -38 -54 -63 -18 -25 -55 -70 -81 -101 -46
-55 -53 -81 -25 -92 14 -5 201 -152 237 -184 13 -13 26 -23 29 -23 4 0 30 -22
60 -50 30 -27 61 -50 71 -50 9 0 46 39 84 89 37 49 76 97 86 106 29 26 26 69
-5 83 -14 7 -28 12 -30 12 -2 0 -32 -36 -65 -80 -33 -44 -66 -80 -71 -80 -14
0 -119 90 -119 101 0 5 25 35 55 65 30 31 55 64 55 74 0 16 -39 51 -57 50 -4
-1 -24 -24 -43 -51 -19 -28 -43 -61 -53 -75 l-19 -24 -41 32 c-42 33 -66 58
-67 69 0 4 27 35 60 70 65 69 73 100 34 126 -18 12 -24 11 -41 -4z"/>
<path d="M7459 6665 c-41 -31 -87 -65 -103 -78 -16 -12 -37 -26 -46 -32 -9 -5
-60 -39 -114 -74 -81 -54 -96 -68 -96 -90 0 -15 9 -34 20 -44 11 -9 37 -43 56
-75 44 -69 73 -102 90 -102 7 0 24 10 38 23 l26 22 -55 72 c-53 70 -65 93 -46
93 10 0 83 47 191 122 41 29 91 61 110 71 19 11 42 28 52 40 15 20 15 23 -13
64 -17 24 -31 43 -33 43 -1 0 -36 -25 -77 -55z"/>
<path d="M1237 6573 c-23 -26 -30 -65 -15 -84 7 -9 56 -51 108 -95 52 -43 106
-89 120 -101 14 -13 32 -26 42 -29 9 -2 23 -15 32 -28 12 -20 13 -26 2 -35 -9
-8 -39 -2 -112 24 -54 19 -111 35 -125 35 -15 0 -40 7 -55 15 -16 8 -39 15
-51 15 -12 0 -25 5 -28 10 -10 16 -51 12 -67 -7 -12 -16 -38 -67 -38 -78 0 -3
126 -115 204 -180 102 -85 126 -108 126 -121 0 -22 -20 -26 -45 -10 -27 18
-74 34 -190 66 -44 12 -95 28 -113 36 -47 20 -101 18 -108 -3 -3 -10 -11 -29
-17 -42 -10 -19 -8 -25 8 -37 10 -8 35 -16 54 -19 20 -3 101 -22 181 -41 80
-20 165 -40 190 -45 25 -6 53 -14 62 -19 10 -5 24 -7 32 -4 20 8 66 87 66 113
0 13 -26 41 -72 78 -39 32 -81 68 -92 81 -11 13 -37 33 -57 44 -36 20 -64 61
-54 78 5 9 91 -16 112 -32 6 -5 33 -13 60 -17 47 -9 88 -22 150 -48 17 -7 34
-13 37 -13 13 0 55 55 56 72 0 9 5 20 10 23 25 15 3 48 -86 130 -52 48 -141
132 -196 186 -56 55 -105 99 -108 99 -4 0 -14 -8 -23 -17z"/>
<path d="M7685 6330 c-55 -31 -87 -49 -185 -102 -36 -19 -81 -45 -100 -57 -19
-11 -46 -26 -60 -31 -49 -20 -53 -43 -18 -107 17 -32 37 -70 45 -85 8 -15 18
-30 24 -33 5 -4 9 -14 9 -24 0 -31 21 -41 56 -26 18 7 34 18 38 23 9 15 -23
83 -57 120 -31 34 -21 59 31 81 26 12 54 25 62 30 8 6 38 21 65 35 28 14 57
30 65 35 8 5 45 24 82 43 71 34 79 48 57 91 -24 46 -46 47 -114 7z"/>
<path d="M7890 5976 c-14 -8 -45 -22 -70 -31 -25 -9 -58 -23 -75 -31 -16 -7
-55 -23 -85 -34 -30 -11 -66 -25 -80 -31 -14 -6 -38 -17 -55 -24 -16 -7 -38
-16 -49 -19 -14 -5 -17 -13 -13 -34 7 -39 32 -101 45 -114 7 -7 12 -19 12 -28
0 -31 39 -125 52 -128 8 -2 27 2 41 7 30 12 34 34 13 78 -7 15 -24 49 -36 74
-24 49 -22 76 7 85 10 3 31 12 46 20 16 7 41 14 56 14 25 0 28 -5 46 -71 22
-79 45 -101 84 -80 25 14 29 62 6 81 -8 7 -15 20 -15 30 0 10 -7 23 -15 30
-29 24 -11 70 28 70 10 0 32 8 47 17 24 14 31 14 44 4 9 -8 16 -21 16 -30 0
-26 40 -134 55 -150 11 -12 19 -12 44 -1 37 15 40 44 13 99 -11 20 -26 52 -34
71 -8 19 -23 52 -32 73 -9 21 -16 44 -16 52 0 19 -46 19 -80 1z"/>
<path d="M782 5578 c-7 -7 -12 -21 -12 -32 0 -12 -6 -41 -14 -66 -26 -82 -38
-135 -40 -170 -1 -32 1 -35 34 -40 19 -4 45 -12 57 -18 12 -7 36 -12 53 -12
17 0 41 -5 53 -12 12 -6 38 -15 57 -19 37 -7 154 -40 207 -57 41 -13 62 2 73
54 17 75 38 149 54 187 19 44 12 61 -30 71 -33 9 -50 -6 -57 -47 -3 -18 -12
-59 -20 -92 l-14 -60 -39 3 c-21 2 -52 9 -69 17 -16 7 -38 16 -48 19 -17 5
-17 8 -3 28 9 12 16 32 16 43 0 11 7 33 15 49 21 40 19 51 -12 71 -47 31 -57
15 -81 -125 -4 -29 -13 -46 -23 -48 -23 -4 -129 37 -129 51 0 17 25 94 45 141
17 39 16 40 -7 58 -27 21 -49 23 -66 6z"/>
<path d="M7905 5533 c-104 -20 -157 -44 -203 -89 -52 -52 -65 -90 -64 -185 0
-76 4 -94 33 -152 40 -84 63 -106 89 -89 11 7 30 12 42 12 13 1 34 7 48 15 14
8 44 14 68 15 28 0 48 6 61 19 17 17 18 23 6 62 -7 24 -18 67 -24 94 -15 61
-22 69 -56 61 -33 -8 -41 -30 -26 -72 18 -50 8 -68 -52 -86 l-52 -17 -22 27
c-30 35 -33 144 -6 182 22 31 54 59 69 60 6 0 17 7 24 15 9 11 33 15 90 15 57
0 81 -4 90 -15 7 -8 18 -15 25 -15 7 0 28 -23 45 -52 30 -49 32 -57 27 -118
-4 -36 -7 -74 -9 -85 -4 -26 44 -33 78 -10 21 14 24 23 24 82 0 113 -49 226
-122 282 -33 25 -144 52 -183 44z"/>
<path d="M677 5063 c-14 -22 -29 -70 -36 -112 -33 -204 83 -341 290 -341 107
0 179 43 238 142 19 33 23 53 23 148 2 141 -1 145 -117 154 -46 3 -96 11 -111
16 -20 8 -32 7 -49 -4 -18 -12 -24 -28 -29 -83 -14 -139 -16 -128 32 -131 l42
-3 0 55 c0 62 14 73 73 61 52 -11 77 -32 77 -64 0 -125 -104 -213 -217 -183
-24 7 -51 12 -61 12 -22 0 -83 57 -99 93 -23 50 -7 185 24 205 5 4 16 18 23
31 15 29 1 41 -47 41 -27 0 -37 -7 -56 -37z"/>
<path d="M8160 4950 c-8 -5 -37 -10 -65 -10 -27 0 -77 -5 -110 -10 -33 -6
-105 -13 -160 -16 -55 -3 -104 -9 -109 -11 -5 -3 -5 -35 -1 -72 4 -36 10 -106
14 -156 l6 -90 43 -3 42 -3 0 61 c0 33 -7 77 -15 97 -17 41 -12 70 13 77 40
11 128 15 141 7 10 -6 14 -33 15 -92 l1 -84 43 -3 42 -3 0 46 c0 25 -7 61 -15
81 -23 57 -14 66 77 79 31 4 49 2 53 -6 4 -6 13 -55 19 -108 l11 -96 31 -3
c47 -5 60 17 46 81 -6 29 -14 90 -17 136 -3 47 -11 91 -17 98 -12 15 -66 17
-88 3z"/>
<path d="M1106 4541 c-4 -6 -40 -26 -81 -46 -40 -20 -81 -47 -89 -61 -22 -32
-37 -30 -61 9 -38 60 -121 82 -179 48 -69 -40 -86 -97 -78 -261 l5 -100 126 0
c69 0 190 3 268 7 l143 6 6 33 c3 18 3 42 -1 54 -7 21 -11 22 -124 19 l-116
-4 -3 26 c-2 14 6 36 18 51 20 26 143 91 195 104 24 6 26 10 23 63 -3 49 -6
56 -25 59 -11 2 -24 -1 -27 -7z m-273 -171 c30 -35 45 -104 27 -125 -14 -17
-147 -19 -167 -2 -29 22 -8 109 36 145 28 23 77 15 104 -18z"/>
<path d="M7734 4296 c-3 -7 -4 -33 -2 -57 l3 -44 80 -1 c44 -1 86 -2 94 -3 11
-1 12 -14 7 -60 -9 -79 14 -151 58 -184 69 -53 165 -60 225 -18 38 28 71 100
71 158 0 24 5 64 11 89 17 66 -1 89 -72 90 -112 3 -355 25 -383 34 -41 14 -86
12 -92 -4z m369 -127 c20 -6 41 -7 46 -4 5 3 21 1 35 -5 29 -11 33 -35 11 -64
-8 -11 -15 -26 -15 -35 0 -51 -95 -70 -150 -29 -28 20 -30 27 -30 83 0 34 3
65 6 68 7 7 22 4 97 -14z"/>
<path d="M900 4010 c-112 -16 -182 -61 -216 -137 -22 -50 -24 -61 -15 -127 14
-117 55 -185 137 -226 48 -25 167 -27 221 -5 19 8 45 15 56 15 23 0 94 51 122
89 17 22 20 42 20 132 0 75 -4 111 -14 123 -8 9 -21 31 -30 48 -35 71 -149
106 -281 88z m168 -114 c57 -29 83 -90 74 -169 -4 -34 -11 -43 -57 -73 -58
-37 -145 -52 -228 -40 -37 6 -49 13 -72 46 -31 45 -42 108 -26 147 13 32 80
83 108 83 10 0 25 5 33 10 23 15 137 12 168 -4z"/>
<path d="M7686 3852 c-13 -21 -18 -90 -7 -97 7 -3 37 -11 69 -16 135 -22 137
-22 140 -51 7 -56 -76 -98 -193 -98 -59 0 -85 -25 -85 -81 l0 -42 68 7 c74 8
149 30 172 51 20 18 35 8 49 -36 17 -53 62 -82 131 -83 62 -1 100 21 128 72
16 31 62 206 62 239 0 23 -31 35 -160 62 -30 6 -75 16 -100 22 -25 6 -67 15
-95 21 -27 6 -65 16 -83 24 -36 16 -88 19 -96 6z m360 -173 c66 -12 87 -30 77
-68 -24 -97 -105 -131 -164 -68 -17 18 -20 30 -16 74 8 81 6 80 103 62z"/>
<path d="M1233 3500 c-13 -5 -23 -17 -23 -25 0 -17 35 -109 51 -135 20 -33 21
-42 4 -61 -10 -10 -36 -22 -57 -25 -21 -4 -41 -11 -44 -15 -3 -5 -14 -9 -25
-9 -21 0 -30 17 -48 95 -7 28 -19 57 -27 65 -13 13 -18 13 -42 -1 -33 -18 -32
-41 6 -116 31 -62 25 -74 -50 -99 -58 -19 -73 -11 -88 47 -5 19 -15 56 -21 82
l-13 48 -40 -3 c-33 -2 -42 -7 -44 -25 -2 -12 3 -32 11 -45 8 -13 22 -48 32
-78 9 -30 23 -68 31 -85 7 -16 14 -39 16 -50 6 -38 55 -29 194 36 23 10 48 19
55 19 8 0 39 9 69 21 30 11 71 25 90 31 19 5 40 14 45 18 6 4 21 10 35 12 33
4 37 37 11 91 -12 24 -21 51 -21 61 0 9 -6 29 -14 44 -7 15 -16 43 -20 64 -8
45 -28 56 -73 38z"/>
<path d="M7578 3389 c-9 -5 -20 -24 -23 -41 -4 -18 -11 -39 -16 -48 -18 -35
-48 -108 -60 -148 -14 -47 -6 -63 39 -77 19 -6 25 0 42 40 11 26 20 53 20 60
0 7 9 34 20 59 21 51 13 50 107 10 17 -8 36 -14 42 -14 20 0 11 -50 -19 -107
-33 -62 -32 -90 6 -99 36 -9 51 1 64 43 37 123 46 135 88 114 9 -5 34 -17 55
-27 43 -21 44 -27 17 -61 -11 -14 -20 -32 -20 -39 0 -8 -9 -31 -20 -51 -27
-50 -25 -67 6 -82 34 -15 74 8 74 42 0 13 4 27 8 32 5 6 19 42 32 80 12 39 26
74 31 80 13 13 11 51 -3 62 -7 6 -38 18 -68 28 -30 9 -64 22 -74 27 -11 6 -31
14 -45 18 -14 5 -51 18 -81 30 -30 12 -66 25 -80 30 -14 5 -48 17 -75 28 -34
14 -56 17 -67 11z"/>
<path d="M1350 3078 c-19 -12 -70 -39 -112 -60 -43 -21 -78 -44 -78 -51 0 -8
20 -52 44 -98 36 -69 48 -85 70 -87 20 -3 29 3 38 23 10 22 8 30 -10 55 -35
47 -29 66 30 94 38 18 56 22 70 15 30 -16 58 -83 58 -140 0 -42 -5 -58 -31
-90 -46 -58 -111 -91 -185 -93 -41 -1 -59 5 -93 28 -54 37 -78 86 -87 169 -7
69 -15 80 -51 66 -35 -13 -45 -43 -34 -97 9 -46 31 -112 41 -122 3 -3 16 -22
30 -43 14 -22 50 -53 83 -73 49 -29 68 -34 118 -34 40 0 73 7 99 20 22 11 46
20 55 20 8 0 44 28 79 63 60 61 63 66 69 123 6 63 -2 120 -24 169 -28 62 -116
165 -141 165 -2 0 -19 -10 -38 -22z"/>
<path d="M7412 3007 c-6 -7 -16 -26 -22 -41 -9 -24 -7 -32 6 -47 10 -11 25
-19 34 -19 10 0 23 -6 29 -14 6 -7 24 -16 40 -19 43 -9 49 -40 16 -87 -21 -30
-27 -51 -28 -102 -2 -59 1 -67 32 -107 35 -44 102 -81 146 -81 64 0 120 46
177 147 46 81 60 117 51 132 -5 8 -54 38 -109 67 -54 29 -124 66 -154 81 -30
16 -79 42 -108 57 -29 16 -55 32 -58 37 -8 13 -40 11 -52 -4z m223 -207 c4 -6
21 -16 39 -24 18 -7 51 -25 74 -40 l42 -26 -21 -40 c-42 -79 -101 -92 -162
-36 -44 40 -47 69 -16 133 21 43 32 52 44 33z"/>
<path d="M2153 1642 c-53 -54 -42 -121 25 -159 40 -24 78 -16 117 24 42 43 45
74 10 125 -21 31 -30 36 -72 40 -44 4 -51 1 -80 -30z"/>
<path d="M6652 1673 c-7 -3 -21 -22 -32 -43 -22 -43 -16 -73 24 -117 38 -44
149 -21 162 33 10 39 -3 97 -27 117 -20 16 -96 23 -127 10z"/>
<path d="M6214 1642 c-71 -25 -97 -44 -133 -97 -23 -34 -31 -57 -31 -90 0 -43
26 -115 42 -115 4 0 14 -13 23 -30 9 -16 22 -30 29 -30 7 0 19 -7 26 -15 7 -8
25 -15 41 -15 40 0 146 65 165 101 28 55 74 16 74 -64 0 -54 -60 -117 -134
-141 -46 -14 -56 -21 -56 -39 0 -23 31 -57 51 -57 6 0 35 12 65 27 67 33 139
102 155 150 19 59 5 148 -35 227 -20 39 -39 72 -43 75 -5 3 -25 27 -46 53 -27
34 -49 50 -78 58 -22 6 -46 13 -52 15 -7 3 -35 -4 -63 -13z m101 -123 c27 -25
45 -50 45 -63 0 -12 -17 -39 -39 -60 -33 -32 -44 -37 -76 -34 -32 2 -44 10
-71 48 -18 25 -33 53 -33 62 -1 9 14 33 33 52 47 50 82 49 141 -5z"/>
<path d="M2540 1619 c-25 -15 -31 -25 -28 -47 2 -15 8 -26 15 -25 32 7 113 7
119 0 7 -6 -23 -55 -77 -127 -14 -19 -41 -62 -59 -95 -54 -100 -63 -103 -120
-55 -19 17 -39 30 -46 30 -17 0 -44 -34 -44 -56 1 -21 11 -30 125 -99 44 -27
96 -61 116 -77 44 -34 63 -35 83 -6 25 35 20 46 -34 79 l-50 31 20 26 c19 25
55 80 186 278 30 45 54 85 54 89 0 17 -49 45 -95 54 -103 20 -132 20 -165 0z"/>
<path d="M2959 1410 c-44 -23 -79 -70 -102 -136 -17 -48 -17 -54 -2 -92 25
-61 112 -112 191 -112 30 0 44 -4 44 -14 0 -31 -100 -106 -141 -106 -22 0
-116 57 -138 83 -17 21 -25 21 -45 1 -22 -21 -20 -67 3 -88 22 -20 91 -56 107
-56 6 0 25 -7 40 -15 70 -36 168 2 238 94 25 33 46 64 46 69 0 6 8 25 17 44 9
18 22 45 30 60 19 37 17 153 -3 183 -31 47 -150 105 -214 105 -19 -1 -51 -9
-71 -20z m166 -96 c26 -24 27 -28 20 -92 -4 -37 -12 -73 -17 -79 -15 -19 -75
-16 -111 5 -60 33 -70 63 -40 123 36 72 97 90 148 43z"/>
<path d="M5796 1415 c-15 -8 -33 -15 -39 -15 -19 0 -94 -65 -106 -92 -20 -46
-4 -204 24 -238 7 -8 15 -26 18 -40 10 -40 69 -131 100 -154 23 -17 43 -21
100 -20 87 0 147 29 189 90 23 33 27 49 28 110 0 47 -5 77 -15 90 -8 10 -15
26 -15 35 0 22 -67 149 -93 178 -60 65 -133 86 -191 56z m72 -99 c19 -10 42
-43 75 -108 59 -118 74 -176 55 -215 -17 -35 -60 -56 -98 -48 -31 7 -90 71
-90 98 0 8 -6 20 -14 26 -8 7 -18 27 -22 44 -3 18 -10 37 -14 42 -5 6 -11 36
-15 67 -7 52 -5 59 18 82 29 29 64 33 105 12z"/>
<path d="M5345 1258 c-16 -6 -37 -14 -45 -19 -8 -5 -25 -13 -37 -18 -11 -6
-34 -27 -50 -47 -25 -34 -28 -46 -30 -126 -2 -84 14 -162 45 -224 33 -67 44
-82 82 -112 36 -28 49 -32 98 -31 131 1 221 87 222 212 0 32 -6 72 -13 90 -8
18 -17 50 -21 72 -11 55 -50 136 -81 165 -27 26 -88 50 -120 49 -11 -1 -33 -6
-50 -11z m73 -98 c17 -11 32 -25 32 -31 0 -6 6 -25 14 -42 35 -81 48 -132 49
-199 2 -64 -1 -76 -20 -95 -28 -28 -86 -31 -112 -5 -36 35 -62 104 -90 239
-14 68 3 120 45 138 40 18 44 18 82 -5z"/>
<path d="M3453 1234 c-77 -33 -138 -138 -168 -288 -21 -108 -19 -127 15 -175
33 -45 95 -79 163 -88 43 -6 120 19 155 51 61 55 81 181 37 234 -36 43 -117
75 -170 68 -55 -9 -73 9 -52 51 39 74 133 95 216 48 23 -14 47 -25 51 -25 4 0
13 13 20 29 10 25 9 34 -3 52 -35 49 -193 75 -264 43z m62 -278 c42 -18 59
-48 51 -94 -8 -53 -51 -92 -100 -92 -63 0 -86 28 -86 106 0 44 5 67 16 78 19
20 74 21 119 2z"/>
<path d="M3921 1140 c-76 -41 -95 -73 -130 -211 -26 -104 -27 -173 -1 -231 33
-76 89 -108 189 -108 120 0 201 78 201 195 0 84 -27 123 -104 149 -60 20 -93
20 -126 1 -38 -22 -60 -19 -60 9 0 13 7 29 15 36 8 7 15 18 15 24 0 7 13 25
29 40 25 24 38 28 90 29 43 0 66 -5 79 -16 36 -32 72 -11 72 43 0 53 -190 81
-269 40z m124 -296 c50 -54 18 -157 -53 -170 -70 -13 -112 32 -112 123 0 62
12 72 88 73 45 0 57 -4 77 -26z"/>
<path d="M4785 1141 c-74 -30 -87 -44 -83 -92 2 -36 7 -45 25 -47 14 -2 26 4
32 17 6 10 33 27 61 36 48 16 52 16 83 -2 26 -15 33 -26 35 -57 2 -21 -4 -54
-14 -75 -19 -41 -117 -177 -146 -203 -56 -51 -52 -136 7 -130 113 9 249 23
300 29 l60 8 0 40 c0 40 0 40 -43 43 -24 2 -62 -4 -85 -12 -59 -21 -109 -27
-127 -16 -16 10 -16 9 60 93 126 139 156 273 79 353 -33 34 -34 34 -118 33
-55 -1 -101 -7 -126 -18z"/>
<path d="M4399 861 c-23 -23 -29 -38 -29 -71 0 -23 5 -50 10 -61 12 -22 60
-49 89 -49 34 0 80 34 92 67 34 105 -86 190 -162 114z"/>
<path d="M2925 8408 c-69 -36 -56 -118 19 -118 41 0 56 15 56 56 0 42 -44 78
-75 62z"/>
<path d="M5951 8401 c-29 -22 -35 -86 -10 -102 29 -18 76 -10 93 16 23 35 20
50 -15 79 -36 31 -37 31 -68 7z"/>
<path d="M2700 8310 c-22 -22 -25 -46 -10 -84 8 -21 16 -26 44 -26 27 0 39 7
56 30 24 33 17 57 -22 84 -30 21 -44 20 -68 -4z"/>
<path d="M6153 8313 c-46 -31 -16 -113 41 -113 34 0 71 52 57 79 -28 51 -59
62 -98 34z"/>
<path d="M2502 8214 c-33 -23 -27 -83 9 -103 37 -21 83 2 87 45 5 51 -55 87
-96 58z"/>
<path d="M6358 8219 c-40 -23 -42 -76 -4 -101 21 -14 66 -8 86 12 26 26 25 46
-5 75 -26 27 -49 31 -77 14z"/>
<path d="M2300 8100 c-27 -27 -23 -67 11 -92 35 -26 73 -16 90 24 10 25 9 33
-8 56 -26 35 -65 40 -93 12z"/>
<path d="M6542 8097 c-26 -28 -27 -45 -6 -75 33 -48 114 -17 114 44 0 51 -70
71 -108 31z"/>
<path d="M2106 7978 c-21 -30 -20 -54 4 -78 25 -25 72 -26 93 -2 37 40 8 102
-48 102 -24 0 -39 -7 -49 -22z"/>
<path d="M6727 7982 c-37 -41 -7 -102 51 -102 38 0 52 17 52 60 0 20 -5 41
-12 48 -18 18 -73 14 -91 -6z"/>
<path d="M1960 7873 c-49 -18 -66 -75 -32 -106 22 -20 75 -22 91 -4 6 8 14 27
17 44 5 26 1 34 -24 52 -17 11 -32 21 -34 20 -1 0 -10 -3 -18 -6z"/>
<path d="M6911 7854 c-27 -34 -26 -55 2 -82 42 -39 92 -22 103 34 5 25 1 36
-17 53 -31 28 -63 27 -88 -5z"/>
<path d="M1755 7716 c-31 -32 -31 -50 0 -81 28 -29 46 -31 80 -9 45 30 28 95
-28 108 -21 5 -33 1 -52 -18z"/>
<path d="M7087 7722 c-10 -10 -17 -30 -17 -44 0 -26 37 -68 61 -68 27 1 59 37
59 69 0 53 -69 81 -103 43z"/>
<path d="M1592 7582 c-22 -14 -26 -76 -7 -95 38 -39 105 -7 105 50 0 42 -59
69 -98 45z"/>
<path d="M7255 7574 c-25 -25 -16 -75 18 -94 24 -13 30 -13 55 0 53 30 33 110
-29 110 -15 0 -35 -7 -44 -16z"/>
<path d="M1430 7418 c-11 -12 -20 -31 -20 -43 0 -27 35 -65 60 -65 28 0 60 35
60 65 0 30 -32 65 -60 65 -10 0 -28 -10 -40 -22z"/>
<path d="M7418 7423 c-31 -35 -31 -61 -2 -88 31 -29 46 -31 79 -9 31 20 34 73
7 97 -24 22 -65 22 -84 0z"/>
<path d="M1280 7260 c-37 -37 -14 -110 36 -110 56 0 84 71 42 110 -28 25 -52
26 -78 0z"/>
<path d="M7572 7264 c-34 -23 -27 -83 11 -104 24 -13 30 -13 55 0 37 21 44 81
10 104 -12 9 -29 16 -38 16 -9 0 -26 -7 -38 -16z"/>
<path d="M7715 7085 c-14 -13 -25 -33 -25 -43 0 -24 41 -62 66 -62 25 0 64 39
64 64 0 21 -44 66 -65 66 -9 0 -27 -11 -40 -25z"/>
<path d="M1131 7081 c-15 -27 -14 -63 2 -85 20 -28 77 -18 97 17 13 24 13 30
0 55 -20 36 -83 44 -99 13z"/>
<path d="M1020 6923 c-43 -17 -51 -69 -17 -101 31 -29 61 -28 86 5 24 30 20
58 -11 86 -21 18 -32 20 -58 10z"/>
<path d="M7852 6914 c-28 -19 -29 -67 -2 -94 26 -26 52 -25 78 3 27 29 28 61
2 87 -24 24 -48 25 -78 4z"/>
<path d="M878 6726 c-23 -17 -23 -68 0 -89 40 -36 102 -9 102 45 0 48 -62 75
-102 44z"/>
<path d="M7962 6720 c-39 -63 42 -136 91 -82 20 22 22 73 5 90 -20 20 -81 15
-96 -8z"/>
<path d="M8086 6539 c-32 -25 -33 -59 -3 -87 36 -34 82 -27 98 15 13 35 2 69
-27 82 -33 15 -37 14 -68 -10z"/>
<path d="M760 6530 c-40 -40 -14 -100 43 -100 32 0 67 32 67 60 0 28 -35 60
-65 60 -14 0 -34 -9 -45 -20z"/>
<path d="M661 6341 c-26 -26 -27 -72 -3 -94 40 -36 102 -9 102 44 -1 55 -63
86 -99 50z"/>
<path d="M8186 6338 c-22 -31 -20 -64 4 -88 26 -26 52 -25 77 3 34 37 35 46
13 77 -27 37 -71 41 -94 8z"/>
<path d="M8288 6148 c-16 -13 -21 -33 -19 -75 1 -16 9 -25 29 -30 37 -10 54
-5 74 20 25 31 22 52 -8 76 -30 24 -53 26 -76 9z"/>
<path d="M568 6139 c-26 -15 -25 -85 1 -99 30 -16 59 -12 81 10 52 52 -18 127
-82 89z"/>
<path d="M8383 5947 c-46 -21 -46 -99 0 -111 52 -13 93 24 80 73 -8 30 -52 51
-80 38z"/>
<path d="M476 5924 c-54 -54 34 -136 90 -83 29 27 31 60 6 82 -23 21 -76 22
-96 1z"/>
<path d="M432 5729 c-26 -10 -45 -53 -36 -81 9 -28 51 -42 86 -27 24 10 28 17
28 49 0 51 -33 76 -78 59z"/>
<path d="M8435 5720 c-23 -25 -23 -70 1 -87 60 -44 141 40 86 90 -25 23 -65
21 -87 -3z"/>
<path d="M8495 5505 c-32 -31 -31 -50 0 -81 19 -19 31 -23 48 -18 58 17 77 79
35 108 -32 22 -55 20 -83 -9z"/>
<path d="M350 5501 c-14 -26 -13 -74 2 -89 13 -13 57 -16 75 -4 33 21 32 82
-1 104 -22 15 -65 8 -76 -11z"/>
<path d="M8558 5303 c-38 -10 -35 -88 3 -111 60 -37 113 71 55 110 -12 8 -30
8 -58 1z"/>
<path d="M297 5282 c-25 -27 -21 -67 8 -86 34 -22 58 -20 83 7 26 28 27 45 6
75 -19 28 -74 30 -97 4z"/>
<path d="M272 5070 c-44 -41 -20 -110 38 -110 55 0 77 72 34 114 -21 22 -46
20 -72 -4z"/>
<path d="M8580 5070 c-24 -24 -25 -48 -4 -78 32 -45 113 -14 114 44 0 49 -72
72 -110 34z"/>
<path d="M8618 4859 c-51 -38 -29 -109 32 -109 20 0 35 8 46 24 22 35 14 67
-21 87 -29 17 -31 17 -57 -2z"/>
<path d="M240 4840 c-11 -11 -20 -29 -20 -40 0 -25 38 -60 65 -60 27 0 65 35
65 60 0 28 -35 60 -65 60 -14 0 -34 -9 -45 -20z"/>
<path d="M8620 4628 c-51 -55 13 -124 81 -88 13 7 19 21 19 44 0 60 -60 87
-100 44z"/>
<path d="M228 4623 c-27 -32 -28 -52 -5 -79 43 -49 107 -27 107 36 0 52 -69
81 -102 43z"/>
<path d="M8621 4449 c-27 -29 -26 -42 2 -75 18 -21 29 -26 48 -21 36 10 47 19
54 47 8 33 -12 58 -51 66 -25 5 -36 1 -53 -17z"/>
<path d="M243 4410 c-21 -9 -43 -38 -43 -59 0 -21 41 -51 69 -51 16 0 37 7 45
16 24 23 20 70 -6 88 -25 18 -33 19 -65 6z"/>
<path d="M8622 4257 c-26 -27 -28 -54 -6 -85 19 -27 64 -29 87 -4 25 28 21 67
-9 91 -34 27 -46 26 -72 -2z"/>
<path d="M240 4180 c-11 -11 -20 -31 -20 -45 0 -30 32 -65 60 -65 28 0 60 35
60 65 0 30 -32 65 -60 65 -11 0 -29 -9 -40 -20z"/>
<path d="M8620 4043 c-48 -17 -53 -75 -9 -102 29 -18 33 -18 60 -2 24 13 29
23 29 54 0 31 -4 39 -26 47 -28 11 -32 11 -54 3z"/>
<path d="M260 3960 c-40 -40 -17 -101 39 -102 58 -2 82 61 39 102 -28 25 -52
26 -78 0z"/>
<path d="M8592 3829 c-30 -11 -47 -56 -33 -87 22 -47 95 -44 107 5 14 55 -26
100 -74 82z"/>
<path d="M304 3750 c-24 -9 -38 -51 -29 -81 8 -24 50 -42 76 -34 28 9 49 55
38 83 -6 17 -49 46 -62 41 -1 0 -12 -4 -23 -9z"/>
<path d="M8532 3597 c-12 -13 -22 -33 -22 -45 0 -26 33 -62 58 -62 59 0 86 82
37 114 -33 22 -48 20 -73 -7z"/>
<path d="M342 3524 c-30 -21 -30 -69 1 -95 28 -24 39 -24 71 2 31 25 33 57 6
87 -24 26 -47 28 -78 6z"/>
<path d="M8493 3390 c-53 -21 -31 -110 27 -110 15 0 36 7 44 16 24 23 20 70
-6 88 -25 18 -33 19 -65 6z"/>
<path d="M387 3302 c-25 -27 -21 -67 8 -86 34 -22 58 -20 85 9 23 24 23 26 7
60 -14 30 -22 35 -50 35 -20 0 -41 -7 -50 -18z"/>
<path d="M8443 3183 c-33 -6 -58 -50 -44 -79 24 -54 104 -52 117 2 11 43 -28
84 -73 77z"/>
<path d="M466 3099 c-48 -37 -25 -109 36 -109 53 0 76 67 38 108 -26 27 -40
28 -74 1z"/>
<path d="M8344 2962 c-16 -10 -26 -49 -19 -70 9 -30 51 -45 83 -30 33 16 42
67 17 92 -17 17 -62 21 -81 8z"/>
<path d="M536 2884 c-35 -34 -6 -104 43 -104 29 0 53 20 65 54 16 46 -72 87
-108 50z"/>
<path d="M8265 2758 c-11 -6 -21 -11 -22 -12 -1 -1 -4 -13 -8 -28 -14 -57 75
-94 109 -46 22 31 20 51 -7 76 -26 24 -42 27 -72 10z"/>
<path d="M638 2693 c-11 -3 -20 -19 -24 -40 -6 -32 -3 -40 20 -60 33 -28 37
-28 70 -2 29 23 33 54 10 87 -14 21 -37 25 -76 15z"/>
<path d="M8157 2552 c-37 -41 -11 -105 42 -105 37 0 60 25 61 65 0 50 -70 77
-103 40z"/>
<path d="M742 2498 c-43 -21 -43 -83 1 -108 64 -36 120 53 61 99 -30 24 -30
24 -62 9z"/>
<path d="M8052 2357 c-42 -44 -16 -107 44 -107 51 0 75 84 32 114 -31 22 -51
20 -76 -7z"/>
<path d="M836 2294 c-23 -23 -20 -67 7 -92 29 -27 38 -27 71 -1 29 23 33 54
10 87 -18 26 -65 30 -88 6z"/>
<path d="M7927 2162 c-23 -25 -21 -58 3 -82 27 -27 56 -25 85 5 29 28 31 42 9
73 -19 28 -74 30 -97 4z"/>
<path d="M961 2104 c-25 -32 -26 -52 -5 -82 31 -45 104 -17 104 39 0 30 -34
69 -60 69 -10 0 -28 -12 -39 -26z"/>
<path d="M7803 1988 c-23 -28 -23 -55 -2 -82 29 -36 77 -33 99 7 13 24 13 30
0 55 -12 20 -24 28 -51 30 -21 2 -40 -2 -46 -10z"/>
<path d="M1096 1929 c-30 -23 -33 -49 -10 -84 32 -48 104 -22 104 38 0 29 -31
67 -54 67 -7 0 -25 -9 -40 -21z"/>
<path d="M7670 1810 c-28 -28 -25 -64 6 -89 15 -12 33 -21 40 -21 23 0 54 38
54 65 0 30 -32 65 -60 65 -11 0 -29 -9 -40 -20z"/>
<path d="M1226 1754 c-27 -26 -20 -70 15 -95 l31 -22 26 20 c33 24 40 68 16
94 -21 23 -67 25 -88 3z"/>
<path d="M7529 1642 c-26 -23 -31 -33 -25 -55 3 -15 17 -34 31 -43 20 -13 28
-14 51 -2 50 24 49 81 -3 115 -19 13 -24 12 -54 -15z"/>
<path d="M1382 1594 c-36 -25 -28 -89 13 -104 32 -12 61 -2 80 27 21 31 11 59
-25 78 -36 19 -40 19 -68 -1z"/>
<path d="M7368 1483 c-28 -33 -29 -43 -11 -73 22 -38 47 -46 78 -26 33 22 42
60 21 91 -20 30 -65 34 -88 8z"/>
<path d="M1538 1436 c-25 -19 -24 -82 1 -96 30 -15 66 -12 84 8 50 55 -27 133
-85 88z"/>
<path d="M7220 1341 c-22 -6 -25 -12 -25 -51 0 -38 4 -46 27 -59 25 -14 29
-14 55 5 39 29 41 66 7 93 -15 11 -29 21 -33 20 -3 -1 -17 -4 -31 -8z"/>
<path d="M1701 1286 c-17 -20 -17 -72 -1 -91 9 -11 26 -15 49 -13 46 4 64 44
40 86 -17 32 -68 42 -88 18z"/>
<path d="M7055 1200 c-11 -4 -27 -19 -34 -33 -20 -38 6 -77 52 -77 42 0 56 10
62 45 10 49 -34 84 -80 65z"/>
<path d="M1866 1135 c-21 -32 -20 -51 4 -75 42 -42 119 -7 105 48 -13 54 -80
71 -109 27z"/>
<path d="M6850 1051 c-37 -70 41 -137 91 -79 23 26 24 47 3 76 -20 29 -79 31
-94 3z"/>
<path d="M2052 1007 c-26 -28 -27 -40 -6 -72 12 -18 25 -25 48 -25 45 0 58 13
58 56 0 63 -58 86 -100 41z"/>
<path d="M6672 927 c-29 -31 -28 -61 4 -86 35 -27 49 -26 80 4 19 19 23 31 18
48 -17 58 -65 74 -102 34z"/>
<path d="M2247 898 c-9 -7 -19 -25 -22 -40 -13 -51 61 -90 99 -52 50 49 -21
134 -77 92z"/>
<path d="M6475 806 c-29 -43 0 -96 53 -96 24 0 62 40 62 67 0 51 -86 73 -115
29z"/>
<path d="M2439 787 c-47 -36 -24 -107 35 -107 61 0 86 57 43 98 -26 24 -54 28
-78 9z"/>
<path d="M6282 707 c-27 -29 -28 -47 -2 -75 41 -43 104 -19 102 39 -1 58 -60
79 -100 36z"/>
<path d="M2639 690 c-46 -27 -24 -110 29 -110 33 0 45 8 61 38 26 48 -40 101
-90 72z"/>
<path d="M6084 615 c-18 -19 -23 -31 -19 -48 15 -48 70 -62 105 -27 32 32 25
66 -17 89 -31 16 -41 14 -69 -14z"/>
<path d="M2831 584 c-12 -15 -21 -32 -21 -38 1 -19 34 -54 55 -57 77 -11 106
85 33 110 -42 15 -44 15 -67 -15z"/>
<path d="M5883 543 c-25 -17 -30 -52 -13 -84 17 -30 83 -26 104 6 18 27 16 36
-17 73 -24 26 -43 27 -74 5z"/>
<path d="M3038 505 c-22 -29 -22 -39 -2 -70 22 -34 77 -35 99 -1 43 66 -51
135 -97 71z"/>
<path d="M5673 472 c-7 -4 -15 -22 -19 -39 -13 -68 75 -100 105 -39 12 26 12
33 0 55 -15 27 -62 39 -86 23z"/>
<path d="M3258 443 c-26 -31 -29 -41 -17 -66 10 -23 35 -37 67 -37 20 0 52 39
52 64 0 47 -72 74 -102 39z"/>
<path d="M5450 400 c-26 -26 -25 -46 5 -75 27 -28 52 -31 80 -11 21 15 25 67
5 90 -18 22 -66 20 -90 -4z"/>
<path d="M3472 387 c-28 -29 -28 -57 -1 -86 17 -18 28 -22 52 -17 37 7 47 20
47 62 0 23 -7 36 -25 48 -33 22 -48 20 -73 -7z"/>
<path d="M5248 362 c-52 -31 -30 -102 31 -104 59 -2 82 59 38 100 -28 26 -34
27 -69 4z"/>
<path d="M3704 353 c-20 -4 -34 -28 -34 -61 0 -7 12 -24 26 -37 22 -20 29 -22
50 -13 36 17 57 54 44 78 -11 20 -42 41 -57 39 -4 -1 -18 -4 -29 -6z"/>
<path d="M5022 324 c-37 -26 -22 -101 21 -105 65 -7 101 57 57 101 -24 24 -48
25 -78 4z"/>
<path d="M3910 310 c-28 -28 -25 -64 6 -89 32 -26 43 -26 72 -2 43 36 18 111
-36 111 -12 0 -31 -9 -42 -20z"/>
<path d="M4807 303 c-51 -26 -29 -113 29 -113 31 0 75 45 67 68 -17 48 -56 67
-96 45z"/>
<path d="M4143 300 c-27 -11 -38 -47 -24 -83 9 -23 16 -27 50 -27 30 0 43 5
51 19 30 58 -18 114 -77 91z"/>
<path d="M4367 288 c-30 -11 -46 -51 -30 -77 28 -44 107 -35 119 14 12 46 -36
80 -89 63z"/>
<path d="M4572 277 c-28 -30 -28 -48 1 -75 45 -42 97 -22 97 38 0 29 -5 42
-19 50 -31 16 -56 12 -79 -13z"/>
</g>
</svg>
