<?xml version="1.0" standalone="no"?>
<!DOCTYPE svg PUBLIC "-//W3C//DTD SVG 20010904//EN"
 "http://www.w3.org/TR/2001/REC-SVG-20010904/DTD/svg10.dtd">
<svg version="1.0" xmlns="http://www.w3.org/2000/svg"
 width="600.000000pt" height="600.000000pt" viewBox="0 0 600.000000 600.000000"
 preserveAspectRatio="xMidYMid meet">
<metadata>
Created by potrace 1.10, written by Peter Selinger 2001-2011
</metadata>
<g transform="translate(0.000000,600.000000) scale(0.100000,-0.100000)"
fill="#000000" stroke="none">
<path d="M2660 5795 c-8 -10 -10 -29 -6 -56 9 -54 -4 -70 -47 -58 -43 12 -84
11 -93 -2 -12 -20 20 -61 63 -81 24 -11 43 -25 43 -31 0 -6 -16 -25 -35 -43
-59 -54 -38 -120 22 -70 70 58 96 55 108 -15 6 -37 9 -39 42 -39 l35 0 -7 66
-7 67 55 -6 c40 -4 61 -1 77 10 20 14 20 16 5 33 -9 10 -34 20 -55 24 -53 8
-55 39 -5 79 36 29 44 54 23 75 -18 18 -37 15 -70 -13 -16 -14 -40 -25 -53
-25 -20 0 -26 8 -37 47 -14 51 -36 65 -58 38z"/>
<path d="M3319 5773 c-6 -16 -15 -38 -20 -50 -11 -30 -19 -29 -64 7 -21 17
-41 30 -46 30 -4 0 -15 3 -24 6 -14 6 -16 1 -13 -32 2 -29 9 -42 27 -51 51
-25 47 -77 -7 -89 -15 -3 -33 -7 -40 -10 -21 -6 -25 -34 -8 -53 16 -17 21 -18
63 -5 59 18 67 10 64 -61 l-2 -55 30 0 c28 0 32 4 42 46 9 33 16 44 26 40 8
-3 21 -6 28 -6 8 0 28 -15 44 -32 28 -30 32 -32 47 -16 24 24 10 74 -27 93
-41 22 -36 41 16 64 31 13 46 27 51 45 10 41 -2 48 -67 41 -68 -8 -81 4 -56
55 14 27 14 32 1 45 -24 24 -53 18 -65 -12z"/>
<path d="M2230 5500 c-20 -22 -40 -40 -43 -40 -3 0 -18 12 -32 26 -24 24 -28
25 -48 11 -24 -17 -24 -17 -5 -65 15 -38 3 -52 -42 -52 -32 0 -50 -17 -50 -46
0 -29 15 -38 61 -35 30 1 40 -3 49 -19 9 -16 8 -25 0 -35 -16 -20 -8 -59 12
-63 11 -2 32 12 52 32 18 20 38 36 44 36 6 0 21 -13 34 -30 16 -23 30 -30 54
-30 l33 0 -25 55 c-14 30 -24 60 -22 67 2 6 22 16 44 23 24 7 40 17 42 29 5
25 -14 36 -66 36 l-43 0 7 38 c4 20 11 45 16 55 10 19 -5 47 -25 47 -5 0 -27
-18 -47 -40z"/>
<path d="M3734 5525 c-4 -8 1 -30 10 -49 9 -19 16 -43 16 -55 0 -18 -6 -21
-47 -21 -56 0 -76 -10 -71 -36 2 -12 18 -23 43 -30 43 -12 43 -10 29 -100 -9
-60 28 -72 56 -18 18 33 54 31 87 -6 14 -16 35 -30 46 -30 16 0 18 6 17 43 -4
76 -4 77 40 77 30 0 42 5 51 21 14 27 -5 48 -52 58 -44 9 -49 37 -14 75 14 15
24 33 22 40 -7 20 -68 9 -96 -18 -15 -14 -30 -26 -33 -26 -3 0 -11 14 -18 30
-21 50 -74 78 -86 45z"/>
<path d="M3316 5274 c-3 -9 -6 -24 -6 -34 0 -9 -7 -23 -15 -30 -13 -10 -19 -9
-36 6 -20 18 -21 18 -35 -1 -13 -18 -13 -21 6 -29 32 -14 26 -40 -7 -32 -54
14 -83 18 -83 13 0 -2 7 -21 15 -40 22 -53 19 -90 -9 -115 -31 -26 -41 -75
-32 -156 4 -40 1 -92 -9 -142 -39 -214 -44 -388 -14 -611 25 -191 27 -348 5
-424 -16 -57 -40 -324 -31 -340 9 -13 43 -11 52 4 15 23 88 74 124 86 20 6 53
20 74 31 27 14 59 20 105 20 48 0 76 6 105 22 36 19 61 22 240 27 110 4 206
10 214 15 7 5 44 8 82 7 80 -2 109 10 109 43 0 17 -14 32 -57 58 -79 47 -85
49 -191 54 -153 7 -232 21 -263 43 -16 12 -36 21 -45 21 -9 0 -32 14 -51 30
-18 17 -41 30 -51 30 -20 0 -124 120 -164 188 -15 26 -32 71 -39 100 -6 30
-18 70 -26 90 -10 25 -14 54 -10 91 3 29 -1 106 -9 170 -20 155 -20 266 1 297
8 13 20 24 25 24 5 0 20 9 32 21 13 11 51 40 86 65 47 33 62 50 62 68 0 35
-13 39 -57 17 -79 -40 -126 -33 -86 12 31 36 71 130 79 185 6 47 4 54 -26 92
-34 42 -54 50 -64 24z m-32 -1320 c3 -9 6 -27 6 -40 0 -14 7 -27 17 -31 9 -4
53 -44 98 -90 60 -61 88 -83 107 -83 14 0 37 -10 51 -22 15 -13 40 -33 57 -46
16 -13 30 -27 30 -32 0 -14 -37 -18 -89 -7 -42 8 -55 7 -76 -7 -14 -9 -25 -23
-25 -31 0 -19 -9 -19 -32 2 -17 15 -22 15 -69 0 -28 -10 -73 -17 -99 -17 -44
0 -50 3 -64 32 -22 43 -20 70 5 92 20 16 21 25 16 87 -4 43 -2 69 4 69 6 0 8
17 3 45 -5 39 -3 48 17 70 28 29 35 30 43 9z"/>
<path d="M2655 5246 c-13 -19 -15 -38 -9 -88 9 -91 40 -157 80 -174 37 -16 84
-68 84 -94 0 -9 7 -23 15 -30 17 -14 20 -30 5 -30 -6 0 -15 11 -20 25 -5 14
-14 25 -20 25 -6 0 -28 13 -48 29 -20 16 -60 34 -89 41 -52 12 -73 8 -73 -12
0 -11 78 -83 119 -109 58 -37 93 -75 96 -104 2 -17 7 -53 11 -81 4 -37 2 -59
-9 -81 -20 -38 -37 -171 -37 -288 0 -63 -4 -97 -15 -112 -8 -11 -17 -40 -21
-64 -4 -24 -17 -58 -30 -76 -13 -17 -24 -36 -24 -41 0 -6 -15 -28 -32 -51 -18
-22 -41 -51 -50 -65 -10 -13 -35 -30 -55 -36 -21 -7 -51 -25 -68 -40 -45 -40
-118 -66 -236 -84 -59 -8 -118 -20 -132 -25 -16 -6 -38 -7 -58 -1 -38 11 -113
-17 -150 -56 -21 -23 -22 -25 -6 -41 18 -18 102 -21 163 -5 39 10 84 4 84 -12
0 -16 92 -26 240 -26 59 0 110 -4 115 -9 14 -14 166 -51 215 -53 25 -1 53 -10
72 -25 18 -12 43 -23 58 -23 17 0 39 -14 69 -46 46 -49 61 -48 62 2 0 74 -21
266 -36 329 -20 84 -15 297 11 435 24 130 21 380 -6 495 -15 66 -21 124 -21
218 -1 120 -2 129 -25 156 -27 33 -32 82 -9 101 20 17 19 50 -1 50 -9 0 -32
-13 -51 -30 -44 -39 -63 -39 -63 1 0 17 -9 42 -20 56 -11 14 -20 36 -20 49 0
33 -44 33 -65 0z m231 -850 c-3 -22 -10 -69 -15 -104 -5 -35 -12 -66 -15 -69
-3 -4 -6 41 -6 98 0 66 4 109 12 117 20 20 31 1 24 -42z m-55 -372 c4 -27 3
-78 -1 -114 -7 -63 1 -168 16 -220 4 -14 16 -37 27 -51 18 -26 18 -28 1 -53
-14 -22 -24 -27 -51 -24 -20 1 -37 -3 -42 -10 -13 -22 -78 -27 -106 -8 -18 12
-36 15 -55 11 -23 -5 -31 -2 -40 14 -13 24 -46 27 -74 6 -27 -21 -53 -19 -73
5 -20 23 -50 26 -87 9 -20 -9 -29 -9 -41 1 -25 21 -17 39 20 46 19 3 38 10 41
15 3 5 21 9 40 9 34 0 39 3 195 131 24 20 53 39 65 43 22 7 44 44 44 77 0 10
14 33 30 51 17 17 30 35 30 40 0 24 31 79 42 76 7 -3 16 -27 19 -54z m37 -500
c13 -4 22 -14 22 -26 0 -17 -5 -19 -32 -13 -39 8 -53 19 -44 34 8 12 21 13 54
5z"/>
<path d="M2780 5216 c-15 -19 -5 -36 21 -36 22 0 25 22 5 39 -10 9 -16 8 -26
-3z"/>
<path d="M2223 4828 c-42 -44 -90 -81 -133 -103 -19 -10 -46 -26 -59 -36 -13
-11 -32 -19 -42 -19 -25 0 -96 -76 -126 -138 -15 -29 -60 -91 -100 -139 -50
-58 -73 -93 -71 -107 5 -35 33 -29 89 19 29 25 58 45 64 45 19 0 65 62 65 89
0 14 4 31 8 36 13 18 80 47 91 40 23 -13 51 5 51 34 0 27 39 81 58 81 19 0
192 167 192 185 0 17 -27 45 -44 45 -7 0 -26 -15 -43 -32z"/>
<path d="M3750 4847 c-14 -7 -26 -20 -28 -29 -4 -19 170 -192 210 -209 23 -9
27 -16 22 -35 -7 -27 5 -31 36 -11 18 11 24 8 55 -28 46 -54 53 -91 25 -138
-12 -20 -26 -37 -31 -37 -5 0 -9 -6 -9 -13 0 -8 -9 -22 -20 -32 -11 -10 -20
-27 -20 -37 0 -23 -27 -35 -43 -18 -9 9 -7 15 11 27 23 16 29 38 13 47 -5 3
-20 -3 -35 -15 l-26 -20 -44 30 c-24 17 -47 38 -51 48 -9 23 -14 115 -6 110 3
-2 23 -11 43 -20 20 -9 41 -25 47 -34 8 -14 12 -15 22 -6 9 9 6 19 -15 45 -15
18 -42 56 -60 83 -20 31 -41 51 -55 53 -26 4 -106 -57 -116 -89 -8 -24 11 -75
30 -83 8 -3 19 -24 25 -47 10 -36 59 -99 77 -99 3 0 14 -11 25 -25 13 -17 29
-25 49 -25 23 0 32 -6 40 -26 14 -38 5 -55 -58 -118 -57 -57 -78 -65 -114 -45
-16 8 -25 7 -38 -5 -16 -15 -19 -15 -36 4 -10 11 -26 20 -35 20 -10 0 -25 15
-35 36 -12 26 -22 35 -35 31 -10 -2 -24 -1 -31 4 -11 7 -11 13 4 38 9 16 17
36 17 44 0 43 56 29 68 -16 8 -28 13 -32 40 -31 36 2 37 0 21 -45 -8 -24 -8
-36 -1 -43 8 -8 13 -7 18 5 4 11 18 17 38 17 43 0 58 12 54 45 -2 20 -13 33
-37 46 -18 10 -41 26 -51 36 -10 10 -27 26 -39 35 -13 11 -21 29 -21 47 0 16
-7 36 -15 45 -9 8 -15 33 -15 59 0 57 -8 77 -30 77 -20 0 -65 -62 -74 -104 -4
-16 -16 -41 -27 -54 -10 -14 -19 -29 -19 -34 0 -6 -9 -21 -19 -34 -24 -31 -38
-152 -21 -184 42 -78 180 -156 296 -167 55 -5 68 -2 135 30 103 48 149 100
184 202 25 76 70 156 103 183 27 21 52 13 90 -29 20 -23 50 -48 66 -56 28 -15
31 -14 48 7 10 12 18 26 18 30 0 4 -21 30 -47 58 -71 76 -96 112 -157 223 -28
52 -78 99 -106 99 -10 0 -31 11 -47 23 -15 13 -39 30 -54 38 -68 37 -96 57
-130 92 -43 41 -44 42 -79 24z"/>
<path d="M2217 4593 c-14 -13 -7 -77 10 -96 31 -33 25 -77 -15 -125 -55 -65
-81 -105 -81 -124 -1 -15 8 -11 47 16 26 19 55 43 64 53 9 10 23 23 31 30 8 6
18 32 21 57 5 34 12 47 29 52 28 9 37 22 37 56 0 45 -114 110 -143 81z"/>
<path d="M2421 4453 c-6 -21 -11 -48 -11 -59 0 -12 -7 -27 -15 -34 -7 -6 -17
-31 -21 -55 -5 -39 -10 -46 -39 -55 -34 -11 -85 -67 -85 -93 0 -8 7 -20 15
-27 8 -7 15 -20 15 -29 0 -9 5 -22 11 -28 24 -24 -2 -36 -64 -29 -61 6 -83 15
-59 23 15 6 16 33 2 33 -23 0 -60 50 -60 80 0 40 -21 39 -53 -3 l-26 -34 20
-32 c10 -17 19 -38 19 -46 0 -7 8 -16 19 -20 10 -3 30 -19 45 -35 14 -17 33
-30 41 -30 9 0 33 -9 55 -20 47 -24 78 -25 101 -4 10 9 46 19 80 23 45 6 66
13 78 29 9 11 28 24 43 27 47 12 68 40 68 96 0 55 -39 176 -68 214 -11 14 -23
45 -26 70 -5 29 -15 50 -29 60 -33 23 -45 18 -56 -22z m28 -187 c61 -55 71
-67 71 -87 0 -23 -36 -89 -49 -89 -4 0 -14 12 -21 28 -12 25 -13 26 -21 7 -4
-11 -8 -32 -8 -47 -1 -34 -13 -35 -75 -8 -38 16 -46 24 -46 45 0 37 16 62 50
80 21 11 30 23 30 41 0 16 8 28 23 34 30 12 28 12 46 -4z"/>
<path d="M2140 4445 c0 -10 7 -15 18 -13 21 4 19 22 -2 26 -10 2 -16 -3 -16
-13z"/>
<path d="M1920 4326 c0 -13 3 -31 6 -40 8 -20 47 -21 63 -2 9 10 4 19 -23 40
-43 32 -46 32 -46 2z"/>
<path d="M1920 4250 c-8 -6 -38 -16 -65 -25 -88 -25 -117 -72 -107 -170 l7
-69 55 -33 c30 -18 78 -37 107 -43 57 -12 93 -45 93 -85 0 -30 24 -49 53 -41
26 6 47 43 47 81 0 26 -41 81 -68 89 -9 3 -25 19 -34 36 -9 16 -23 30 -31 30
-19 0 -97 87 -97 109 0 31 37 55 80 53 30 -2 42 2 54 20 33 46 14 70 -39 49
-11 -5 -25 -5 -30 0 -6 4 -17 4 -25 -1z"/>
<path d="M4117 4065 c-28 -28 -3 -80 43 -90 15 -3 46 -25 68 -48 21 -23 58
-55 81 -72 51 -36 228 -220 276 -287 102 -141 177 -270 250 -428 9 -19 25 -51
36 -70 22 -41 24 -69 6 -94 -11 -15 -18 -16 -60 -5 -60 15 -1011 7 -1102 -10
-82 -15 -180 -54 -180 -72 0 -11 18 -14 95 -12 126 3 1181 15 1290 15 109 0
316 -10 357 -17 35 -6 103 -74 103 -103 0 -9 1 -304 1 -655 2 -611 1 -638 -17
-658 -11 -12 -31 -30 -46 -40 -25 -19 -85 -19 -2297 -19 l-2271 0 -34 22 c-70
46 -66 7 -66 716 l0 639 31 39 c44 56 85 72 193 72 50 1 130 4 177 8 48 3 92
4 97 0 6 -4 284 -9 619 -12 334 -3 642 -6 683 -7 43 -1 76 2 78 8 4 10 -46 32
-133 60 -22 7 -98 18 -170 24 -141 13 -948 16 -967 5 -18 -11 -91 -5 -100 9
-15 23 -8 62 17 99 14 20 25 40 25 44 0 9 57 134 70 154 6 8 20 35 31 60 12
25 28 53 37 63 8 9 29 39 46 66 17 27 58 82 91 121 33 40 65 80 70 90 6 10 42
45 80 79 39 33 80 69 93 80 29 27 28 59 -2 72 -31 15 -72 4 -94 -23 -9 -12
-29 -33 -43 -47 -117 -118 -236 -260 -306 -366 -48 -73 -173 -310 -173 -329 0
-15 -55 -154 -65 -164 -3 -4 -71 -5 -150 -3 -122 2 -149 0 -182 -15 -53 -26
-121 -98 -148 -160 l-23 -52 3 -623 c3 -722 1 -709 86 -780 26 -21 51 -39 57
-39 5 0 26 -13 46 -29 l37 -30 190 -1 c110 0 209 5 235 11 41 11 47 10 69 -11
14 -13 25 -35 25 -48 0 -15 17 -44 42 -72 24 -26 70 -80 103 -121 61 -73 115
-135 148 -167 10 -9 36 -36 59 -60 23 -23 45 -42 51 -42 5 0 25 -12 43 -27 19
-16 49 -40 67 -55 19 -15 67 -45 108 -67 41 -22 79 -49 86 -59 6 -11 27 -22
45 -26 18 -3 53 -20 77 -36 24 -17 55 -30 68 -30 14 0 36 -9 50 -20 14 -11 40
-22 58 -26 19 -3 41 -15 51 -25 12 -14 31 -19 66 -19 31 0 66 -8 96 -24 35
-17 72 -25 144 -30 53 -3 114 -12 135 -20 58 -20 358 -21 451 -1 40 8 94 15
120 15 66 0 161 19 203 41 20 11 49 19 63 19 15 0 43 8 64 19 20 10 57 24 82
31 25 7 63 21 86 31 22 11 50 19 61 19 12 0 34 10 50 23 15 12 40 28 56 35 15
6 27 16 27 22 0 6 16 18 36 26 42 18 175 107 195 130 7 8 31 25 53 36 62 31
292 273 384 401 42 60 46 66 56 99 l11 33 260 0 260 0 55 38 c63 44 122 116
137 167 7 22 10 266 9 680 -1 586 -3 648 -19 680 -25 51 -56 85 -112 122 l-50
33 -160 3 c-178 3 -185 6 -185 69 0 19 -9 51 -20 71 -10 20 -43 87 -72 147
-28 61 -60 119 -69 130 -10 11 -32 48 -51 82 -69 129 -354 435 -478 514 -14 9
-43 33 -64 53 -42 38 -75 45 -99 21z m-2719 -2732 c17 -4 22 -11 19 -24 -3
-10 1 -26 8 -36 12 -15 17 -16 34 -6 16 10 26 10 48 0 39 -17 2873 -23 2978
-6 39 6 82 12 98 14 34 2 44 12 29 27 -22 22 -12 28 53 28 73 0 82 -11 39 -50
-21 -21 -27 -22 -34 -10 -5 8 -10 18 -10 23 0 4 -4 7 -10 7 -5 0 -10 -16 -10
-35 0 -24 -8 -43 -29 -64 -16 -16 -30 -34 -32 -39 -2 -5 -20 -18 -40 -28 -19
-11 -66 -53 -105 -94 -84 -92 -250 -240 -269 -240 -7 0 -27 -11 -43 -25 -17
-14 -34 -25 -40 -25 -5 0 -38 -19 -73 -42 -101 -68 -341 -178 -386 -178 -14 0
-34 -7 -44 -16 -11 -10 -50 -20 -98 -25 -45 -5 -100 -16 -124 -25 -33 -13 -96
-17 -290 -21 -251 -5 -383 4 -437 31 -14 7 -49 16 -79 19 -29 4 -64 13 -77 22
-13 8 -45 18 -71 21 -27 4 -61 14 -78 24 -16 10 -45 20 -63 24 -19 3 -47 17
-63 31 -16 13 -46 27 -65 31 -20 4 -38 12 -41 20 -2 7 -21 18 -41 25 -21 7
-51 23 -68 36 -17 12 -36 23 -42 23 -6 0 -16 9 -22 20 -6 11 -17 20 -24 20
-15 0 -159 107 -165 122 -1 5 -10 14 -18 21 -9 7 -39 33 -67 59 -28 26 -63 57
-78 68 -16 12 -28 28 -28 36 0 8 -16 22 -36 30 -23 10 -45 31 -62 59 -15 25
-35 45 -45 45 -10 0 -22 11 -26 24 -5 13 -22 33 -38 44 -23 18 -26 23 -13 32
17 11 45 12 78 3z"/>
<path d="M1786 3497 c-18 -13 -18 -15 -2 -39 23 -34 39 -38 192 -38 153 0 224
-8 224 -25 0 -26 -53 -35 -204 -35 -150 0 -154 1 -192 27 -36 25 -47 27 -139
28 -99 0 -100 0 -113 -27 -7 -16 -17 -28 -22 -28 -15 0 -40 -31 -40 -50 0 -37
24 -47 102 -43 64 4 79 2 121 -21 30 -16 64 -26 90 -26 24 0 60 -9 82 -21 22
-11 69 -25 105 -30 35 -5 75 -16 88 -25 13 -8 50 -20 83 -25 33 -5 77 -18 97
-29 20 -11 51 -20 68 -20 17 0 63 -11 102 -25 39 -14 79 -25 87 -25 8 0 43
-11 77 -25 34 -14 87 -28 118 -32 30 -3 66 -14 79 -25 13 -10 33 -18 45 -18
11 0 54 -10 95 -22 65 -19 80 -20 125 -10 28 7 88 20 133 30 45 10 89 24 97
31 8 7 42 16 76 21 34 5 70 16 80 25 10 9 45 20 78 25 33 4 71 16 85 25 14 9
55 21 92 26 36 5 79 16 94 24 16 8 55 18 88 24 33 5 75 19 94 30 19 12 51 21
73 21 22 0 58 8 80 19 23 10 70 24 106 30 36 7 81 19 100 28 20 10 71 19 122
21 60 3 88 8 92 18 10 25 -15 69 -60 106 -44 36 -45 37 -113 31 -96 -8 -119
-1 -123 40 -3 29 -6 32 -33 30 -16 0 -57 -14 -90 -29 l-60 -28 40 -8 c22 -4
59 -7 83 -7 34 -1 42 -4 42 -20 0 -33 -23 -39 -150 -42 -158 -4 -221 5 -255
37 -18 16 -38 24 -63 24 -47 0 -274 -28 -280 -35 -11 -10 60 -22 173 -29 83
-5 137 -22 115 -36 -8 -6 -26 -10 -40 -11 -15 0 -19 -3 -10 -6 8 -3 30 -12 49
-21 27 -12 39 -13 65 -4 18 7 50 12 72 12 22 0 45 5 50 10 13 13 44 2 44 -16
0 -18 -23 -28 -95 -43 -33 -7 -67 -17 -76 -21 -9 -5 -45 -12 -79 -16 -37 -4
-85 -18 -118 -35 -32 -17 -72 -29 -93 -29 -26 0 -42 -6 -52 -20 -8 -11 -29
-23 -48 -26 -19 -3 -60 -15 -92 -26 -61 -21 -203 -33 -225 -19 -17 10 -6 36
24 56 14 9 29 27 34 40 7 17 18 25 42 27 24 2 34 9 36 23 7 45 11 49 30 31 25
-22 112 -23 112 -1 0 8 -6 15 -13 15 -7 0 -23 7 -35 16 -22 15 -23 17 -5 36
21 24 70 18 93 -12 27 -34 230 -27 230 9 0 5 -35 14 -77 20 -61 9 -83 17 -101
36 -14 16 -34 25 -52 25 -42 0 -152 -30 -171 -46 -8 -8 -26 -14 -38 -14 -24 0
-64 -28 -126 -88 -28 -27 -35 -41 -35 -72 0 -33 -4 -39 -27 -45 -39 -9 -76 22
-84 71 -4 23 -16 46 -32 58 -64 52 -103 77 -127 83 -14 3 -34 13 -45 23 -13
11 -46 20 -89 24 -38 4 -80 13 -95 20 -30 16 -190 36 -281 36 -40 0 -69 6 -86
17 -18 12 -61 18 -158 24 -105 6 -142 12 -174 28 -48 25 -62 26 -86 8z m735
-148 c29 -15 15 -26 -41 -34 -55 -8 -81 -28 -61 -48 7 -7 44 -12 95 -12 69 0
88 4 105 19 23 21 101 29 107 11 2 -5 -19 -20 -47 -32 -30 -13 -48 -27 -44
-33 5 -8 11 -7 21 1 11 9 18 9 26 1 16 -16 71 -15 87 1 10 10 17 7 35 -15 12
-16 29 -28 39 -28 9 0 19 -11 23 -24 3 -14 14 -32 25 -42 10 -9 19 -26 19 -36
0 -10 10 -22 24 -27 24 -10 40 -34 29 -45 -4 -3 -23 -6 -44 -6 -31 0 -38 4
-41 23 -3 20 -10 23 -86 28 -55 4 -88 12 -101 23 -9 9 -33 16 -53 16 -20 0
-44 8 -56 19 -13 10 -54 23 -99 31 -79 13 -192 40 -248 58 -16 6 -48 15 -70
20 -51 13 -123 41 -110 43 6 0 28 3 50 5 22 2 41 8 43 14 2 5 19 10 37 10 20
0 50 10 70 24 21 15 57 27 88 30 29 3 66 8 82 9 60 8 77 7 96 -4z m-381 -49
c0 -5 -14 -10 -31 -10 -17 0 -28 4 -24 10 3 6 17 10 31 10 13 0 24 -4 24 -10z
m947 -256 c30 -8 19 -24 -17 -24 -29 0 -45 12 -33 24 8 7 21 8 50 0z"/>
<path d="M2282 3303 c2 -10 14 -19 26 -21 19 -3 23 1 20 15 -2 10 -14 19 -26
21 -19 3 -23 -1 -20 -15z"/>
<path d="M3954 3435 c-18 -13 -16 -14 23 -15 46 0 73 8 73 21 0 15 -75 10 -96
-6z"/>
<path d="M3035 2744 c-83 -44 -79 -30 -82 -256 -2 -237 1 -252 71 -286 45 -23
48 -23 95 -7 61 20 78 38 91 100 13 65 2 109 -30 113 -32 5 -50 -22 -50 -74 0
-43 -22 -78 -43 -71 -28 9 -50 57 -46 99 2 24 3 97 1 164 l-3 121 26 11 c36
16 65 0 65 -36 0 -31 25 -72 44 -72 7 0 21 9 31 20 28 31 13 103 -33 151 -49
51 -75 56 -137 23z"/>
<path d="M3865 2757 c-21 -11 -52 -46 -72 -81 -8 -14 -12 -80 -13 -206 0 -166
2 -188 20 -217 23 -38 46 -51 103 -59 60 -9 103 14 110 58 20 108 19 133 -1
151 -18 17 -21 17 -36 2 -9 -10 -16 -33 -16 -56 0 -22 -5 -49 -10 -60 -14 -25
-66 -26 -79 -1 -6 12 -8 305 -2 364 2 13 39 18 65 9 22 -9 26 -17 26 -50 0
-50 20 -69 57 -52 25 11 25 14 19 74 -9 73 -8 72 -54 101 -46 29 -91 38 -117
23z"/>
<path d="M4483 2738 c-40 -26 -53 -40 -58 -66 -11 -60 6 -405 21 -429 8 -13
37 -34 65 -48 l50 -26 47 27 c26 15 50 32 54 38 12 17 9 215 -3 237 -13 25
-58 44 -72 30 -15 -15 -10 -80 8 -107 18 -28 19 -54 3 -89 -14 -32 -54 -43
-75 -22 -21 21 -26 338 -6 367 28 40 78 13 85 -45 3 -26 8 -30 36 -33 l32 -3
0 65 0 65 -45 30 c-67 45 -83 46 -142 9z"/>
<path d="M3277 2753 c-11 -10 -8 -62 5 -104 8 -28 8 -50 1 -76 -7 -24 -8 -77
-3 -143 4 -65 3 -125 -3 -157 -10 -46 -9 -55 8 -73 10 -11 28 -20 40 -20 41 0
48 22 41 124 -8 102 -1 119 50 132 45 11 54 -9 54 -121 0 -57 3 -110 6 -119 8
-21 37 -20 63 2 21 17 22 20 12 142 -7 83 -7 165 -1 244 10 120 7 155 -14 168
-18 12 -54 9 -63 -4 -4 -7 -6 -63 -5 -125 l3 -111 -29 -6 c-16 -4 -40 -2 -55
3 l-26 10 6 105 c4 78 3 109 -7 121 -12 15 -71 21 -83 8z"/>
<path d="M3634 2748 c-13 -17 -10 -536 2 -547 20 -19 52 -21 68 -6 13 13 15
30 10 83 -3 37 -6 159 -7 272 l-2 205 -31 3 c-17 2 -35 -3 -40 -10z"/>
<path d="M4178 2750 c-11 -7 -18 -23 -18 -41 0 -16 -9 -62 -21 -102 -15 -50
-22 -105 -23 -182 -2 -96 -5 -115 -27 -152 -28 -49 -20 -76 25 -81 36 -5 56
14 56 52 0 39 15 56 51 56 31 0 43 -13 53 -55 10 -39 34 -65 61 -65 38 0 45
48 21 134 -8 28 -20 98 -27 156 -16 154 -35 250 -51 266 -19 19 -79 27 -100
14z m69 -202 c6 -7 16 -40 22 -73 17 -82 5 -115 -42 -115 -59 0 -70 32 -42
124 21 70 41 91 62 64z"/>
<path d="M4795 2733 c-50 -51 -56 -74 -55 -206 1 -67 2 -142 1 -166 -1 -25 6
-66 15 -93 15 -45 21 -51 71 -74 52 -22 57 -23 87 -9 47 23 61 37 81 75 16 31
18 57 16 214 -1 98 -6 188 -11 201 -5 12 -26 36 -47 54 -51 42 -117 44 -158 4z
m107 -75 c14 -11 17 -39 18 -173 3 -203 4 -192 -25 -211 -21 -14 -31 -15 -50
-6 l-25 12 0 184 c0 166 2 186 18 195 23 14 45 13 64 -1z"/>
<path d="M954 2739 c-4 -8 -27 -10 -64 -6 -79 7 -85 1 -80 -75 5 -78 5 -798 0
-966 -3 -99 0 -126 11 -133 8 -5 49 -9 91 -9 64 0 79 3 86 18 10 19 -1 423
-13 459 -9 28 25 47 74 40 20 -3 55 -2 78 2 58 11 89 -5 86 -44 -1 -17 -4
-100 -7 -185 -3 -85 -9 -182 -12 -214 -4 -43 -2 -61 8 -67 19 -12 176 -11 183
1 11 18 5 1163 -6 1176 -8 9 -18 10 -40 2 -17 -6 -51 -8 -77 -4 -39 5 -49 3
-58 -11 -11 -18 -1 -377 12 -455 9 -55 -16 -66 -138 -59 -53 3 -99 8 -101 11
-3 3 -1 28 3 55 4 28 10 141 11 253 3 172 2 204 -11 212 -20 13 -27 12 -36 -1z
m346 -578 c14 -27 2 -53 -24 -49 -27 4 -33 38 -10 55 23 16 21 17 34 -6z
m-335 -20 c7 -12 -12 -24 -25 -16 -11 7 -4 25 10 25 5 0 11 -4 15 -9z"/>
<path d="M2340 2743 c-44 -6 -127 -34 -142 -46 -8 -7 -30 -34 -48 -62 -27 -41
-34 -64 -41 -126 -18 -179 15 -253 186 -416 133 -129 175 -187 175 -245 -1
-62 -16 -121 -36 -135 -10 -7 -41 -13 -70 -13 -47 0 -55 4 -79 32 -26 30 -27
37 -21 100 4 47 2 69 -6 74 -17 11 -129 13 -155 3 -29 -11 -30 -44 -2 -152 27
-107 42 -133 91 -159 22 -13 50 -29 62 -36 15 -9 54 -12 133 -10 107 3 112 4
137 31 14 15 30 27 35 27 18 0 41 45 66 133 l25 87 -21 87 c-21 88 -60 162
-111 210 -154 148 -200 196 -213 225 -8 18 -24 45 -36 59 -18 23 -19 30 -9 70
21 81 62 112 135 103 60 -9 77 -32 69 -96 -9 -69 2 -78 95 -78 47 0 82 5 89
12 17 17 15 58 -6 98 -10 19 -24 54 -31 77 -19 59 -73 106 -152 131 -65 22
-72 23 -119 15z"/>
<path d="M1975 2732 c-4 -4 -106 -7 -228 -7 l-222 0 2 -45 c6 -147 5 -950 -2
-1027 l-7 -92 33 -6 c19 -3 61 -5 94 -3 l60 3 0 255 0 255 25 -2 c14 -1 66 -6
115 -11 61 -7 94 -7 103 0 14 12 17 125 3 147 -7 11 -31 13 -122 7 -63 -3
-119 -3 -125 1 -8 6 -9 42 -5 122 4 63 5 133 1 155 -7 52 -2 83 13 89 7 3 70
1 141 -4 77 -5 136 -4 146 1 19 10 30 51 30 110 0 29 -5 39 -24 48 -13 6 -27
8 -31 4z"/>
<path d="M2792 2102 c-25 -19 -62 -92 -62 -121 0 -50 37 -114 107 -182 80 -79
90 -97 73 -140 -10 -22 -19 -29 -40 -29 -31 0 -45 13 -55 52 -9 35 -29 51 -55
43 -40 -13 -44 -42 -15 -101 15 -30 34 -58 43 -63 29 -14 85 -21 122 -13 29 6
39 16 57 52 27 55 28 89 3 160 -13 38 -31 66 -59 90 -53 47 -101 108 -101 131
0 26 28 49 61 49 22 0 30 -6 35 -24 13 -52 72 -72 88 -30 7 19 -21 93 -45 118
-27 29 -126 34 -157 8z"/>
<path d="M3383 2108 c-7 -8 -10 -98 -10 -253 0 -132 -3 -250 -6 -261 -11 -32
16 -55 56 -47 18 3 34 8 37 10 3 3 5 57 5 121 l0 117 40 0 c56 0 66 -24 56
-135 -4 -47 -6 -90 -4 -97 11 -31 103 -20 103 12 0 9 -7 32 -15 52 -20 48 -23
340 -4 414 15 57 7 69 -44 69 -37 0 -46 -27 -37 -113 11 -103 -1 -137 -50
-137 -46 0 -53 19 -47 130 3 69 2 102 -7 109 -21 18 -62 23 -73 9z"/>
<path d="M4060 2113 c-29 -10 -39 -33 -29 -66 6 -18 9 -131 8 -253 -1 -121 1
-226 5 -232 5 -8 55 -12 167 -12 l159 0 0 39 c0 52 22 75 68 68 43 -8 62 -23
62 -52 0 -43 10 -55 47 -55 l36 0 -8 63 c-5 34 -8 77 -7 96 0 19 -8 78 -20
130 -11 53 -23 129 -25 169 -6 88 -23 105 -100 100 l-48 -3 -7 -85 c-4 -52
-14 -102 -27 -130 -15 -34 -21 -66 -21 -130 0 -100 -14 -136 -51 -133 -13 2
-48 4 -77 6 -65 3 -76 18 -68 90 10 87 10 367 0 376 -13 13 -47 20 -64 14z
m417 -254 c13 -109 -6 -161 -49 -138 -35 19 -42 48 -25 103 9 28 21 71 27 95
10 37 14 42 25 30 8 -8 17 -48 22 -90z"/>
<path d="M5017 2102 c-30 -19 -47 -64 -47 -127 0 -75 16 -107 90 -176 64 -60
70 -69 70 -106 0 -48 -19 -68 -56 -59 -18 5 -31 19 -42 47 -12 31 -20 39 -36
37 -33 -5 -35 -82 -4 -128 23 -34 26 -35 93 -38 l70 -3 38 45 c31 38 37 52 37
91 0 38 -7 55 -39 98 -21 29 -60 72 -86 97 -78 75 -90 116 -39 139 37 17 44
14 59 -24 17 -40 47 -59 80 -51 46 12 42 69 -9 129 -30 35 -37 39 -92 43 -44
2 -66 -1 -87 -14z"/>
<path d="M3107 2098 c-28 -10 -29 -13 -47 -113 -12 -68 -4 -331 12 -383 13
-42 33 -52 112 -52 l65 0 30 54 c30 52 41 116 23 142 -12 18 -42 24 -63 14
-15 -8 -19 -22 -19 -58 0 -27 -6 -57 -14 -67 -13 -18 -15 -18 -40 -1 -41 26
-51 56 -37 110 14 58 14 135 -1 193 -11 46 -11 47 22 76 l34 30 18 -23 c10
-12 18 -33 18 -47 0 -56 40 -81 74 -47 28 27 19 84 -19 137 -34 46 -36 47 -88
46 -28 0 -64 -5 -80 -11z"/>
<path d="M3764 2092 c-41 -32 -44 -53 -44 -267 0 -270 2 -275 126 -275 63 0
64 1 93 40 l28 39 2 201 1 200 -36 40 c-34 38 -40 40 -93 40 -38 0 -63 -6 -77
-18z m110 -78 c24 -24 23 -339 -1 -366 -22 -24 -49 -23 -67 4 -13 18 -16 54
-16 180 0 145 2 160 20 178 24 24 43 25 64 4z"/>
<path d="M4656 2097 c-18 -13 -19 -22 -11 -138 4 -68 9 -187 9 -264 l1 -140
35 0 35 0 0 100 c0 55 4 106 8 113 11 16 49 15 73 -2 17 -13 19 -25 16 -115
l-3 -100 27 -7 c50 -13 59 4 59 102 0 67 -5 99 -20 132 -19 41 -19 43 -1 97
17 47 18 63 8 122 -16 94 -31 107 -135 111 -59 3 -87 0 -101 -11z m155 -88
c19 -19 21 -29 15 -77 -8 -67 -9 -69 -48 -77 -24 -6 -35 -3 -45 11 -15 21 -17
117 -3 145 14 25 55 24 81 -2z"/>
</g>
</svg>
