<?xml version="1.0" standalone="no"?>
<!DOCTYPE svg PUBLIC "-//W3C//DTD SVG 20010904//EN"
 "http://www.w3.org/TR/2001/REC-SVG-20010904/DTD/svg10.dtd">
<svg version="1.0" xmlns="http://www.w3.org/2000/svg"
 width="900.000000pt" height="900.000000pt" viewBox="0 0 900.000000 900.000000"
 preserveAspectRatio="xMidYMid meet">
<metadata>
Created by potrace 1.10, written by Peter Selinger 2001-2011
</metadata>
<g transform="translate(0.000000,900.000000) scale(0.100000,-0.100000)"
fill="#000000" stroke="none">
<path d="M4466 8945 c-9 -9 -16 -28 -16 -42 0 -24 -24 -110 -40 -143 -4 -9
-11 -36 -15 -60 -4 -25 -14 -54 -21 -65 -8 -11 -14 -29 -14 -40 0 -11 -12 -42
-25 -70 -14 -27 -25 -59 -25 -70 0 -11 -7 -29 -15 -39 -8 -11 -15 -32 -15 -46
0 -14 -7 -35 -15 -46 -8 -10 -15 -30 -15 -44 0 -14 -7 -34 -15 -44 -8 -11 -15
-31 -15 -45 -1 -14 -7 -37 -15 -51 -8 -14 -14 -39 -15 -55 0 -17 -5 -36 -11
-42 -6 -6 -15 -29 -19 -50 -11 -51 -34 -111 -48 -125 -7 -7 -12 -19 -12 -28 0
-8 -7 -24 -15 -34 -8 -11 -15 -29 -15 -40 0 -11 -6 -38 -14 -61 -16 -46 -53
-168 -91 -300 -14 -49 -39 -118 -56 -152 -16 -35 -29 -73 -29 -86 0 -39 -35
-67 -83 -67 -23 0 -51 -7 -61 -15 -11 -8 -38 -15 -60 -15 -23 0 -50 -7 -60
-15 -11 -8 -35 -15 -53 -15 -18 0 -41 -4 -51 -9 -9 -6 -64 -26 -122 -46 -147
-51 -491 -224 -587 -296 -29 -21 -56 -39 -60 -39 -4 0 -26 -16 -48 -36 -22
-20 -62 -51 -90 -69 -27 -18 -59 -42 -69 -54 -11 -11 -24 -21 -30 -21 -17 0
-341 -318 -384 -376 -20 -29 -50 -71 -67 -94 -16 -23 -49 -64 -72 -90 -24 -26
-43 -51 -43 -55 0 -4 -19 -37 -43 -74 -23 -36 -47 -75 -54 -86 -7 -11 -31 -50
-54 -87 l-41 -68 -874 0 -874 0 0 -35 0 -35 888 0 c488 0 896 3 907 6 11 3 28
24 38 47 10 23 23 49 28 57 5 8 13 24 18 36 15 34 79 131 110 167 15 17 36 47
45 65 21 41 145 202 155 202 4 0 29 28 54 63 25 34 69 82 98 107 28 25 90 82
138 128 47 45 102 92 121 103 19 12 58 41 87 65 28 24 57 44 65 44 7 0 41 24
75 53 34 28 79 60 100 71 21 10 45 22 53 27 16 9 97 49 286 140 116 55 316
129 350 129 9 0 37 6 63 14 85 26 156 45 192 51 44 7 75 38 84 85 3 19 17 64
29 100 28 82 59 178 81 255 24 85 45 147 53 159 11 17 33 78 42 116 4 19 18
60 30 90 12 30 26 74 31 97 4 23 12 50 17 60 5 10 24 65 42 123 18 58 41 124
51 147 30 63 65 174 113 352 22 84 40 110 52 74 3 -10 13 -34 22 -53 15 -34
45 -130 62 -200 11 -46 29 -98 46 -133 8 -16 14 -34 14 -42 0 -20 32 -118 44
-134 13 -17 76 -201 76 -223 0 -10 6 -32 14 -50 24 -58 36 -95 70 -214 8 -29
25 -76 39 -105 14 -30 30 -74 37 -99 6 -25 23 -79 37 -120 30 -93 52 -164 63
-210 11 -43 43 -68 100 -75 25 -4 65 -13 89 -21 25 -8 53 -14 62 -14 10 0 40
-7 66 -15 26 -8 73 -22 103 -31 105 -31 146 -46 290 -111 246 -110 380 -183
443 -239 21 -20 53 -42 71 -49 17 -8 56 -34 86 -60 30 -25 78 -61 106 -80 28
-18 62 -47 76 -63 14 -16 66 -67 116 -112 51 -46 108 -105 127 -132 19 -26 46
-58 60 -70 31 -27 125 -151 151 -198 10 -19 35 -54 55 -77 40 -48 139 -208
139 -226 0 -7 9 -27 20 -44 l20 -33 900 0 900 0 0 35 0 35 -852 0 c-469 0
-860 0 -869 0 -14 0 -89 106 -89 125 0 4 -13 24 -30 45 -16 21 -30 42 -30 47
0 5 -13 24 -30 43 -16 19 -29 41 -30 49 0 8 -19 35 -42 61 -24 26 -56 67 -73
90 -87 123 -117 157 -252 289 -148 144 -224 211 -237 211 -10 0 -117 82 -177
134 -26 23 -64 50 -85 61 -22 11 -52 29 -69 41 -16 12 -57 35 -90 52 -33 16
-124 61 -202 100 -143 72 -361 152 -412 152 -16 0 -34 7 -41 15 -7 9 -29 15
-54 15 -23 0 -51 7 -62 15 -10 8 -39 15 -63 15 -50 0 -111 32 -111 59 0 9 -4
21 -10 27 -5 5 -25 63 -45 129 -20 66 -52 170 -71 230 -19 61 -37 125 -40 143
-4 18 -11 35 -15 38 -5 3 -9 16 -9 29 0 13 -6 28 -12 32 -18 11 -37 64 -78
218 -10 38 -29 90 -46 133 -8 18 -14 43 -14 55 0 13 -7 32 -15 43 -8 10 -15
33 -15 50 0 17 -7 37 -15 44 -8 7 -15 20 -15 30 0 10 -7 23 -15 30 -8 7 -15
24 -15 39 0 14 -7 35 -15 45 -8 11 -15 31 -15 45 -1 25 -28 114 -42 136 -3 6
-9 28 -13 50 -4 22 -10 45 -14 50 -6 10 -35 110 -50 170 -8 35 -32 43 -55 20z"/>
<path d="M4460 8224 c-6 -14 -10 -33 -10 -42 0 -9 -10 -48 -21 -87 -11 -38
-29 -106 -40 -150 -12 -44 -25 -84 -29 -90 -4 -5 -11 -24 -14 -42 -4 -17 -14
-37 -22 -44 -8 -6 -14 -18 -14 -26 0 -15 -25 -98 -41 -138 -22 -53 -41 -113
-46 -140 -2 -16 -8 -39 -13 -50 -5 -11 -19 -51 -31 -90 -41 -129 -52 -155 -65
-166 -8 -6 -14 -21 -14 -32 0 -21 -8 -51 -42 -148 l-19 -56 -64 -7 c-34 -3
-89 -16 -121 -27 -67 -23 -66 -23 -157 -44 -89 -21 -199 -57 -271 -89 -32 -14
-66 -26 -75 -26 -19 0 -180 -81 -225 -113 -39 -28 -64 -43 -96 -57 -13 -6 -27
-14 -30 -18 -3 -4 -23 -16 -45 -27 -47 -23 -89 -51 -125 -82 -13 -13 -28 -23
-31 -23 -4 0 -42 -30 -84 -66 -43 -36 -101 -82 -129 -103 -28 -21 -69 -58 -91
-82 -22 -24 -69 -73 -105 -109 -77 -78 -138 -152 -163 -197 -9 -18 -35 -51
-56 -72 -39 -39 -102 -139 -152 -241 -15 -30 -39 -66 -53 -79 -14 -14 -26 -29
-26 -35 0 -31 -37 -97 -57 -102 -13 -4 -363 -5 -778 -3 -833 4 -809 6 -690
-56 33 -17 86 -49 118 -70 32 -22 77 -50 100 -63 23 -12 59 -40 82 -61 22 -21
65 -54 95 -72 30 -18 57 -36 60 -39 3 -3 22 -16 43 -29 20 -12 37 -26 37 -31
0 -4 12 -12 28 -18 15 -5 51 -31 79 -57 56 -49 162 -125 177 -125 4 0 36 -22
71 -49 34 -27 75 -56 91 -64 16 -8 41 -26 54 -40 44 -43 152 -117 170 -117 28
0 32 -28 26 -183 -8 -204 12 -438 58 -682 25 -135 36 -179 46 -189 6 -6 10
-19 10 -30 0 -11 6 -27 14 -35 8 -9 23 -45 34 -81 23 -74 79 -210 93 -225 5
-5 9 -21 9 -36 0 -15 7 -32 15 -39 8 -7 15 -18 15 -24 0 -7 19 -39 43 -71 24
-33 53 -82 66 -110 26 -56 109 -185 119 -185 4 0 18 -17 31 -38 62 -95 138
-186 195 -233 77 -65 93 -91 71 -121 -8 -13 -15 -30 -15 -39 0 -9 -7 -30 -15
-45 -8 -16 -15 -36 -15 -45 0 -9 -7 -34 -16 -55 -25 -64 -44 -108 -54 -125 -5
-9 -12 -34 -16 -54 -4 -21 -13 -50 -20 -64 -8 -14 -14 -33 -14 -41 0 -16 -54
-193 -69 -225 -5 -11 -12 -38 -14 -60 -3 -22 -15 -58 -28 -80 -20 -34 -40 -91
-99 -290 -5 -16 -21 -70 -35 -120 -14 -49 -33 -104 -40 -122 -8 -17 -15 -36
-15 -41 0 -6 -16 -34 -35 -63 -19 -30 -35 -59 -35 -66 0 -25 21 -23 61 7 23
16 46 30 50 30 4 0 37 21 73 48 82 59 199 142 230 162 13 8 66 47 117 85 52
39 110 79 129 89 19 11 49 30 65 43 70 55 246 183 315 228 41 27 92 65 113 84
21 19 57 46 80 59 23 14 53 34 67 46 54 47 119 86 142 86 13 0 48 -12 78 -26
30 -14 70 -28 89 -31 20 -3 41 -9 46 -13 15 -11 254 -73 300 -77 22 -2 54 -10
70 -18 81 -35 261 -54 525 -54 280 -1 475 19 585 58 17 5 84 22 150 37 129 29
316 87 352 110 12 8 28 14 34 14 22 0 228 -140 237 -162 2 -4 20 -17 40 -30
20 -12 63 -41 94 -65 31 -24 61 -43 66 -43 6 0 12 -4 14 -8 2 -4 21 -19 43
-32 50 -30 49 -29 116 -87 54 -46 148 -110 261 -179 28 -17 70 -50 94 -73 23
-22 47 -41 52 -41 5 0 56 -34 113 -75 57 -41 108 -75 115 -75 6 0 19 -9 30
-21 10 -12 35 -29 54 -39 19 -10 44 -27 54 -39 19 -20 46 -27 59 -15 3 4 -5
21 -19 39 -26 34 -50 92 -84 200 -75 239 -90 288 -90 304 0 10 -8 29 -18 42
-10 13 -31 67 -46 119 -56 186 -86 281 -96 305 -5 11 -11 39 -14 61 -3 23 -24
77 -46 120 -22 43 -40 88 -40 99 0 19 -30 116 -50 160 -20 45 -32 97 -26 118
5 20 44 62 141 154 47 45 103 115 126 158 11 22 33 51 49 65 26 24 120 162
120 178 0 16 40 85 79 137 23 30 41 60 41 67 0 7 7 22 15 32 8 11 15 30 15 42
0 12 7 27 15 34 8 7 15 18 15 25 0 7 7 26 15 41 8 16 15 36 15 44 0 8 7 24 15
34 8 11 15 31 15 45 0 14 12 49 26 76 33 66 50 118 63 185 5 30 14 68 20 83 6
16 11 42 11 59 0 17 4 47 9 67 5 20 17 108 26 196 17 160 17 430 0 502 -8 37
9 57 80 92 22 10 69 44 104 75 36 31 68 56 72 56 9 0 86 50 147 97 24 18 49
33 55 33 7 0 41 26 77 58 36 32 99 80 140 107 41 27 98 66 126 87 28 21 55 38
61 38 5 0 18 10 29 21 27 30 126 104 166 125 18 9 56 32 84 51 29 18 72 44 95
57 24 12 43 27 41 32 -1 5 -320 9 -760 9 l-757 0 -31 62 c-17 34 -45 79 -62
101 -18 22 -32 43 -32 47 0 31 -113 211 -160 255 -16 15 -36 42 -43 59 -17 41
-113 155 -151 182 -17 12 -51 48 -75 81 -24 33 -62 72 -85 86 -23 15 -73 54
-111 87 -156 133 -224 185 -305 229 -19 10 -54 32 -78 48 -24 15 -50 28 -58
28 -7 0 -14 4 -14 9 0 5 -10 13 -22 17 -13 3 -30 12 -38 19 -27 23 -124 71
-180 90 -30 10 -64 23 -75 30 -11 7 -47 20 -80 29 -33 10 -71 22 -85 28 -14 6
-41 14 -60 19 -121 28 -160 39 -201 57 -27 13 -79 24 -127 28 -72 6 -85 10
-102 32 -11 14 -20 31 -20 39 0 8 -10 33 -22 56 -35 69 -38 76 -38 98 0 11 -6
35 -14 52 -8 18 -24 66 -36 107 -13 41 -26 80 -30 85 -4 6 -10 30 -14 55 -4
24 -10 49 -14 55 -4 5 -16 37 -27 70 -10 33 -24 67 -31 75 -6 8 -15 30 -19 47
-3 18 -11 35 -16 38 -5 4 -9 17 -9 30 0 13 -6 39 -14 57 -24 59 -38 102 -45
143 -8 42 -19 79 -58 185 -12 36 -23 75 -23 88 0 31 -28 28 -40 -4z m52 -328
c4 -23 -20 -34 -28 -12 -8 21 4 52 15 40 5 -5 11 -18 13 -28z m36 -75 c7 -21
12 -47 12 -58 0 -10 9 -37 20 -58 12 -22 18 -49 16 -61 -3 -11 1 -29 9 -40 8
-10 15 -35 15 -55 0 -28 5 -38 20 -42 11 -3 20 -14 20 -24 0 -11 7 -28 15 -39
8 -10 15 -30 15 -44 0 -14 9 -49 21 -79 11 -30 18 -63 16 -73 -3 -9 8 -38 24
-63 22 -35 29 -58 29 -95 0 -38 4 -50 15 -50 8 0 18 -12 21 -27 4 -16 16 -47
26 -70 16 -33 17 -46 8 -63 -10 -19 -13 -20 -28 -7 -9 9 -29 18 -44 22 -14 4
-34 15 -44 26 -21 23 -32 24 -56 2 -14 -13 -23 -14 -41 -5 -12 6 -45 14 -74
17 -50 6 -53 5 -121 -44 -69 -50 -95 -60 -107 -41 -3 6 -13 10 -22 10 -9 0
-30 17 -48 37 -31 35 -33 36 -63 24 -17 -7 -38 -11 -47 -7 -21 8 -19 51 5 95
22 42 60 152 60 177 0 10 11 31 24 49 17 22 22 36 15 46 -13 21 -11 55 6 69 8
7 12 16 10 20 -8 13 25 93 45 110 10 9 23 45 31 85 7 39 19 74 26 78 7 4 20
21 28 37 12 23 13 34 4 48 -9 15 -8 29 6 66 21 54 33 65 50 43 10 -14 13 -14
28 4 25 29 43 23 55 -20z m77 -991 l92 0 37 -37 c37 -37 38 -40 32 -93 -3 -30
-8 -93 -12 -139 -6 -72 -11 -88 -35 -116 l-29 -32 -122 5 c-68 2 -129 9 -135
14 -17 14 -16 49 2 84 20 40 20 201 0 228 -20 27 -19 73 3 86 9 5 30 8 46 5
16 -3 70 -5 121 -5z m-350 -70 c0 -74 17 -116 90 -219 68 -96 61 -116 -47
-127 -66 -7 -67 -6 -73 19 -4 14 -4 30 -1 36 14 21 -7 41 -43 41 -51 0 -66
-12 -51 -39 6 -12 10 -34 8 -49 -3 -26 -7 -27 -73 -35 -38 -4 -75 -5 -82 -3
-15 6 -18 86 -3 86 6 0 10 9 10 21 0 11 4 28 10 38 19 36 40 163 30 182 -6 10
-10 34 -10 53 0 27 4 36 18 37 82 4 124 9 139 18 10 6 32 10 48 8 l30 -2 0
-65z m715 30 c41 -11 92 -20 112 -20 20 0 48 -4 62 -10 22 -8 26 -16 26 -49 0
-77 -20 -87 -96 -50 -58 27 -99 23 -99 -11 0 -19 6 -26 25 -28 83 -9 90 -12
90 -41 0 -16 -10 -41 -21 -56 -19 -23 -27 -26 -56 -20 -19 3 -40 8 -48 11 -19
8 -31 -36 -14 -47 8 -5 42 -7 77 -6 73 2 85 -8 76 -63 -10 -58 -24 -65 -91
-51 -32 8 -70 20 -85 27 -15 8 -43 14 -63 14 -60 0 -78 15 -70 58 3 21 13 42
20 48 24 18 61 192 45 208 -21 21 -3 106 22 106 7 0 47 -9 88 -20z m-1034 -15
c6 -15 -11 -45 -26 -45 -10 0 -21 41 -14 52 9 13 34 9 40 -7z m-126 -60 c28
-18 42 -35 49 -62 16 -55 15 -56 -34 -77 -47 -19 -75 -16 -75 7 0 28 -27 41
-59 27 -16 -6 -32 -17 -34 -24 -3 -6 10 -43 29 -81 18 -39 33 -76 33 -83 1 -9
12 -12 33 -10 28 3 33 8 39 36 9 42 15 49 60 57 46 9 69 -12 69 -63 0 -64 -43
-104 -139 -132 -68 -19 -85 -21 -110 -10 -40 16 -58 38 -70 85 -10 45 -27 93
-47 143 -19 44 -18 68 6 118 13 27 31 45 48 51 140 50 150 51 202 18z m1572
-27 c23 -15 27 -26 33 -97 9 -105 19 -112 83 -62 28 22 53 45 57 51 8 12 72
14 79 1 3 -5 21 -12 41 -15 19 -4 37 -11 41 -17 11 -19 -18 -68 -52 -88 -19
-11 -38 -31 -43 -43 -27 -75 -41 -131 -41 -171 0 -35 -5 -49 -20 -60 -18 -12
-29 -11 -90 11 -63 22 -70 27 -70 52 0 21 10 34 41 55 45 32 62 56 53 79 -10
25 -23 19 -75 -29 -26 -25 -53 -45 -59 -45 -6 0 -10 24 -10 58 0 33 -6 66 -14
77 -13 18 -14 18 -26 -5 -8 -14 -10 -41 -7 -72 5 -40 3 -52 -16 -72 l-22 -24
-62 29 c-56 26 -63 32 -63 58 0 16 12 44 29 64 15 20 34 51 41 69 6 18 17 44
23 58 6 14 12 48 12 77 0 40 5 57 23 76 21 22 26 23 55 13 18 -6 45 -19 59
-28z m-2028 -123 c8 -9 18 -32 22 -52 5 -27 24 -53 77 -105 39 -37 78 -68 87
-68 25 0 62 -45 58 -71 -2 -18 -17 -28 -63 -46 -32 -13 -64 -23 -70 -23 -6 0
-21 20 -33 45 -12 25 -25 45 -29 45 -5 0 -21 -11 -38 -24 l-30 -24 24 -42 c13
-23 19 -45 15 -49 -55 -43 -123 -80 -141 -75 -26 7 -39 57 -28 101 3 15 3 70
-1 121 -6 85 -9 98 -36 128 -31 35 -34 62 -8 74 8 4 47 23 85 43 80 41 88 43
109 22z m-343 -94 c12 -11 18 -25 14 -31 -4 -6 4 -21 18 -34 28 -26 48 -84 40
-116 -3 -11 0 -20 6 -20 6 0 11 -17 11 -39 0 -29 -6 -44 -22 -55 -20 -14 -25
-12 -82 36 -34 28 -62 54 -64 59 -2 5 -12 9 -22 9 -20 0 -31 19 -36 64 -5 38
12 59 37 45 16 -8 19 -6 19 16 0 33 26 44 45 19 9 -13 17 -16 24 -9 12 12 4
55 -10 55 -5 0 -9 5 -9 10 0 15 8 12 31 -9z m2838 8 c17 -6 31 -14 31 -18 0
-3 20 -17 44 -31 59 -32 63 -53 20 -103 -39 -47 -42 -62 -13 -77 25 -14 38 -5
65 45 28 52 45 53 124 0 74 -50 83 -67 52 -105 -16 -20 -28 -23 -119 -24 -69
-1 -106 -6 -118 -16 -19 -16 -45 -74 -45 -102 0 -27 -45 -69 -66 -61 -14 5
-111 67 -122 78 -11 10 37 79 63 89 47 20 62 57 45 114 -7 26 -15 61 -18 79
-2 18 -10 38 -18 44 -18 15 -18 31 4 68 19 34 25 36 71 20z m-1039 -167 c25
-6 104 -23 175 -38 153 -32 348 -93 408 -129 23 -14 78 -43 122 -65 93 -47 89
-44 225 -134 126 -84 367 -299 410 -366 18 -27 48 -66 69 -87 49 -50 99 -123
141 -203 19 -36 52 -92 74 -125 39 -58 56 -93 77 -162 5 -18 14 -35 19 -38 6
-4 10 -16 10 -28 0 -12 7 -31 15 -41 8 -11 15 -29 15 -40 0 -30 34 -134 48
-148 7 -7 12 -21 12 -31 0 -11 7 -40 15 -66 50 -159 52 -635 4 -861 -6 -25
-14 -61 -18 -81 -4 -19 -12 -42 -17 -50 -14 -23 -35 -81 -44 -124 -9 -45 -28
-96 -61 -170 -12 -27 -28 -65 -35 -83 -6 -18 -28 -56 -47 -85 -36 -54 -68
-107 -112 -189 -13 -26 -54 -80 -90 -120 -36 -40 -77 -91 -92 -113 -15 -22
-43 -53 -62 -70 -19 -16 -84 -76 -145 -131 -112 -103 -202 -170 -296 -221
-109 -59 -195 -102 -206 -103 -7 0 -35 -16 -64 -35 -29 -19 -64 -38 -79 -41
-14 -3 -57 -16 -96 -29 -210 -69 -445 -105 -708 -106 -255 -2 -460 26 -702 97
-113 33 -143 45 -240 96 -22 12 -56 28 -75 37 -19 8 -56 28 -81 43 -25 16 -51
28 -57 28 -6 0 -46 24 -87 52 -42 29 -84 58 -93 63 -9 6 -53 43 -96 84 -44 40
-91 80 -105 89 -45 27 -92 75 -126 128 -18 28 -51 69 -72 90 -52 52 -95 109
-123 164 -13 25 -39 65 -59 90 -32 40 -79 126 -116 215 -67 159 -106 260 -119
310 -10 33 -24 82 -32 109 -7 26 -14 60 -14 75 -1 14 -7 53 -15 86 -17 69 -20
463 -4 555 5 30 14 95 19 144 5 49 14 94 19 100 4 6 12 32 15 58 4 26 11 50
17 53 5 4 9 17 9 31 0 13 13 50 30 81 17 31 30 62 30 70 0 8 6 27 14 41 8 15
29 63 47 107 44 105 77 163 99 175 10 5 20 20 24 33 8 32 88 150 145 213 25
28 71 81 101 118 30 37 84 89 120 116 36 26 86 70 110 97 25 26 57 55 72 63
15 8 53 33 85 56 32 22 91 57 132 78 41 20 94 50 118 67 24 16 48 29 54 29 5
0 17 4 27 10 94 51 384 132 577 160 44 6 87 13 95 15 37 9 549 -2 590 -13z
m-1914 -149 c142 -159 134 -147 134 -197 0 -43 -4 -51 -47 -92 -27 -26 -64
-57 -84 -70 -33 -22 -39 -23 -71 -12 -23 9 -70 49 -132 115 -78 84 -96 108
-96 133 0 41 20 77 67 121 59 55 84 69 128 69 38 0 45 -5 101 -67z m3374 29
c0 -5 23 -15 50 -22 28 -7 50 -15 50 -17 0 -2 -7 -19 -14 -38 -12 -27 -21 -35
-41 -35 -18 0 -28 -7 -35 -26 -8 -21 -15 -25 -35 -22 -19 4 -25 1 -25 -13 0
-10 5 -21 10 -24 26 -16 7 -26 -74 -38 -10 -2 -22 -11 -28 -20 -5 -9 -19 -17
-32 -17 -15 0 -26 -7 -29 -20 -7 -28 -51 -26 -71 2 -9 12 -19 19 -22 15 -11
-11 -34 13 -34 34 0 11 11 24 25 31 19 9 23 16 19 35 -7 25 13 32 33 12 7 -7
20 -8 30 -5 17 7 17 8 -1 22 -26 19 -12 30 19 16 37 -17 48 -15 42 7 -4 17 -1
19 28 14 53 -9 129 52 118 95 -3 13 -1 22 6 22 6 0 11 -4 11 -8z m193 -201
c58 -65 70 -101 31 -101 -8 0 -14 -4 -14 -9 0 -6 -19 -14 -42 -18 -37 -7 -43
-13 -46 -35 -4 -36 36 -65 67 -48 12 6 21 16 21 22 0 23 35 87 48 88 7 0 40
-27 73 -61 49 -50 58 -64 48 -76 -18 -21 -66 -44 -81 -38 -8 3 -32 -10 -53
-28 -22 -19 -59 -46 -82 -61 -29 -18 -43 -33 -43 -48 0 -26 -37 -68 -60 -68
-16 0 -100 116 -100 137 0 5 25 15 57 23 62 17 85 39 67 68 -6 9 -23 18 -37
20 -21 3 -31 -6 -59 -47 -18 -28 -38 -51 -45 -51 -15 0 -68 45 -93 80 l-20 28
21 26 c13 16 30 26 46 26 17 0 49 20 92 57 36 31 67 58 69 59 1 1 5 12 7 25 5
29 49 69 74 69 10 0 35 -18 54 -39z m-3927 -24 c11 -12 32 -40 46 -62 35 -56
117 -135 140 -135 30 0 78 -29 78 -47 0 -25 -80 -103 -106 -103 -22 0 -42 19
-63 62 -8 15 -32 40 -55 55 -23 15 -54 38 -69 50 -16 13 -35 23 -44 23 -22 0
-73 39 -73 56 0 18 98 124 114 124 6 0 20 -10 32 -23z m-140 -238 c19 -11 43
-32 54 -47 20 -25 60 -45 128 -62 43 -11 82 -37 82 -55 0 -24 -49 -95 -64 -95
-26 0 -66 19 -94 45 -29 27 -51 32 -70 13 -32 -32 2 -68 80 -82 48 -9 55 -30
22 -69 -15 -18 -33 -47 -41 -65 -12 -29 -16 -31 -36 -21 -25 14 -50 45 -57 73
-3 11 -15 23 -25 26 -11 3 -45 21 -75 41 -30 20 -72 39 -94 42 -68 11 -113 57
-68 71 9 4 42 45 72 92 60 94 60 94 104 105 46 11 46 11 82 -12z m4354 -95 c0
-6 6 -17 14 -23 8 -7 17 -24 21 -38 8 -35 -25 -62 -76 -63 -20 0 -42 -7 -49
-15 -7 -8 -16 -15 -21 -15 -4 0 -35 -16 -68 -36 -40 -24 -61 -43 -61 -55 0
-18 -46 -49 -72 -49 -7 1 -30 28 -51 62 l-38 61 28 23 c17 15 42 23 64 24 20
0 42 7 49 15 7 8 18 15 24 15 7 0 46 33 87 73 41 41 81 76 89 79 15 5 59 -37
60 -58z m104 -207 c32 -18 44 -34 67 -92 16 -38 29 -79 29 -90 0 -36 -34 -87
-67 -100 -29 -12 -34 -11 -57 10 -31 29 -34 70 -6 85 26 14 26 52 0 75 -18 17
-22 16 -106 -26 -47 -24 -88 -50 -91 -57 -9 -22 15 -62 36 -62 11 0 23 9 26
20 13 42 95 52 95 12 0 -10 7 -27 15 -38 23 -31 18 -43 -32 -67 -27 -13 -58
-29 -70 -37 -18 -12 -28 -12 -63 0 -42 14 -61 34 -98 108 -41 79 -21 170 41
187 12 4 36 13 52 20 17 8 37 16 45 20 8 3 33 16 55 29 51 30 80 31 129 3z
m-4654 -52 c7 -8 20 -15 29 -15 9 0 32 -13 51 -29 19 -15 52 -34 73 -42 36
-13 77 -60 77 -88 0 -7 -17 -48 -37 -90 -37 -79 -71 -111 -114 -111 -29 0
-140 39 -169 60 -14 10 -42 25 -63 34 -29 12 -43 26 -57 60 l-20 44 30 57 c16
31 30 65 30 75 0 10 12 28 28 39 34 25 123 29 142 6z m-334 -150 c16 -34 16
-36 -2 -50 -18 -13 -18 -14 7 -23 20 -8 28 -20 33 -52 5 -31 12 -43 31 -50 28
-11 33 -35 9 -44 -9 -3 -32 -6 -52 -6 -83 -1 -182 -156 -151 -237 16 -42 10
-73 -25 -126 -18 -29 -37 -65 -40 -81 -7 -28 -8 -29 -63 -22 -72 8 -82 15
-123 75 -29 43 -40 51 -66 51 -18 0 -38 8 -49 20 -10 11 -22 20 -28 20 -17 0
-57 45 -57 64 0 16 -5 18 -42 12 -40 -5 -41 -5 -24 9 11 8 18 16 15 18 -2 1
-26 13 -52 26 -29 14 -52 33 -57 47 -5 13 -14 24 -20 24 -6 0 -18 7 -26 15 -9
8 -26 15 -40 15 -14 0 -27 7 -31 15 -3 9 -20 23 -37 32 -17 9 -36 24 -43 33
-6 9 -39 27 -72 41 -41 16 -61 29 -61 41 0 9 -12 26 -27 37 -66 50 -74 57 -88
69 -8 7 -15 20 -15 29 0 12 7 14 38 8 46 -9 66 -9 442 -7 168 2 319 2 335 2
226 -1 305 1 305 9 0 9 20 17 47 20 7 0 20 -15 29 -34z m6164 0 c91 -4 175 -7
187 -7 14 0 20 -5 16 -14 -3 -8 -9 -14 -15 -14 -5 0 -51 -43 -103 -95 -58 -59
-101 -95 -114 -95 -26 0 -89 -43 -119 -81 -13 -16 -31 -29 -41 -29 -9 0 -24
-9 -34 -20 -9 -11 -22 -20 -29 -20 -22 -1 -71 -47 -59 -54 25 -16 8 -25 -39
-19 -45 5 -50 4 -50 -14 0 -27 -73 -91 -114 -99 -37 -6 -60 -26 -70 -60 -3
-11 -21 -28 -39 -37 -17 -10 -44 -25 -58 -35 -66 -44 -84 -57 -90 -65 -9 -12
-67 31 -75 55 -3 10 -12 18 -20 18 -8 0 -19 11 -24 24 -5 13 -18 27 -29 31
-12 3 -21 15 -21 26 0 21 120 149 140 149 10 0 10 3 0 15 -7 8 -10 24 -7 35 3
11 -3 30 -14 44 -10 13 -19 36 -19 49 0 14 -4 29 -10 32 -5 3 -10 19 -10 34 0
16 -11 45 -25 65 -14 20 -25 44 -25 53 0 10 -14 31 -30 48 -27 28 -30 35 -20
60 10 26 14 27 53 22 23 -3 50 -2 59 1 20 8 608 5 848 -3z m-977 -184 c4 -29
12 -61 17 -71 14 -26 -1 -33 -79 -34 l-66 -1 0 -34 c0 -50 27 -63 62 -29 15
15 40 31 55 37 24 9 30 7 44 -14 19 -29 33 -86 34 -132 l0 -33 -87 2 c-65 1
-97 -3 -120 -15 -18 -10 -40 -17 -49 -17 -9 0 -32 -13 -51 -30 -33 -30 -76
-39 -88 -20 -9 15 -35 118 -35 140 0 23 31 34 75 26 48 -9 85 2 85 26 0 58
-49 76 -90 33 -17 -18 -34 -25 -62 -25 -34 0 -38 3 -38 25 0 13 -8 40 -17 60
-23 48 -9 60 70 60 88 1 195 32 215 63 9 14 30 33 46 43 44 27 69 8 79 -60z
m-4770 -98 c21 -10 27 -19 22 -31 -17 -41 -53 -163 -61 -204 -10 -60 -27 -67
-87 -36 -100 51 -131 60 -212 62 -101 3 -115 9 -115 51 0 19 5 37 10 40 6 3
10 21 10 38 0 18 4 38 9 46 14 22 88 5 128 -29 19 -17 45 -30 61 -30 15 -1 38
-7 52 -15 14 -8 40 -14 58 -15 29 0 32 3 32 28 0 15 -5 33 -10 38 -8 8 -7 20
0 40 19 48 37 51 103 17z m-208 -320 c125 -24 143 -48 124 -167 -14 -93 -19
-100 -71 -127 -32 -16 -45 -18 -76 -10 -20 6 -77 13 -127 17 -95 8 -110 15
-138 70 -14 28 -14 36 -1 79 7 27 14 65 14 86 0 31 5 41 33 58 27 19 41 21 97
16 36 -4 101 -13 145 -22z m4944 -17 c16 -19 -2 -30 -35 -22 -19 5 -24 3 -24
-14 0 -21 -16 -26 -39 -11 -16 10 -6 31 15 31 9 0 22 7 30 15 19 19 38 19 53
1z m70 -15 c7 -5 12 -14 9 -21 -2 -7 -10 -4 -22 9 -19 21 -12 28 13 12z m48
-144 c37 -25 42 -41 45 -154 3 -78 2 -83 -26 -112 -39 -41 -92 -44 -106 -5 -8
20 -14 24 -33 19 -12 -4 -32 -16 -44 -28 -35 -31 -108 -33 -158 -5 l-40 24 -7
84 c-4 47 -5 97 -2 112 8 38 58 78 99 78 28 0 35 -5 44 -30 5 -16 12 -30 14
-30 2 0 20 15 39 34 32 31 42 35 89 35 39 0 63 -7 86 -22z m-5220 -227 c3 -16
9 -30 12 -30 4 0 20 14 36 30 26 27 35 30 89 30 51 0 66 -5 94 -28 31 -26 32
-30 36 -113 3 -72 1 -92 -14 -117 -40 -66 -104 -80 -128 -29 -16 34 -25 34
-52 0 -18 -24 -31 -28 -85 -33 -68 -6 -84 1 -118 50 -13 19 -17 46 -17 113 0
80 2 92 26 123 23 30 32 34 70 34 41 0 45 -2 51 -30z m5343 -105 c0 -8 -7 -15
-15 -15 -8 0 -15 7 -15 15 0 8 7 15 15 15 8 0 15 -7 15 -15z m-220 -42 c77 -5
92 -9 112 -30 21 -23 23 -32 20 -121 -3 -94 -4 -98 -35 -130 -29 -30 -36 -33
-87 -30 l-55 3 -3 43 c-4 52 9 70 51 74 28 3 32 7 35 35 4 38 0 39 -121 47
-60 3 -80 1 -92 -10 -21 -21 -19 -26 20 -61 37 -33 41 -46 25 -87 -11 -30 -42
-34 -95 -12 -56 24 -68 52 -59 148 3 46 11 91 16 101 15 30 68 47 126 42 29
-3 93 -8 142 -12z m-5286 -202 c3 -5 -1 -11 -9 -15 -9 -3 -15 0 -15 9 0 16 16
20 24 6z m122 -31 c18 -7 30 -7 40 1 17 14 34 3 34 -22 0 -16 6 -19 28 -17 19
2 27 -2 27 -12 0 -17 -48 -16 -53 0 -5 15 -21 12 -49 -10 -19 -15 -29 -17 -39
-9 -18 15 -63 -19 -64 -48 0 -33 -19 -38 -30 -8 -6 15 -16 25 -23 22 -9 -3
-12 7 -10 36 3 48 7 54 58 66 54 12 50 12 81 1z m192 -28 c3 -9 -2 -13 -14
-10 -9 1 -19 9 -22 16 -3 9 2 13 14 10 9 -1 19 -9 22 -16z m4719 -74 c15 -7
41 -23 56 -35 16 -13 43 -23 60 -23 18 -1 43 -7 57 -15 28 -16 81 -20 96 -7
13 12 94 -6 94 -21 -1 -7 -9 -30 -20 -52 -11 -22 -19 -52 -20 -66 0 -14 -3
-28 -6 -31 -7 -8 -70 18 -104 44 -23 16 -31 18 -49 8 -17 -9 -21 -19 -19 -43
l3 -32 68 3 c64 3 67 2 77 -22 9 -26 -11 -114 -33 -144 -13 -17 -43 -7 -89 29
-48 38 -164 70 -227 62 -35 -4 -51 -1 -63 11 -16 16 -15 31 10 121 12 44 52
46 98 6 42 -37 59 -39 80 -6 31 47 17 59 -71 65 -88 6 -84 0 -67 82 8 41 26
78 38 78 2 0 16 -5 31 -12z m-4606 -17 c43 -26 53 -45 74 -135 18 -77 18 -80
-1 -114 -23 -43 -29 -46 -124 -67 -41 -10 -95 -24 -119 -32 -51 -17 -79 -12
-120 23 -24 20 -31 34 -31 60 0 19 -7 51 -15 71 -8 19 -15 46 -15 58 0 12 7
28 15 35 8 7 15 18 15 25 0 17 43 37 86 39 34 1 38 -2 51 -39 17 -49 12 -63
-27 -77 -25 -8 -31 -15 -28 -36 5 -43 28 -48 105 -24 37 12 79 23 93 24 20 3
25 8 25 33 0 26 -4 30 -41 37 -36 8 -43 14 -57 50 -19 47 -17 54 26 72 43 19
52 19 88 -3z m146 -361 c13 -24 27 -48 33 -54 20 -20 9 -42 -30 -60 -31 -14
-44 -15 -55 -6 -10 9 -22 6 -52 -13 -21 -14 -53 -28 -70 -32 -18 -4 -54 -24
-80 -46 -53 -44 -103 -53 -103 -20 0 10 -11 39 -25 62 -45 79 -32 99 64 99 56
0 191 45 213 71 9 10 21 19 26 19 5 0 15 7 22 15 19 23 32 14 57 -35z m4437
-45 c30 -14 59 -25 64 -25 20 0 99 -40 113 -57 26 -31 39 -73 32 -101 -3 -14
-22 -57 -40 -95 -27 -54 -41 -71 -68 -83 -48 -20 -63 -18 -102 12 -39 30 -146
84 -166 84 -22 0 -57 45 -63 81 -3 23 1 47 15 74 12 21 21 47 21 56 0 27 38
67 68 72 57 9 73 6 126 -18z m-4333 -168 c11 -21 17 -42 14 -47 -8 -12 -71
-42 -105 -50 -18 -4 -26 -13 -28 -33 -6 -54 38 -75 70 -34 10 12 25 32 35 44
10 13 29 24 42 25 21 3 30 -6 58 -62 18 -36 32 -68 33 -72 0 -10 -67 -38 -92
-38 -10 0 -36 -9 -56 -19 -20 -11 -54 -28 -76 -38 -21 -10 -43 -28 -49 -40 -5
-13 -25 -32 -44 -43 l-33 -19 -31 42 c-17 23 -48 72 -70 109 -35 59 -39 72
-33 109 6 33 15 47 47 70 23 17 53 29 70 29 20 0 39 10 59 30 15 17 35 30 42
30 8 0 18 9 21 20 4 11 23 29 43 39 42 20 47 17 83 -52z m4147 -157 c18 -16
35 -30 38 -30 2 0 40 -23 83 -51 74 -47 79 -53 84 -92 5 -36 0 -50 -41 -119
-45 -75 -48 -78 -98 -89 l-52 -12 -98 71 c-127 92 -129 93 -142 119 -21 38
-13 71 30 136 64 96 66 97 117 97 38 0 53 -6 79 -30z m-3983 -118 c6 -4 35
-41 67 -82 31 -41 68 -86 82 -99 14 -14 26 -30 26 -37 0 -20 -55 -54 -88 -54
-16 0 -35 -7 -42 -15 -16 -20 -98 -75 -111 -75 -5 0 -9 -13 -9 -28 0 -20 -11
-38 -36 -60 -20 -18 -38 -32 -41 -32 -10 0 -42 45 -43 60 0 8 -34 51 -75 95
-41 44 -75 85 -75 92 0 19 76 74 94 67 18 -7 56 -64 56 -84 0 -8 7 -22 17 -32
41 -46 69 5 29 53 -33 39 -33 51 5 88 40 40 55 39 74 -6 24 -57 32 -64 61 -51
40 18 29 57 -24 87 -24 13 -48 34 -54 47 -10 21 -8 27 12 42 42 30 60 35 75
24z m3717 -129 c9 -10 19 -29 23 -43 14 -49 122 -137 187 -153 15 -4 35 -18
44 -32 15 -23 15 -27 -6 -60 -12 -19 -38 -48 -57 -64 l-36 -30 -39 30 c-26 21
-38 39 -38 56 0 19 -17 42 -62 84 -33 33 -66 59 -71 59 -19 0 -47 -33 -47 -54
0 -32 -28 -66 -55 -66 -27 0 -75 52 -75 81 0 10 11 26 25 35 14 9 55 52 91 95
67 81 89 92 116 62z m-3382 -305 c14 -12 33 -21 43 -20 10 2 17 -3 17 -14 0
-11 -6 -15 -19 -11 -12 3 -27 -4 -39 -17 -32 -34 -65 -56 -85 -56 -14 0 -17
-5 -13 -16 8 -21 -11 -44 -35 -44 -13 0 -19 -7 -19 -21 0 -16 -4 -19 -20 -14
-18 6 -20 2 -21 -42 -2 -69 1 -86 17 -104 8 -8 14 -29 14 -45 0 -60 49 -94 82
-56 24 28 59 103 53 113 -4 5 -31 21 -61 36 -51 25 -55 29 -52 57 3 34 1 34
92 16 54 -11 61 -10 73 6 7 10 13 37 13 60 0 44 19 74 46 74 10 0 14 -13 14
-47 0 -27 6 -59 13 -73 14 -27 19 -27 119 -14 41 5 47 4 53 -16 9 -29 -9 -46
-71 -68 -64 -23 -68 -49 -20 -122 20 -30 38 -59 40 -65 8 -16 45 34 56 75 6
22 21 52 34 67 13 15 26 39 29 53 14 52 21 55 71 31 54 -25 65 -44 42 -70 -9
-10 -16 -27 -16 -38 0 -35 -30 -107 -56 -134 -22 -23 -23 -27 -9 -39 15 -12
15 -14 1 -22 -9 -5 -16 -15 -16 -23 0 -8 -7 -18 -15 -23 -24 -13 -9 -92 16
-92 11 0 19 -7 19 -17 0 -9 7 -25 17 -35 19 -21 6 -23 -33 -6 -23 11 -28 10
-41 -7 -7 -11 -12 -28 -10 -37 3 -11 -3 -20 -17 -24 -11 -4 -38 -20 -58 -36
-25 -19 -44 -27 -56 -23 -24 7 -128 -77 -136 -110 -6 -22 -31 -35 -73 -35 -12
0 -36 -14 -55 -31 -58 -54 -63 -57 -90 -64 -26 -7 -33 -12 -88 -72 -17 -18
-40 -33 -51 -33 -13 0 -23 -8 -26 -21 -4 -13 -11 -18 -21 -14 -8 3 -21 -3 -29
-15 -8 -11 -21 -20 -29 -20 -17 0 -19 -17 -1 -23 6 -2 -7 -7 -29 -11 -28 -5
-52 -18 -75 -42 -19 -20 -49 -42 -66 -49 -22 -9 -33 -21 -33 -34 0 -12 -7 -21
-15 -21 -9 0 -19 -8 -22 -17 -10 -26 -24 -33 -43 -20 -16 9 -51 -1 -103 -30
-17 -10 -19 30 -2 43 14 11 18 29 19 98 1 82 2 86 34 118 26 28 32 42 32 77 0
26 7 54 19 69 10 15 21 45 24 67 4 22 20 67 37 101 16 34 30 76 30 93 0 17 5
31 10 31 15 0 32 49 31 88 -1 38 19 102 60 189 16 34 29 69 29 76 0 8 7 20 15
27 11 9 12 17 4 31 -12 24 -1 116 19 146 22 35 13 158 -13 177 -20 15 -20 15
0 16 11 0 40 21 65 45 25 25 56 57 70 70 14 14 34 25 44 25 11 0 34 13 51 29
16 16 43 33 60 38 26 9 36 5 80 -28 27 -21 61 -48 75 -61z m3042 -10 c3 -8 19
-12 42 -10 20 2 43 -2 51 -8 8 -6 18 -9 23 -6 5 3 24 -1 41 -10 35 -17 71 -13
95 11 8 8 22 15 31 15 20 0 32 -30 15 -40 -7 -5 1 -10 23 -14 19 -3 42 -15 52
-26 10 -11 25 -20 33 -20 7 0 26 -9 41 -19 24 -17 27 -25 22 -58 -8 -58 -2
-196 9 -207 6 -6 10 -34 10 -62 0 -29 5 -56 11 -59 6 -4 9 -28 7 -54 -3 -43
-2 -46 22 -46 21 0 25 -6 28 -35 2 -19 8 -39 13 -44 5 -6 9 -28 9 -50 1 -38 2
-40 15 -22 16 21 16 21 34 -56 6 -26 11 -62 11 -80 0 -36 19 -98 37 -119 19
-24 25 -59 13 -74 -7 -9 -8 -15 0 -20 5 -3 10 -22 10 -42 0 -29 2 -33 14 -24
22 18 36 -14 23 -49 -8 -22 -7 -32 9 -53 21 -29 31 -33 37 -14 2 6 2 0 0 -15
-3 -15 3 -43 12 -62 10 -20 14 -43 11 -53 -4 -10 3 -27 21 -45 26 -27 27 -30
11 -42 -22 -16 -23 -26 -3 -26 8 0 15 -4 15 -9 0 -16 -21 -24 -32 -13 -6 6
-25 8 -44 5 -29 -5 -35 -2 -43 18 -5 14 -24 30 -45 39 -20 7 -36 18 -36 24 0
17 -32 46 -51 46 -10 0 -27 14 -39 30 -12 17 -28 30 -36 30 -8 0 -17 7 -20 15
-3 8 -25 23 -48 35 -23 11 -58 34 -76 50 -20 18 -45 30 -61 30 -18 0 -30 6
-34 19 -7 24 -110 101 -135 101 -10 0 -25 9 -33 20 -7 10 -24 25 -38 32 -47
25 -108 73 -112 89 -3 10 -20 19 -44 22 -28 5 -42 13 -46 26 -2 11 -15 21 -28
23 -13 1 -28 13 -34 25 -5 13 -22 24 -41 28 -18 3 -35 12 -38 20 -3 8 -26 20
-52 28 -56 16 -66 33 -30 47 18 7 26 17 26 34 0 13 7 26 15 30 11 4 14 13 9
31 -5 19 -2 25 10 25 9 0 16 7 16 16 0 12 -6 15 -26 10 -25 -7 -26 -6 -21 24
8 36 -34 157 -62 180 -24 20 -66 98 -58 106 4 4 13 1 22 -6 16 -13 20 -8 27
35 2 15 11 20 33 20 19 0 33 -7 40 -20 6 -11 21 -36 33 -55 12 -19 22 -51 22
-71 0 -20 7 -42 15 -49 8 -7 15 -18 15 -24 0 -6 11 -24 24 -40 23 -29 25 -30
132 -32 60 -2 120 -3 132 -3 52 -2 57 31 10 59 -18 11 -46 35 -61 55 -15 19
-33 35 -40 35 -7 0 -34 -20 -61 -46 -32 -30 -55 -44 -70 -42 -25 4 -33 39 -14
59 22 23 48 67 48 82 0 7 -27 26 -60 42 -53 25 -60 32 -60 58 0 33 -8 32 121
11 42 -7 48 1 58 86 8 69 29 78 54 22 9 -21 17 -50 17 -63 0 -49 12 -55 82
-40 93 20 93 20 93 -14 0 -27 -6 -33 -62 -60 -72 -34 -79 -54 -38 -103 14 -17
25 -35 25 -41 0 -7 7 -14 16 -18 11 -4 14 -13 10 -29 -9 -33 6 -30 33 7 14 19
21 40 18 55 -2 13 0 24 4 24 5 0 9 7 9 17 0 9 11 40 25 69 29 62 26 94 -14
137 -33 35 -91 61 -105 47 -17 -17 -29 -11 -23 11 4 14 -2 29 -18 45 -14 14
-29 33 -35 44 -6 11 -17 20 -25 20 -8 0 -15 7 -15 15 0 18 17 20 22 3z m-2448
-393 c27 -8 54 -18 60 -23 6 -4 37 -16 69 -27 31 -10 57 -21 57 -23 0 -3 -8
-22 -17 -43 -13 -30 -22 -39 -47 -41 -27 -3 -31 -8 -39 -45 -9 -47 -21 -52
-85 -34 -31 9 -33 8 -30 -12 3 -19 10 -22 49 -25 53 -3 92 -33 71 -54 -7 -7
-12 -22 -12 -35 0 -25 -10 -28 -38 -14 -9 5 -37 17 -62 26 -25 10 -58 23 -75
30 -16 7 -39 15 -50 17 -29 5 -21 47 15 79 17 14 30 32 30 40 0 8 7 23 15 33
10 13 15 43 15 87 0 45 4 69 13 72 6 3 12 6 12 6 0 0 22 -6 49 -14z m1969 -33
c15 -14 27 -33 27 -41 0 -22 31 -103 47 -122 7 -8 13 -26 13 -40 -1 -46 -42
-79 -138 -109 -55 -17 -87 -1 -113 55 -36 81 -60 130 -71 147 -15 21 17 86 47
98 43 18 51 21 75 35 33 19 77 10 113 -23z m-299 -74 c3 -13 7 -34 9 -48 20
-107 39 -144 91 -175 16 -9 26 -68 14 -81 -6 -5 -100 -24 -138 -27 -35 -3 -51
44 -25 73 17 19 18 26 7 66 -8 28 -24 55 -42 71 -17 13 -30 30 -30 37 0 20 39
94 52 99 32 13 58 7 62 -15z m-1358 -3 c10 -8 30 -15 43 -15 14 0 37 -15 58
-37 l34 -38 18 24 c14 19 24 22 47 18 104 -21 134 -26 175 -26 53 -1 63 -14
53 -68 -6 -33 -7 -34 -53 -31 l-46 3 -9 -54 c-6 -37 -5 -68 3 -100 19 -74 10
-84 -63 -76 -33 4 -67 12 -73 17 -18 15 -16 46 6 82 10 17 21 59 24 94 5 61 5
62 -20 62 -13 0 -33 5 -44 10 -13 8 -32 7 -62 -1 -55 -16 -54 -14 -23 -41 25
-21 26 -27 20 -68 -9 -55 -54 -100 -99 -100 -48 1 -133 33 -151 58 -9 13 -14
37 -12 60 3 35 5 37 42 42 l38 5 -26 28 c-31 34 -31 33 -6 81 40 80 83 104
126 71z m1185 -68 c9 -12 19 -35 22 -52 4 -16 17 -60 29 -98 21 -63 22 -69 6
-95 -25 -42 -69 -63 -137 -65 -79 -2 -106 21 -114 96 -3 29 -11 77 -18 108
-12 53 -11 58 9 87 25 34 40 39 127 40 51 1 62 -2 76 -21z m-594 2 c7 -7 9
-33 6 -69 -5 -49 -2 -63 16 -89 25 -35 24 -59 -2 -75 -15 -9 -24 -5 -50 25
-18 19 -44 41 -59 47 -35 15 -35 20 2 70 17 23 30 50 30 60 0 34 35 53 57 31z
m316 -34 c38 -36 37 -89 -3 -148 -38 -57 -38 -65 2 -69 24 -2 36 -10 45 -30
23 -46 10 -56 -85 -61 -48 -3 -98 -8 -112 -11 -31 -8 -47 2 -55 34 -5 21 4 38
46 90 28 36 64 76 80 88 28 24 30 52 3 52 -7 0 -25 -11 -40 -25 -18 -16 -39
-25 -60 -25 -33 0 -34 1 -34 39 0 33 6 44 33 65 26 21 43 26 92 26 51 0 65 -4
88 -25z m-368 -265 l0 -55 -48 -3 c-58 -4 -77 9 -77 54 0 47 23 66 79 62 l46
-3 0 -55z m103 -98 c-2 -8 -10 -20 -20 -25 -23 -15 -51 8 -38 33 12 22 63 15
58 -8z"/>
<path d="M4595 6730 c-3 -5 -9 -57 -12 -114 l-6 -105 27 -7 c15 -3 30 -3 34 1
4 3 12 48 18 98 9 76 9 96 -3 115 -14 23 -47 30 -58 12z"/>
<path d="M4155 6620 c-7 -23 1 -40 20 -40 8 0 17 5 20 10 9 15 -4 50 -20 50
-8 0 -16 -9 -20 -20z"/>
<path d="M3321 6381 c-9 -6 -11 -18 -7 -36 5 -21 12 -26 34 -23 19 2 27 9 27
22 0 24 -35 48 -54 37z"/>
<path d="M4460 6184 c-14 -36 -12 -144 3 -174 18 -36 45 -37 58 -3 10 27 -2
170 -16 194 -11 18 -36 9 -45 -17z"/>
<path d="M4295 5969 c-22 -4 -60 -8 -83 -8 -43 -1 -148 -23 -207 -43 -16 -6
-51 -13 -76 -17 -26 -4 -74 -24 -108 -44 -34 -20 -74 -40 -89 -44 -53 -12
-112 -42 -112 -56 0 -14 72 -80 118 -108 12 -8 40 -41 61 -74 22 -33 71 -94
111 -135 39 -41 80 -92 91 -112 19 -37 33 -46 43 -30 5 8 -13 424 -19 430 -9
10 -45 -21 -45 -39 0 -28 -38 -99 -53 -99 -28 0 -101 103 -92 130 9 29 54 60
85 60 15 0 44 7 65 15 43 19 65 8 65 -31 0 -13 6 -24 13 -24 7 0 19 -17 26
-37 7 -21 26 -57 42 -80 16 -23 29 -47 29 -55 1 -7 12 -31 25 -53 13 -22 41
-75 62 -117 21 -43 41 -77 45 -78 4 0 15 17 24 38 15 36 21 66 44 236 6 44 13
83 16 88 3 4 11 48 19 98 9 49 22 109 30 132 8 24 15 49 15 56 0 14 -80 15
-145 1z m-15 -124 c0 -8 -4 -15 -9 -15 -13 0 2 -63 16 -67 7 -3 15 8 19 24 3
15 7 33 9 38 1 6 6 -11 10 -37 9 -60 2 -78 -29 -78 -24 0 -36 -16 -36 -51 0
-10 -6 -19 -14 -19 -8 0 -22 -3 -32 -7 -14 -5 -16 -2 -12 21 4 21 0 30 -23 43
-16 10 -36 32 -44 50 -9 18 -19 35 -24 38 -5 3 4 19 20 36 27 29 34 31 74 26
25 -2 48 -1 51 4 8 14 24 10 24 -6z"/>
<path d="M4543 5959 c64 -247 83 -351 94 -502 8 -128 39 -129 102 -4 18 34 36
69 41 77 5 8 30 59 56 113 27 56 52 97 61 97 8 0 25 12 38 26 21 22 31 26 61
21 20 -3 44 -13 54 -22 9 -8 26 -15 37 -15 43 0 66 -65 34 -94 -12 -11 -21
-27 -21 -36 0 -17 -39 -60 -54 -60 -22 0 -55 53 -63 102 -7 43 -12 53 -28 53
-26 0 -32 -31 -34 -175 -1 -63 -6 -146 -11 -185 -10 -77 1 -119 25 -94 7 8 24
33 37 56 30 54 61 93 142 176 36 37 66 73 66 78 0 19 78 100 127 132 26 17 49
32 51 33 11 8 -23 45 -46 50 -15 4 -73 29 -130 56 -57 27 -117 51 -135 55 -18
3 -44 12 -59 19 -15 8 -40 14 -57 14 -16 0 -42 5 -58 11 -26 11 -77 17 -262
35 l-74 7 6 -24z m293 -134 c16 -8 39 -15 52 -15 35 0 26 -27 -18 -55 -22 -14
-44 -25 -50 -25 -6 0 -18 -16 -26 -35 -16 -40 -30 -45 -39 -14 -5 16 -10 18
-21 8 -20 -16 -40 3 -48 46 -9 48 12 91 43 87 12 -1 30 2 39 8 23 13 35 12 68
-5z"/>
<path d="M5485 5927 c-45 -46 -85 -124 -85 -163 0 -19 4 -34 9 -34 14 0 92 91
103 120 6 14 15 35 20 46 11 25 8 56 -7 60 -5 2 -24 -11 -40 -29z"/>
<path d="M3440 5926 c0 -53 78 -186 109 -186 29 0 43 24 31 51 -21 49 -113
159 -132 159 -4 0 -8 -11 -8 -24z"/>
<path d="M3430 5660 c-75 -54 -202 -164 -310 -270 -20 -19 -52 -60 -72 -90
-20 -30 -57 -79 -82 -108 -54 -63 -58 -82 -16 -82 38 0 132 -25 162 -43 13 -7
43 -19 68 -26 25 -7 60 -19 78 -27 18 -8 39 -14 47 -14 16 0 65 -20 148 -61
32 -16 60 -29 63 -29 16 0 -2 50 -36 95 -22 30 -40 58 -40 63 0 33 -143 212
-169 212 -5 0 -15 -7 -22 -16 -11 -14 -11 -18 4 -29 9 -7 17 -22 17 -33 0 -12
7 -25 15 -29 9 -5 12 -17 8 -31 -4 -18 -12 -22 -49 -22 -29 0 -49 6 -61 18
-10 11 -26 22 -36 25 -9 4 -22 17 -28 31 -10 22 -6 28 42 76 45 43 57 50 71
41 13 -8 32 -8 64 -1 43 10 47 9 87 -23 55 -43 121 -85 154 -98 15 -5 66 -35
114 -65 128 -81 143 -61 56 73 -15 24 -27 48 -27 55 -1 7 -12 45 -26 83 -14
39 -29 84 -33 100 -4 17 -13 40 -19 52 -7 12 -12 31 -12 42 0 20 -19 69 -46
123 -8 14 -14 36 -14 47 0 12 -3 21 -8 21 -4 0 -45 -27 -92 -60z m88 -185 c1
-22 7 -50 13 -61 8 -14 8 -28 2 -39 -13 -22 5 -63 30 -71 21 -7 17 -28 -6 -32
-10 -2 -17 3 -17 12 0 9 -6 16 -14 16 -7 0 -25 9 -38 20 -21 16 -35 18 -76 13
-40 -4 -58 -2 -78 12 -26 17 -27 17 -45 -6 -15 -20 -20 -22 -31 -11 -11 11 -5
21 35 56 28 26 47 52 47 65 0 16 6 21 25 21 14 0 25 5 25 11 0 23 35 38 80 36
45 -3 45 -3 48 -42z"/>
<path d="M3360 5370 c0 -5 6 -10 14 -10 8 0 18 5 21 10 3 6 -3 10 -14 10 -12
0 -21 -4 -21 -10z"/>
<path d="M5435 5680 c-8 -16 -15 -39 -15 -51 0 -25 -27 -112 -46 -151 -8 -14
-14 -34 -14 -45 0 -10 -7 -27 -15 -37 -8 -11 -15 -34 -15 -52 0 -18 -4 -35 -9
-39 -5 -3 -12 -19 -16 -35 -4 -17 -10 -30 -15 -30 -5 0 -12 -10 -16 -22 -3
-13 -12 -30 -19 -38 -25 -31 -27 -90 -3 -90 6 0 49 26 97 58 47 33 104 67 126
77 22 10 58 33 80 50 22 18 50 37 63 44 12 6 22 18 22 25 0 8 9 16 21 19 15 4
23 0 26 -14 5 -19 11 -22 52 -23 13 -1 29 -10 35 -21 6 -11 26 -39 44 -64 17
-24 32 -52 32 -62 0 -26 -53 -60 -92 -58 -18 1 -41 -2 -50 -6 -13 -5 -19 -1
-23 17 -9 36 -10 141 -1 166 6 17 5 22 -7 22 -10 0 -13 -6 -10 -19 3 -12 -7
-31 -31 -55 -19 -20 -52 -65 -72 -99 -47 -78 -127 -187 -136 -187 -5 0 -8 -11
-8 -25 0 -25 17 -33 36 -17 5 4 36 18 69 31 33 12 69 27 80 33 11 7 36 15 55
19 53 12 145 45 174 64 13 9 63 25 111 34 47 10 88 21 91 24 3 3 0 15 -6 28
-14 26 -121 174 -147 204 -22 25 -185 178 -234 219 -51 44 -180 136 -190 136
-5 0 -15 -13 -24 -30z m172 -214 c26 -24 57 -45 68 -47 30 -6 25 -34 -5 -33
-14 1 -29 -5 -35 -12 -13 -18 -75 -30 -75 -15 0 7 -11 4 -27 -8 -51 -36 -67
-35 -86 4 -19 40 -22 65 -7 65 6 0 18 16 27 35 17 35 43 48 43 20 0 -8 7 -15
16 -15 11 0 14 5 10 16 -7 17 0 34 14 34 4 0 30 -20 57 -44z"/>
<path d="M4460 5260 c-8 -5 -40 -12 -70 -15 -61 -7 -147 -30 -198 -51 -18 -8
-40 -14 -48 -14 -26 0 -178 -77 -235 -119 -53 -40 -150 -125 -215 -189 -32
-32 -47 -54 -77 -117 -8 -16 -33 -55 -56 -85 -23 -30 -49 -77 -57 -105 -62
-199 -58 -178 -59 -395 0 -204 7 -258 45 -345 5 -11 14 -38 20 -61 5 -23 26
-62 45 -87 19 -25 35 -49 35 -53 0 -10 73 -118 83 -122 4 -2 7 -9 7 -17 0 -7
19 -29 43 -48 23 -20 65 -56 92 -82 28 -25 75 -59 105 -74 30 -16 64 -38 74
-50 20 -22 98 -61 121 -61 8 0 26 -6 42 -14 48 -24 96 -39 138 -43 35 -4 44 0
71 29 64 67 49 130 -33 143 -85 13 -109 46 -91 128 15 73 7 129 -20 143 -13 6
-29 17 -35 23 -6 6 -18 11 -27 11 -8 1 -26 10 -39 21 -29 24 -34 81 -9 101 26
22 68 84 68 101 0 10 -8 17 -20 17 -32 0 -80 29 -89 53 -11 27 -3 74 15 102
33 47 11 68 -60 59 -84 -12 -166 50 -166 123 0 34 114 242 195 356 19 27 63
71 98 98 35 27 69 59 75 71 6 13 13 77 15 143 3 114 5 123 37 183 33 61 106
135 175 177 39 24 75 56 75 67 0 11 -51 10 -70 -2z m-297 -215 c7 -19 6 -34
-2 -47 -15 -25 -14 -39 6 -53 14 -10 15 -17 5 -41 -6 -16 -14 -56 -17 -89 -9
-87 -10 -89 -65 -124 -30 -20 -56 -46 -64 -64 -7 -18 -23 -41 -35 -51 -11 -11
-21 -25 -21 -33 0 -7 -7 -16 -15 -19 -8 -3 -17 -15 -21 -26 -3 -10 -25 -47
-48 -81 -50 -72 -111 -244 -102 -282 4 -14 17 -41 31 -61 14 -20 25 -40 25
-45 0 -4 15 -11 34 -14 41 -8 96 -64 96 -98 0 -14 11 -38 24 -54 26 -31 33
-59 44 -178 9 -89 19 -114 58 -144 20 -16 28 -33 32 -68 3 -27 12 -53 20 -59
11 -8 13 -20 9 -43 -9 -43 7 -81 31 -74 21 5 35 -16 23 -35 -4 -7 -21 -15 -39
-18 -27 -6 -33 -3 -41 18 -7 19 -19 27 -50 32 -27 4 -42 12 -46 26 -5 15 -12
18 -35 13 -35 -6 -74 21 -99 69 -10 21 -28 36 -51 43 -19 7 -40 22 -47 36 -15
30 -47 70 -95 118 -21 21 -38 46 -38 56 0 18 -51 89 -83 116 -15 12 -18 24
-15 50 3 19 -1 54 -8 79 -8 25 -14 60 -14 78 0 18 -7 56 -16 83 -15 46 -15 51
1 68 13 15 14 24 6 40 -6 11 -11 32 -11 46 0 14 -4 35 -10 45 -11 20 -3 53 10
45 13 -8 40 72 40 116 0 22 7 53 15 70 9 16 20 53 25 82 7 32 18 58 31 67 13
10 18 22 13 33 -5 13 1 20 24 28 17 6 40 25 52 42 75 116 197 245 240 253 16
4 44 24 64 45 31 35 39 39 77 36 37 -3 44 -7 52 -32z"/>
<path d="M6182 5181 c-84 -39 -111 -62 -112 -93 0 -32 45 -20 136 36 91 55
106 72 83 87 -19 12 -14 13 -107 -30z"/>
<path d="M2694 5196 c-9 -23 9 -40 82 -81 64 -35 107 -44 119 -25 14 23 -94
98 -167 115 -21 5 -29 3 -34 -9z"/>
<path d="M2844 4995 c-8 -20 -26 -61 -39 -92 -14 -30 -25 -60 -25 -66 0 -5
-13 -35 -29 -66 -30 -60 -62 -186 -86 -346 -28 -186 -18 -229 45 -191 16 9 44
16 63 16 19 0 54 7 77 15 23 8 59 15 79 15 21 0 46 7 57 15 10 8 32 15 47 15
16 0 37 4 47 10 10 5 57 13 104 16 108 9 112 24 19 65 -38 16 -122 57 -188 90
-66 33 -126 59 -132 59 -18 0 -17 57 1 63 7 3 33 1 57 -4 56 -13 432 -29 442
-20 12 12 -3 40 -26 47 -29 9 -148 101 -237 184 -21 19 -69 60 -106 90 -37 30
-82 70 -100 88 -18 17 -38 32 -44 32 -6 0 -18 -16 -26 -35z m151 -185 c10 -18
23 -30 36 -30 17 0 19 -4 13 -22 -4 -13 -7 -35 -6 -50 1 -25 -3 -28 -34 -28
-19 0 -34 -5 -34 -11 0 -7 -11 -9 -29 -6 -23 5 -35 1 -53 -18 -27 -29 -37 -31
-53 -8 -11 14 -10 22 6 42 10 13 19 34 19 47 0 42 19 73 57 93 51 27 60 26 78
-9z m-124 -294 c11 -14 28 -28 39 -31 36 -11 22 -95 -15 -95 -14 0 -25 -7 -28
-20 -7 -26 -37 -26 -37 0 0 13 -10 24 -25 30 -22 8 -25 15 -25 58 0 50 13 74
35 66 7 -3 16 -1 20 5 9 16 15 14 36 -13z"/>
<path d="M6070 5012 c-26 -28 -167 -152 -201 -178 -18 -13 -46 -38 -63 -56
-42 -44 -108 -96 -170 -134 -28 -16 -51 -37 -51 -45 0 -14 2 -15 250 -5 90 4
235 26 235 37 0 21 -83 59 -132 59 -30 0 -54 31 -44 56 3 8 23 22 43 30 21 9
45 23 55 31 9 8 29 13 45 11 24 -3 33 -14 62 -73 39 -80 84 -232 73 -249 -4
-6 -7 -38 -7 -71 l0 -60 -39 2 c-46 3 -76 21 -95 56 -13 25 -11 29 38 83 28
32 51 61 51 65 0 19 -23 19 -36 1 -7 -11 -26 -23 -41 -27 -16 -3 -35 -12 -43
-20 -17 -14 -131 -75 -142 -75 -4 0 -31 -11 -60 -24 -29 -13 -63 -27 -75 -31
-26 -7 -28 -15 -10 -37 9 -13 35 -18 107 -21 100 -5 204 -26 360 -72 83 -25
130 -27 137 -8 9 22 -25 297 -42 343 -38 104 -74 209 -80 235 -3 16 -18 54
-31 85 -51 112 -64 125 -94 92z"/>
<path d="M4899 4963 c-28 -30 -49 -82 -49 -119 0 -28 -24 -32 -58 -9 -15 11
-40 15 -84 13 l-63 -3 -3 -46 c-3 -42 0 -49 31 -75 19 -16 44 -36 55 -44 12
-8 22 -19 22 -25 -1 -5 -24 -26 -53 -45 -49 -33 -52 -38 -55 -82 -4 -55 7 -64
84 -66 39 -1 58 3 78 19 29 23 46 18 46 -14 1 -58 59 -137 102 -137 22 0 78
94 78 131 0 35 9 42 35 25 12 -8 46 -17 76 -21 49 -6 56 -4 76 17 20 21 21 27
11 62 -7 23 -29 53 -54 75 l-43 38 44 43 c57 56 73 92 55 126 -12 22 -19 24
-79 24 -41 -1 -73 -6 -85 -15 -24 -18 -36 -11 -36 23 0 27 -26 89 -50 117 -19
23 -53 18 -81 -12z m96 -120 c5 -36 3 -43 -17 -57 -27 -19 -57 -20 -80 -2 -22
16 -23 59 -3 80 8 8 15 19 15 25 0 6 9 20 21 32 l21 21 18 -29 c10 -16 21 -48
25 -70z m-220 -43 c22 -11 45 -19 50 -20 6 0 16 -9 23 -21 11 -18 9 -23 -19
-50 -17 -16 -35 -29 -40 -29 -14 0 -109 98 -109 114 0 30 40 32 95 6z m407 -9
c-3 -28 -45 -81 -79 -99 -23 -12 -28 -11 -52 12 -15 14 -33 26 -40 26 -28 0
-1 27 60 58 75 38 115 40 111 3z m-244 -61 c26 0 92 -53 92 -75 0 -24 -65 -73
-102 -77 -34 -4 -37 -2 -48 33 -9 27 -17 35 -30 32 -23 -6 -36 15 -15 24 10 3
29 17 43 30 20 19 23 26 13 32 -8 5 -10 14 -6 21 6 10 10 9 17 -4 5 -9 21 -16
36 -16z m201 -132 c23 -25 41 -53 41 -66 0 -22 -2 -23 -62 -16 -45 5 -69 13
-85 29 l-22 21 31 37 c18 20 38 37 44 37 7 0 31 -19 53 -42z m-324 20 c29 -13
41 -47 26 -76 -14 -27 -119 -42 -151 -22 -12 8 -6 18 35 60 54 55 53 55 90 38z
m163 -98 c27 -25 27 -32 -1 -93 -21 -47 -23 -47 -44 -32 -13 9 -23 24 -23 34
0 10 -7 24 -15 31 -25 21 -19 57 13 68 39 15 46 14 70 -8z"/>
<path d="M4915 4670 c-7 -12 3 -50 14 -50 19 0 44 28 38 44 -7 18 -42 22 -52
6z"/>
<path d="M6327 4213 c-14 -13 -7 -43 12 -53 22 -11 229 -2 237 11 3 5 -10 18
-28 29 -27 16 -50 20 -124 20 -50 0 -94 -3 -97 -7z"/>
<path d="M2470 4198 c-63 -9 -90 -21 -78 -34 4 -3 57 -11 118 -17 100 -9 113
-9 128 6 13 13 14 21 6 35 -13 21 -78 25 -174 10z"/>
<path d="M6255 4124 c-22 -9 -65 -19 -96 -24 -30 -4 -65 -12 -77 -19 -11 -6
-43 -11 -70 -11 -27 0 -66 -7 -85 -15 -20 -8 -60 -15 -89 -16 -85 -1 -193 -23
-195 -40 -2 -9 32 -31 100 -62 56 -27 138 -66 182 -87 44 -21 101 -48 128 -60
26 -11 47 -27 47 -34 0 -8 7 -16 15 -20 22 -8 19 -59 -6 -109 -29 -57 -48 -77
-75 -77 -28 0 -74 53 -74 86 0 24 11 30 70 36 37 4 40 43 4 52 -36 9 -374 25
-391 19 -20 -8 -11 -26 23 -42 16 -8 64 -43 107 -78 43 -35 81 -63 86 -63 4 0
39 -32 77 -71 144 -148 186 -171 200 -110 4 14 10 31 14 36 4 6 18 39 30 75
13 36 38 108 57 160 46 128 50 146 68 287 17 128 17 195 0 199 -5 2 -28 -4
-50 -12z m-92 -138 c27 -35 33 -56 20 -70 -4 -4 -6 -23 -4 -42 3 -40 -20 -74
-51 -74 -10 0 -42 18 -71 40 -76 59 -77 60 -77 75 0 21 113 103 145 105 6 0
22 -16 38 -34z"/>
<path d="M2650 4097 c0 -44 26 -234 44 -327 23 -110 34 -147 61 -186 14 -20
27 -52 31 -72 9 -48 72 -182 88 -188 7 -3 29 10 48 28 19 18 77 73 129 121 99
93 243 208 291 233 16 8 26 19 23 24 -8 13 -253 12 -374 0 -52 -6 -103 -8
-113 -4 -44 14 -3 59 72 79 14 4 59 26 100 49 41 23 95 50 120 59 124 48 172
90 113 102 -15 3 -47 10 -71 15 -23 6 -66 10 -96 10 -29 0 -70 7 -89 15 -20 8
-58 15 -85 15 -27 0 -66 7 -85 15 -20 8 -56 15 -80 15 -24 0 -52 7 -63 15 -10
8 -29 15 -41 15 -19 0 -23 -5 -23 -33z m241 -104 c71 -21 100 -49 92 -87 -4
-21 -16 -33 -48 -47 -90 -40 -135 -34 -135 17 0 14 -5 33 -12 44 -10 15 -9 22
3 37 9 10 19 26 22 36 8 21 12 21 78 0z m-46 -323 c5 -8 11 -8 20 0 10 8 22 6
47 -10 42 -25 64 -25 78 0 9 16 15 18 30 10 26 -14 26 -30 0 -30 -25 0 -26
-28 -3 -45 17 -13 17 -14 0 -33 -10 -11 -17 -26 -15 -33 2 -10 -6 -13 -26 -10
-49 5 -76 19 -76 39 0 10 -11 28 -25 40 -14 12 -25 31 -25 42 0 11 -7 20 -15
20 -8 0 -15 5 -15 10 0 13 17 13 25 0z"/>
<path d="M4805 4121 c-3 -5 -18 -12 -33 -15 -15 -4 -52 -28 -81 -55 l-55 -48
-3 -89 c-2 -49 -6 -112 -9 -139 -5 -40 -3 -54 10 -64 14 -12 21 -8 55 22 37
33 92 57 134 57 10 0 38 -20 63 -45 24 -25 49 -45 56 -45 6 0 29 20 52 45 32
34 50 45 72 45 43 0 78 -19 104 -57 15 -22 31 -33 47 -33 24 0 25 2 18 38 -4
20 -10 94 -13 163 -6 115 -9 129 -33 160 -18 23 -43 40 -81 53 -51 17 -57 17
-102 2 -48 -16 -150 -13 -162 5 -7 12 -31 11 -39 0z m115 -71 c13 -11 26 -20
29 -20 4 0 14 9 24 20 14 16 29 20 81 20 83 0 96 -16 96 -110 0 -75 -7 -90
-41 -90 -28 -1 -115 6 -144 11 -13 3 -20 -2 -23 -16 -7 -35 -21 -40 -31 -12
-12 30 -28 34 -56 14 -24 -18 -11 -37 26 -37 19 0 29 -5 29 -15 0 -8 7 -15 15
-15 8 0 15 -5 15 -11 0 -7 -9 -9 -22 -5 -13 4 -35 9 -50 12 -16 4 -28 13 -28
20 0 9 -12 14 -32 14 -22 0 -41 9 -57 26 -21 22 -25 36 -25 96 -1 65 1 72 27
94 38 32 132 34 167 4z m-161 -226 c2 -2 1 -10 -2 -17 -3 -10 -15 -13 -31 -10
-25 5 -34 22 -19 36 6 6 42 0 52 -9z m267 -5 c4 -7 -35 -29 -52 -29 -6 0 -5
36 2 42 7 8 43 -2 50 -13z m124 -4 c0 -8 -7 -15 -15 -15 -8 0 -15 7 -15 15 0
8 7 15 15 15 8 0 15 -7 15 -15z"/>
<path d="M4944 3997 c-3 -10 -3 -29 1 -45 l8 -27 10 33 c7 23 7 36 -1 44 -8 8
-13 7 -18 -5z"/>
<path d="M4782 3888 c2 -15 10 -23 23 -23 13 0 21 8 23 23 3 18 -1 22 -23 22
-22 0 -26 -4 -23 -22z"/>
<path d="M5394 3456 c-4 -9 25 -55 70 -115 42 -56 76 -105 76 -110 0 -13 72
-120 104 -154 14 -15 26 -35 26 -43 0 -21 17 -17 23 6 3 10 -2 25 -10 31 -8 7
-12 21 -9 32 3 11 0 29 -5 39 -7 14 -7 23 1 33 15 18 5 35 -21 35 -17 0 -39
33 -39 60 0 16 33 20 50 5 9 -8 26 -15 37 -15 11 0 34 -7 49 -15 16 -8 36 -15
44 -15 8 0 25 -8 38 -18 20 -15 22 -22 14 -57 -6 -30 -13 -41 -29 -43 -25 -4
-79 -70 -75 -92 5 -30 -31 -40 -82 -23 -26 9 -50 22 -53 29 -3 8 -9 14 -15 14
-5 0 -25 12 -43 26 -19 14 -61 40 -93 57 -33 18 -86 49 -117 70 -32 22 -64 41
-72 44 -26 10 -24 -26 3 -69 40 -62 62 -106 69 -139 4 -16 11 -31 16 -34 5 -4
9 -19 9 -34 0 -15 7 -36 15 -47 8 -10 15 -27 15 -37 0 -11 6 -33 14 -50 8 -18
22 -61 31 -97 9 -36 19 -68 22 -72 7 -13 77 28 98 57 11 14 49 46 85 70 76 51
236 214 328 335 90 118 99 150 46 150 -41 0 -345 89 -429 126 -16 7 -41 16
-55 19 -28 7 -85 31 -113 46 -13 7 -19 6 -23 -5z m118 -479 c10 -4 18 1 21 14
7 25 34 25 42 -1 8 -24 38 -42 58 -34 8 3 18 1 22 -5 4 -7 -4 -11 -20 -11 -19
0 -29 -8 -42 -35 -27 -56 -67 -54 -104 6 -13 21 -30 37 -36 34 -16 -6 -16 4
-1 37 11 23 15 25 28 14 8 -7 22 -16 32 -19z"/>
<path d="M3460 3414 c-25 -13 -79 -34 -120 -48 -41 -14 -95 -33 -120 -42 -64
-23 -133 -43 -219 -63 -41 -9 -76 -22 -78 -28 -2 -6 13 -31 34 -55 21 -25 63
-78 93 -118 66 -89 210 -230 290 -285 32 -22 83 -61 113 -87 30 -27 59 -48 66
-48 13 0 32 41 56 125 18 62 37 117 61 173 8 18 14 43 14 55 0 13 4 27 8 33 5
5 14 27 20 49 6 23 25 61 42 86 16 25 31 56 32 69 4 34 -28 38 -60 7 -30 -28
-136 -97 -149 -97 -5 0 -40 -21 -78 -46 -39 -25 -80 -50 -92 -55 -13 -5 -23
-13 -23 -19 0 -5 -14 -10 -30 -10 -49 0 -47 24 7 78 26 27 68 87 92 132 24 46
64 112 88 147 23 35 43 65 43 68 0 12 -49 0 -90 -21z m-162 -201 c2 -15 -8
-33 -27 -52 -37 -36 -37 -39 -9 -43 27 -4 33 -21 13 -41 -8 -9 -15 -25 -15
-36 0 -12 -6 -21 -13 -21 -18 0 -37 21 -37 42 0 22 -51 70 -68 63 -17 -6 -26
19 -18 50 7 29 63 62 78 47 6 -6 19 -5 36 4 35 19 56 14 60 -13z m225 -203
c15 0 11 -95 -5 -127 -15 -30 -72 -39 -120 -19 -20 9 -39 20 -42 25 -10 15 12
61 29 61 8 0 25 10 37 23 30 30 60 46 76 41 8 -2 19 -4 25 -4z"/>
<path d="M6103 3293 c-21 -8 -15 -38 15 -64 41 -37 129 -74 170 -70 14 1 17
41 3 41 -5 0 -28 16 -52 36 -23 19 -58 42 -77 50 -37 15 -40 15 -59 7z"/>
<path d="M2776 3241 c-64 -43 -93 -78 -79 -92 14 -14 113 25 153 61 18 16 37
31 43 33 6 2 8 11 4 20 -11 29 -60 20 -121 -22z"/>
<path d="M4900 3100 c0 -5 5 -31 10 -57 6 -26 12 -120 14 -208 2 -88 8 -181
13 -207 11 -52 7 -56 -35 -34 -29 15 -37 28 -73 116 -13 30 -32 71 -44 90 -40
68 -44 75 -66 118 -27 51 -56 79 -68 66 -5 -5 -11 -54 -15 -109 -3 -55 -12
-138 -20 -185 -9 -47 -21 -116 -27 -155 -6 -38 -17 -77 -25 -86 -8 -8 -14 -28
-14 -42 l0 -27 108 6 c59 3 121 10 137 16 17 5 57 14 90 18 65 9 129 30 147
48 7 7 24 12 38 12 14 0 35 7 46 15 10 8 25 15 33 15 8 0 38 11 67 25 30 14
67 28 83 31 34 7 83 54 64 61 -21 7 -113 84 -113 94 0 5 -24 35 -52 67 -29 32
-62 69 -74 83 -12 13 -34 36 -50 50 -16 14 -49 58 -74 98 -42 69 -64 91 -89
91 -6 0 -11 -4 -11 -10z m200 -317 c0 -24 23 -83 32 -83 12 0 48 -43 48 -57 0
-7 -16 -21 -36 -30 -30 -15 -38 -15 -56 -4 -18 11 -23 11 -37 -6 -17 -21 -66
-45 -74 -37 -10 10 6 89 19 97 9 5 11 18 8 37 -8 38 37 100 72 100 16 0 24 -6
24 -17z m-306 -139 c9 -8 16 -24 16 -34 0 -11 9 -24 21 -30 28 -15 22 -54 -9
-58 -13 -2 -26 -10 -29 -18 -7 -19 -44 -17 -68 4 -17 14 -20 27 -17 75 3 48 7
57 23 57 10 0 19 5 19 10 0 15 27 12 44 -6z"/>
<path d="M4010 3051 c0 -14 -68 -112 -105 -151 -57 -60 -120 -134 -148 -171
-14 -20 -49 -53 -76 -73 -42 -31 -49 -40 -42 -59 8 -20 22 -28 144 -73 84 -32
123 -47 147 -57 66 -28 128 -46 156 -47 17 0 49 -6 70 -13 44 -16 304 -32 304
-19 0 4 -9 25 -20 46 -10 21 -23 62 -29 90 -42 227 -58 327 -70 431 -5 52 -9
60 -29 63 -14 2 -24 -3 -28 -15 -9 -27 -40 -91 -79 -158 -19 -33 -55 -101 -80
-152 -86 -173 -97 -157 -85 132 5 121 6 223 4 227 -7 11 -34 10 -34 -1z m-50
-326 c15 -16 23 -36 22 -57 0 -18 3 -35 7 -38 13 -9 23 -80 11 -80 -6 0 -13 7
-16 15 -4 8 -23 18 -45 21 -21 4 -46 15 -55 25 -9 11 -23 19 -31 19 -22 0 -16
58 7 65 11 3 20 15 20 25 0 36 48 39 80 5z m265 -15 c3 -5 15 -10 26 -10 11 0
22 -8 25 -17 3 -10 11 -31 19 -48 13 -31 15 -101 2 -122 -8 -12 -85 -11 -126
2 -21 7 -23 12 -17 53 3 25 6 53 6 63 0 10 9 21 21 24 16 5 19 13 15 29 -8 31
14 50 29 26z"/>
<path d="M5411 2612 c-12 -23 7 -68 61 -143 45 -61 65 -76 80 -61 11 11 -14
92 -42 137 -19 30 -73 85 -84 85 -3 0 -10 -8 -15 -18z"/>
<path d="M3515 2577 c-19 -19 -37 -47 -40 -63 -3 -16 -12 -42 -20 -57 -20 -39
-19 -69 2 -65 18 3 93 102 118 157 31 65 -6 82 -60 28z"/>
<path d="M4465 2368 c-2 -7 -3 -60 -2 -118 2 -99 3 -105 23 -108 27 -4 42 35
50 123 7 77 -6 115 -41 115 -14 0 -27 -6 -30 -12z"/>
<path d="M2768 6088 c-16 -11 -28 -24 -28 -29 0 -5 31 -41 69 -81 67 -70 70
-72 95 -58 35 18 33 38 -10 85 -20 22 -41 47 -48 55 -6 8 -20 23 -31 32 -19
15 -22 15 -47 -4z"/>
<path d="M6020 5980 c0 -5 11 -10 25 -10 14 0 25 5 25 10 0 6 -11 10 -25 10
-14 0 -25 -4 -25 -10z"/>
<path d="M2319 5606 c-22 -47 15 -83 52 -50 30 27 22 68 -13 72 -22 3 -30 -2
-39 -22z"/>
<path d="M2127 5252 c-34 -37 -22 -57 53 -86 38 -15 72 -32 76 -37 17 -28 79
12 72 47 -3 19 -6 20 -102 63 -80 36 -78 36 -99 13z"/>
<path d="M1908 4505 c-16 -36 0 -59 43 -63 19 -1 55 -7 80 -12 58 -12 88 -4
95 26 10 38 -10 51 -89 58 -39 4 -82 10 -94 13 -17 4 -25 -1 -35 -22z"/>
<path d="M6909 4347 c-19 -10 -24 -20 -24 -52 0 -38 2 -40 32 -43 36 -4 49 19
38 68 -8 38 -15 42 -46 27z"/>
<path d="M7052 4348 c-15 -15 -16 -94 -2 -103 6 -4 22 1 35 9 39 25 31 106
-10 106 -6 0 -16 -5 -23 -12z"/>
<path d="M2052 4138 c-17 -17 -15 -63 3 -78 20 -16 43 -6 57 25 9 21 8 28 -7
45 -21 23 -36 25 -53 8z"/>
<path d="M1880 4121 c-12 -24 -4 -48 22 -62 27 -15 48 5 48 47 0 31 -3 34 -30
34 -19 0 -33 -7 -40 -19z"/>
<path d="M6674 3195 c-9 -35 1 -54 33 -66 16 -5 52 -21 81 -35 50 -24 55 -24
78 -9 36 23 31 52 -13 72 -21 9 -59 27 -84 39 -61 31 -87 31 -95 -1z"/>
<path d="M2210 2955 c-16 -19 1 -65 24 -65 46 0 65 49 27 70 -27 14 -36 13
-51 -5z"/>
<path d="M6492 2880 c-22 -35 -13 -48 66 -99 82 -54 102 -60 122 -37 22 27 7
58 -40 84 -25 13 -59 35 -77 48 -39 29 -54 30 -71 4z"/>
<path d="M2995 2014 c-52 -52 -100 -85 -121 -82 -38 5 -31 -16 15 -41 41 -23
43 -23 75 -6 24 13 43 16 77 11 90 -14 123 -12 127 6 2 12 -8 22 -30 31 -19 8
-49 33 -68 56 -38 45 -50 49 -75 25z"/>
<path d="M3566 1913 c-8 -19 0 -28 32 -38 27 -8 41 17 22 40 -17 20 -46 19
-54 -2z"/>
<path d="M5384 1925 c-8 -19 0 -48 26 -108 22 -49 38 -57 64 -32 14 14 13 20
-3 58 -11 23 -24 54 -30 70 -12 30 -48 38 -57 12z"/>
<path d="M3814 1835 c-11 -27 4 -45 36 -45 32 0 36 9 20 41 -13 23 -48 25 -56
4z"/>
<path d="M3775 1720 c-6 -10 29 -50 44 -50 15 0 33 29 27 45 -6 17 -61 21 -71
5z"/>
<path d="M4932 1791 c-11 -7 -11 -21 0 -82 11 -62 16 -74 34 -77 37 -5 47 20
34 85 -16 78 -33 97 -68 74z"/>
<path d="M6492 6668 c7 -19 38 -22 38 -4 0 10 -9 16 -21 16 -12 0 -19 -5 -17
-12z"/>
<path d="M0 5337 c0 -53 1 -56 37 -78 21 -12 49 -32 63 -45 30 -27 129 -94
139 -94 4 0 37 -26 74 -58 37 -31 84 -66 104 -77 21 -11 73 -46 115 -77 42
-32 83 -58 92 -58 8 0 25 -12 38 -27 23 -28 101 -93 111 -93 6 0 84 -53 167
-113 35 -26 68 -47 73 -47 5 0 35 -24 67 -52 31 -29 79 -64 106 -78 47 -24
121 -77 197 -141 l37 -31 1 -177 c0 -97 5 -210 10 -251 5 -41 13 -111 17 -155
4 -44 12 -87 17 -95 5 -8 10 -35 12 -60 1 -25 7 -63 13 -85 7 -22 18 -65 27
-95 8 -30 21 -75 29 -100 8 -25 14 -52 14 -60 0 -8 18 -50 39 -92 21 -42 42
-90 45 -105 4 -15 24 -64 45 -108 21 -44 41 -87 45 -95 10 -22 28 -51 53 -86
12 -17 27 -42 33 -55 15 -35 49 -91 69 -114 10 -11 28 -41 40 -67 12 -26 36
-60 53 -77 17 -17 47 -53 67 -80 64 -88 118 -156 140 -175 11 -11 21 -25 21
-33 0 -8 -18 -52 -40 -99 -22 -47 -40 -91 -40 -97 0 -7 -18 -67 -40 -135 -22
-67 -40 -131 -40 -142 0 -10 -6 -34 -14 -52 -8 -18 -20 -53 -27 -78 -6 -25
-21 -65 -32 -90 -11 -25 -23 -54 -27 -65 -26 -72 -33 -93 -39 -120 -4 -17 -13
-40 -19 -52 -7 -12 -12 -35 -12 -50 0 -16 -7 -38 -15 -49 -8 -10 -15 -31 -15
-45 0 -14 -7 -34 -15 -45 -8 -10 -15 -31 -15 -46 0 -28 -4 -39 -59 -161 -17
-37 -31 -78 -31 -91 0 -13 -7 -29 -15 -36 -8 -7 -15 -22 -15 -34 0 -12 -7 -31
-15 -42 -8 -10 -15 -29 -15 -42 0 -12 -4 -30 -10 -40 -5 -9 -17 -44 -26 -77
-9 -33 -29 -88 -45 -122 -16 -34 -29 -68 -29 -76 0 -28 -42 -146 -56 -158 -16
-13 -19 -45 -4 -54 9 -6 42 8 64 27 6 5 37 26 68 46 31 20 78 55 104 77 26 22
55 44 64 50 71 41 246 163 295 205 33 28 74 58 91 68 34 18 107 70 137 96 9 9
20 16 23 16 3 0 26 14 51 30 24 17 48 30 53 30 5 0 30 15 55 33 26 17 61 41
80 52 101 61 194 126 243 171 32 29 80 63 108 77 28 14 65 37 81 51 17 14 55
43 86 63 30 21 73 52 94 70 65 55 147 113 159 113 6 0 17 7 24 15 16 19 59 19
84 0 11 -8 31 -15 45 -15 14 -1 37 -7 51 -15 14 -8 37 -14 51 -15 14 0 34 -7
45 -15 10 -8 39 -15 64 -15 25 0 56 -7 70 -15 14 -8 43 -15 65 -15 22 0 58 -7
80 -15 22 -8 59 -14 81 -15 23 0 47 -6 53 -14 12 -14 83 -21 355 -32 172 -8
454 10 504 32 18 8 48 14 66 14 18 0 55 7 82 15 27 8 65 15 84 15 19 0 48 7
64 15 15 8 45 15 65 15 21 0 46 7 57 15 10 8 33 15 50 15 17 0 37 7 44 15 7 8
28 15 47 15 19 0 48 8 64 17 25 15 30 15 46 1 10 -8 25 -18 33 -22 45 -21 146
-95 182 -134 15 -17 47 -40 70 -52 24 -12 57 -35 74 -50 17 -15 58 -42 90 -60
32 -18 84 -57 114 -85 31 -29 74 -61 97 -72 22 -11 67 -41 100 -66 33 -25 78
-55 101 -67 23 -12 45 -26 48 -31 3 -5 12 -9 21 -9 8 0 32 -13 53 -30 21 -16
44 -30 51 -30 7 0 19 -7 28 -15 22 -21 97 -77 130 -95 63 -37 107 -69 127 -92
12 -14 49 -43 83 -64 61 -38 207 -141 265 -186 16 -13 36 -26 45 -30 9 -4 34
-23 56 -43 52 -48 105 -72 116 -53 12 18 11 36 -2 44 -6 3 -17 21 -25 38 -8
17 -18 38 -23 46 -13 23 -82 249 -91 298 -4 24 -12 48 -18 54 -7 7 -12 24 -12
38 0 14 -7 35 -15 46 -8 10 -15 31 -15 45 0 15 -7 32 -15 39 -8 7 -15 20 -15
29 0 9 -5 22 -12 29 -12 12 -34 67 -47 117 -4 17 -13 40 -19 52 -7 12 -12 35
-12 51 0 16 -7 35 -15 42 -8 7 -15 27 -15 45 0 18 -7 38 -15 45 -8 7 -15 27
-15 45 0 18 -7 46 -15 61 -8 16 -15 36 -15 45 0 15 -28 82 -49 119 -5 8 -15
35 -21 60 -19 68 -41 141 -56 180 -7 19 -16 51 -19 70 -7 39 -78 258 -93 287
-22 43 -41 93 -47 125 -6 30 -2 38 32 69 35 33 73 82 129 164 12 17 45 56 73
86 28 30 51 60 51 68 0 7 13 30 28 50 16 20 32 43 35 51 4 8 16 29 27 45 11
17 23 37 26 45 4 8 13 22 20 31 24 27 154 290 154 310 0 10 9 36 20 56 11 21
20 43 20 49 0 7 11 34 24 61 38 76 106 316 106 376 0 16 5 37 11 48 5 11 14
61 20 112 5 51 13 126 18 167 6 41 10 160 10 263 1 183 2 189 24 208 12 10 27
18 32 19 6 0 26 13 45 28 19 16 67 48 105 70 39 23 93 62 120 87 50 45 239
177 295 205 16 8 56 41 89 72 32 31 79 66 102 77 24 12 60 35 79 52 19 16 55
41 80 54 38 19 101 69 168 133 7 6 18 12 23 12 16 0 112 64 154 104 22 20 52
39 68 43 25 5 27 9 27 59 0 50 -2 54 -23 54 -14 0 -42 -18 -69 -43 -57 -54
-104 -89 -145 -109 -17 -9 -65 -41 -106 -72 -41 -31 -78 -56 -82 -56 -4 0 -31
-20 -59 -43 -28 -24 -78 -61 -110 -81 -33 -21 -88 -59 -122 -85 -34 -25 -75
-54 -91 -63 -15 -10 -55 -40 -87 -67 -32 -28 -74 -57 -92 -66 -18 -8 -78 -50
-134 -93 -56 -42 -149 -109 -208 -149 -59 -39 -119 -81 -133 -92 l-26 -20 -6
-248 c-7 -305 -28 -474 -83 -658 -13 -44 -33 -114 -45 -155 -35 -124 -51 -170
-60 -176 -5 -3 -9 -13 -9 -22 0 -9 -7 -30 -15 -46 -8 -15 -15 -37 -15 -48 0
-10 -20 -50 -45 -88 -25 -38 -45 -76 -45 -84 0 -8 -4 -17 -10 -21 -5 -3 -26
-40 -47 -83 -42 -88 -81 -148 -113 -177 -12 -11 -34 -42 -47 -70 -29 -56 -62
-100 -144 -189 -62 -68 -110 -130 -127 -163 -11 -21 -6 -51 18 -108 5 -11 11
-31 15 -45 13 -55 59 -198 80 -250 12 -30 41 -118 64 -195 70 -227 132 -417
151 -460 21 -48 32 -80 55 -160 17 -56 24 -79 55 -165 6 -19 14 -46 17 -60 3
-14 12 -34 19 -45 8 -11 14 -28 14 -37 0 -10 4 -26 9 -36 27 -50 49 -103 65
-157 11 -33 23 -69 27 -80 10 -24 39 -106 39 -111 0 -12 -32 0 -64 24 -20 15
-59 43 -86 62 -60 41 -184 133 -255 188 -27 21 -66 47 -85 58 -19 10 -61 38
-92 62 -31 23 -60 42 -65 42 -12 0 -85 38 -92 47 -3 5 -15 14 -26 21 -11 7
-39 25 -63 40 -104 65 -124 80 -174 120 -79 63 -205 153 -274 195 -33 20 -72
47 -85 60 -33 31 -105 87 -114 87 -3 0 -42 27 -85 60 -43 33 -82 60 -85 60 -4
0 -26 14 -50 30 -48 33 -70 37 -94 16 -15 -12 -55 -25 -141 -46 -19 -4 -48
-13 -65 -18 -54 -19 -217 -56 -300 -68 -16 -3 -70 -12 -120 -21 -133 -24 -663
-23 -830 1 -66 9 -143 24 -171 32 -28 8 -62 14 -76 14 -14 0 -45 7 -68 15 -23
8 -57 15 -74 15 -17 0 -40 7 -50 15 -11 8 -29 15 -41 15 -24 0 -110 26 -139
42 -54 30 -73 28 -136 -13 -33 -21 -82 -56 -109 -76 -27 -21 -75 -54 -106 -73
-31 -19 -75 -53 -98 -75 -23 -23 -58 -49 -77 -58 -19 -9 -53 -30 -75 -47 -22
-17 -59 -42 -83 -58 -24 -15 -64 -44 -90 -64 -26 -21 -92 -69 -147 -106 -55
-38 -121 -83 -146 -100 -26 -18 -51 -32 -57 -32 -5 0 -12 -7 -16 -15 -3 -8
-16 -15 -30 -15 -14 0 -28 -4 -31 -10 -3 -5 -54 -42 -113 -81 -59 -40 -120
-82 -135 -95 -16 -13 -33 -24 -38 -24 -5 0 -42 -27 -82 -61 -39 -33 -85 -68
-102 -76 -16 -9 -54 -36 -83 -60 -79 -64 -90 -49 -41 56 17 36 33 81 37 100 3
19 11 46 19 61 7 14 13 35 13 47 0 12 5 25 10 28 5 3 10 17 10 29 0 13 7 29
15 36 8 7 15 18 15 25 0 7 7 18 15 25 8 7 15 23 15 36 0 13 6 38 14 56 21 51
37 99 46 138 8 33 22 76 42 130 6 14 19 59 30 100 11 41 25 82 32 90 7 8 27
60 44 115 53 168 99 317 118 385 9 36 28 83 40 105 12 22 25 56 29 75 4 19 17
67 30 105 44 131 46 145 28 179 -9 17 -46 63 -83 101 -70 74 -73 79 -146 190
-25 39 -52 75 -58 80 -16 13 -63 86 -97 150 -80 152 -101 191 -112 205 -23 28
-47 78 -47 96 0 9 -13 44 -28 78 -16 34 -36 88 -46 121 -10 33 -29 87 -41 120
-29 75 -52 158 -59 210 -3 22 -10 63 -16 90 -23 108 -41 309 -47 510 -6 235
-5 229 -83 271 -25 14 -81 51 -125 84 -44 32 -85 59 -92 60 -6 0 -19 10 -27
21 -8 12 -25 29 -39 38 -13 9 -57 38 -98 65 -41 28 -141 100 -224 161 -82 61
-170 123 -195 138 -25 14 -71 48 -104 74 -32 26 -66 53 -74 58 -9 6 -36 25
-62 42 -70 50 -122 86 -152 103 -15 8 -55 38 -89 65 -34 28 -70 55 -79 60 -10
6 -25 17 -34 24 -14 12 -16 8 -16 -42z"/>
</g>
</svg>
